<?xml version="1.0" standalone="no"?>
<!DOCTYPE svg PUBLIC "-//W3C//DTD SVG 1.1//EN" "http://www.w3.org/Graphics/SVG/1.1/DTD/svg11.dtd" >
<svg xmlns="http://www.w3.org/2000/svg">
<metadata></metadata>
<defs>
<font id="webfontregular" horiz-adv-x="1546" >
<font-face units-per-em="2048" ascent="1638" descent="-410" />
<missing-glyph horiz-adv-x="409" />
<glyph unicode="&#xfb01;" horiz-adv-x="1417" d="M-358 -266q0 72 46 108.5t105 44.5h51q4 -94 27 -157.5t70 -63.5q25 0 42 17.5t33.5 59.5t31.5 114.5t36 183.5l176 946h-158l23 100l168 41q66 211 208 329t371 118q63 0 122 -10.5t103 -32t70.5 -54t26.5 -79.5q0 -49 -28.5 -83t-82.5 -50h-155q6 88 -13.5 149.5 t-85.5 61.5q-37 0 -70.5 -20.5t-61 -64.5t-48 -113t-26.5 -167h493l131 27h74l-213 -846q-16 -61 -16 -84q0 -31 28 -31q29 0 70 38t100 112l58 -54q-100 -145 -191.5 -219.5t-200.5 -74.5q-90 0 -143 51t-53 131q0 41 7 82t19 94l160 649h-338l-110 -520 q-53 -254 -118 -425t-140.5 -274.5t-163.5 -147.5t-189 -44q-111 0 -178 42t-67 116z" />
<glyph unicode="&#xfb02;" horiz-adv-x="1409" d="M-358 -266q0 72 46 108.5t105 44.5h51q4 -94 27 -157.5t70 -63.5q25 0 42 17.5t33.5 59.5t31.5 114.5t36 183.5l176 946h-158l23 100l168 41q66 213 202 330t341 117q82 0 145 -22.5t106 -57.5l263 64h65l-305 -1266q-14 -55 -14 -84q0 -31 28 -31q29 0 69 38t97 112 l60 -54q-100 -145 -192.5 -219.5t-201.5 -74.5q-90 0 -142 51t-52 131q0 41 7 82t19 94l224 948q-20 98 -66.5 145.5t-109.5 47.5q-78 0 -139.5 -86t-73.5 -281h198l-24 -125h-189l-110 -520q-53 -254 -118 -425t-140.5 -274.5t-163.5 -147.5t-189 -44q-111 0 -178 42 t-67 116z" />
<glyph unicode="&#xfb03;" horiz-adv-x="2082" d="M-358 -266q0 72 46 108.5t105 44.5h51q4 -94 27 -157.5t70 -63.5q25 0 42 17.5t33.5 59.5t31.5 114.5t36 183.5l176 946h-158l23 100l168 41q66 211 201 317.5t329 106.5q92 0 176 -32.5t142 -85.5q154 141 397 141q63 0 121.5 -10.5t103.5 -32t72 -54t27 -79.5 q0 -49 -29 -83t-82 -50h-156q6 88 -13 149.5t-85 61.5q-74 0 -134 -85t-73 -280h494l129 27h74l-211 -846q-8 -29 -13.5 -50.5t-5.5 -33.5q0 -31 29 -31t69.5 38t100.5 112l59 -54q-100 -145 -192 -219.5t-201 -74.5q-90 0 -143.5 51t-53.5 131q0 41 7.5 82t21.5 94l158 649 h-338l-105 -498q-53 -254 -117.5 -424.5t-140 -274t-164 -147.5t-190.5 -44q-92 0 -142 42t-50 109q0 63 39.5 103.5t101.5 48.5h41q2 -47 5 -86t9 -68t17.5 -44t31.5 -15q25 0 43.5 17.5t33.5 59t31.5 114.5t37.5 183l170 924h-318l-110 -520q-51 -244 -116 -414 t-141.5 -276.5t-165.5 -153.5t-188 -47q-111 0 -178 42t-67 116zM623 1112h331q12 41 26.5 80t33.5 74q-20 92 -67.5 140t-110.5 48q-39 0 -75 -17.5t-64.5 -57.5t-48 -105.5t-25.5 -161.5z" />
<glyph unicode="&#xfb04;" horiz-adv-x="2074" d="M-358 -266q0 72 46 108.5t105 44.5h51q4 -94 27 -157.5t70 -63.5q25 0 42 17.5t33.5 59.5t31.5 114.5t36 183.5l176 946h-158l23 100l168 41q66 211 201 317.5t329 106.5q90 0 174 -31.5t142 -82.5q72 66 162 101.5t200 35.5q84 0 147.5 -22.5t104.5 -57.5l262 64h68 l-307 -1266q-14 -55 -15 -84q0 -31 29 -31t68.5 38t99.5 112l59 -54q-100 -145 -192 -219.5t-201 -74.5q-90 0 -143.5 51t-53.5 131q0 41 7.5 82t19.5 94l223 948q-20 98 -66 145.5t-108 47.5q-80 0 -141.5 -86t-71.5 -281h197l-23 -125h-190l-105 -498 q-53 -254 -117.5 -424.5t-140 -274t-164 -147.5t-190.5 -44q-92 0 -142 42t-50 109q0 63 39.5 103.5t101.5 48.5h41q2 -47 5 -86t9 -68t17.5 -44t31.5 -15q25 0 43.5 17.5t33.5 59t31.5 114.5t37.5 183l170 924h-318l-110 -520q-51 -244 -116 -414t-141.5 -276.5 t-165.5 -153.5t-188 -47q-111 0 -178 42t-67 116zM623 1112h331q12 41 26.5 81t33.5 75q-23 92 -69 139t-109 47q-39 0 -75 -17.5t-64.5 -57.5t-48 -105.5t-25.5 -161.5z" />
<glyph horiz-adv-x="0" />
<glyph unicode="&#xd;" horiz-adv-x="409" />
<glyph horiz-adv-x="0" />
<glyph horiz-adv-x="0" />
<glyph unicode=" "  horiz-adv-x="409" />
<glyph unicode="&#x09;" horiz-adv-x="409" />
<glyph unicode="&#xa0;" horiz-adv-x="409" />
<glyph unicode="!" horiz-adv-x="667" d="M70 178q0 43 15 79t41 63.5t60.5 43t75.5 15.5q82 0 138.5 -57.5t56.5 -143.5q0 -82 -56.5 -139t-138.5 -57q-41 0 -75.5 15t-60.5 42t-41 62.5t-15 76.5zM227 475l125 963h393l-356 -963h-162z" />
<glyph unicode="&#x22;" horiz-adv-x="917" d="M268 930l15 301q4 92 9 162.5t42 117.5q20 27 53 44.5t82 17.5q76 0 105.5 -40t29.5 -87q0 -63 -33.5 -113.5t-64.5 -105.5l-168 -297h-70zM694 930l13 301q4 92 9 162.5t42 117.5q23 27 55.5 44.5t81.5 17.5q76 0 104.5 -40t28.5 -87q0 -63 -32.5 -113.5t-63.5 -105.5 l-170 -297h-68z" />
<glyph unicode="#" horiz-adv-x="1216" d="M80 428v139h219l111 305h-217v138h266l162 448l139 -49l-146 -399h256l162 448l139 -49l-145 -399h170v-138h-219l-111 -305h217v-139h-266l-162 -448l-139 49l143 399h-253l-162 -448l-140 49l144 399h-168zM455 567h256l110 305h-256z" />
<glyph unicode="$" horiz-adv-x="1189" d="M37 170l55 324h162q6 -150 60.5 -248.5t152.5 -128.5l92 452l-16 9q-172 84 -255 186t-83 246q0 106 40 189t111.5 140.5t169 88t211.5 30.5h4l43 209h107l-45 -215q117 -16 200.5 -55t141.5 -90l-62 -301h-141q-14 106 -49 189t-119 118l-86 -424q88 -43 157.5 -87 t117 -95.5t73 -114t25.5 -143.5q0 -119 -47 -206t-125 -144.5t-178.5 -87t-206.5 -31.5l-43 -211h-109l43 217q-143 16 -247.5 70.5t-153.5 113.5zM502 1137q0 -66 32.5 -110t100.5 -85l80 389h-2q-102 0 -156.5 -54t-54.5 -140zM571 104q94 4 155.5 55.5t61.5 155.5 q0 66 -30.5 110t-102.5 91z" />
<glyph unicode="%" horiz-adv-x="1878" d="M158 987q0 117 41 205t106.5 147.5t145 89t159.5 29.5q66 0 124.5 -19.5t101.5 -56t68.5 -92t25.5 -127.5q0 -117 -41 -205t-106.5 -148t-146.5 -90t-159 -30q-66 0 -124 19.5t-101 57.5t-68.5 93t-25.5 127zM262 -39l1243 1518h152l-1247 -1518h-148zM395 938 q0 -68 21.5 -110t70.5 -42q39 0 77 35t65.5 93.5t45 135t17.5 160.5q0 68 -21.5 110t-70.5 42q-41 0 -78 -35t-64.5 -93t-45 -135t-17.5 -161zM987 276q0 117 41 205t106.5 148.5t146.5 90.5t161 30q66 0 124 -19.5t101 -57.5t68.5 -93.5t25.5 -126.5q0 -117 -41 -205 t-106.5 -147.5t-146.5 -89t-160 -29.5q-66 0 -124.5 19t-101.5 56t-68.5 92.5t-25.5 126.5zM1227 229q0 -68 20.5 -109.5t69.5 -41.5q39 0 77 34.5t65.5 93t45 135.5t17.5 161q0 68 -21.5 109.5t-68.5 41.5q-41 0 -78 -34.5t-65.5 -93t-45 -135.5t-16.5 -161z" />
<glyph unicode="&#x26;" horiz-adv-x="1533" d="M43 358q0 86 31.5 155t89 123t136.5 94t173 67q-27 49 -50.5 115.5t-23.5 144.5q0 86 34 159.5t96.5 127t150.5 84t199 30.5q186 0 285.5 -77.5t99.5 -206.5q0 -72 -33 -129.5t-89.5 -102.5t-131 -79t-156.5 -60l246 -381q31 47 48 101.5t17 107.5q0 35 -18.5 48 t-61.5 13l23 125h436l-22 -125q-55 0 -93 -6t-64 -23.5t-45.5 -46t-37.5 -71.5q-51 -117 -123 -213l62 -96q39 -57 79.5 -82t112.5 -25l-22 -129h-369q-35 23 -62.5 48.5t-52.5 53.5q-96 -59 -203.5 -90.5t-226.5 -31.5q-90 0 -169 23.5t-138 71.5t-93 118.5t-34 164.5z M377 440q0 -59 19.5 -112.5t56 -93t91 -63.5t126.5 -24q41 0 84 11.5t88 31.5l-33 54l-289 471q-74 -41 -108.5 -115t-34.5 -160zM690 1171q0 -82 36 -154.5t69 -119.5l8 -12q86 37 137 103.5t51 185.5q0 84 -38 128t-109 44q-68 0 -111 -47.5t-43 -127.5z" />
<glyph unicode="'" horiz-adv-x="491" d="M268 930l15 301q4 92 9 162.5t42 117.5q20 27 53 44.5t82 17.5q76 0 105.5 -40t29.5 -87q0 -63 -33.5 -113.5t-64.5 -105.5l-168 -297h-70z" />
<glyph unicode="(" horiz-adv-x="774" d="M133 412q0 168 48 330.5t133 312t202 281.5t254 241h188q-162 -141 -269 -303t-172.5 -325t-93.5 -315.5t-28 -275.5q0 -195 39 -353.5t137 -293.5h-178q-63 68 -111.5 150t-81 172t-50 186.5t-17.5 192.5z" />
<glyph unicode=")" horiz-adv-x="774" d="M-113 -289q162 141 269.5 303t173 325t93.5 315.5t28 275.5q0 195 -39 353.5t-138 293.5h179q63 -68 111 -149.5t81 -172t50.5 -186.5t17.5 -192q0 -168 -48.5 -331t-133.5 -312.5t-201.5 -282.5t-253.5 -240h-189z" />
<glyph unicode="*" horiz-adv-x="997" d="M215 1165l346 17l-278 207l155 149l191 -297l37 348l204 -63l-159 -307l321 137l47 -209l-346 -17l279 -206l-156 -148l-190 293l-39 -346l-203 63l158 308l-320 -138z" />
<glyph unicode="+" horiz-adv-x="1218" d="M158 659l41 179h374l80 376h176l-79 -376h378l-38 -179h-377l-80 -376h-176l80 376h-379z" />
<glyph unicode="," horiz-adv-x="641" d="M-23 -166q57 4 107.5 17.5t90.5 37t66.5 58.5t34.5 82h-69q-63 14 -100 53t-37 111t48 124t138 52q94 0 151.5 -60.5t57.5 -171.5q0 -78 -35 -152.5t-99.5 -134t-153.5 -95.5t-200 -38v117z" />
<glyph unicode="-" horiz-adv-x="737" d="M94 514l49 221h525l-50 -221h-524z" />
<glyph unicode="." horiz-adv-x="641" d="M61 184q0 92 59.5 149.5t145.5 57.5q43 0 81 -15.5t65.5 -43t44 -65.5t16.5 -83t-16.5 -81.5t-44 -64.5t-65.5 -43t-81 -15q-86 0 -145.5 57t-59.5 147z" />
<glyph unicode="/" horiz-adv-x="886" d="M-109 -289l963 1866h203l-965 -1866h-201z" />
<glyph unicode="0" horiz-adv-x="1372" d="M100 539q0 166 51.5 330.5t149.5 294.5t238.5 212t318.5 82q106 0 196.5 -40t154 -112.5t99 -176t35.5 -230.5q0 -166 -51 -331t-148 -295t-237.5 -211.5t-318.5 -81.5q-106 0 -196.5 39.5t-155 112.5t-100.5 176.5t-36 230.5zM455 401q0 -133 32.5 -207.5t118.5 -74.5 q61 0 113.5 46t95.5 121.5t76 173t54.5 199t32.5 199.5t11 178q0 133 -31.5 208t-119.5 75q-61 0 -113.5 -46t-95.5 -122t-75 -173t-54.5 -198.5t-33.5 -201t-11 -177.5z" />
<glyph unicode="1" horiz-adv-x="937" d="M-16 0l26 127q70 2 116 7t74.5 20.5t44 43t25.5 74.5l172 805h-258l23 115l90 14q76 12 136.5 31.5t114.5 49.5t104 72t106 97h110l-243 -1139q-4 -23 -8.5 -46t-4.5 -44q0 -31 9.5 -50t33 -29.5t64.5 -14.5t104 -6l-24 -127h-815z" />
<glyph unicode="2" horiz-adv-x="1136" d="M-86 0l20 100q250 199 410 338.5t251 241.5t126 180t35 152q0 92 -47 142t-144 50q-53 0 -99 -14t-86 -38t-75 -52.5t-63 -59.5l-62 84q41 68 96.5 129.5t123 106.5t149.5 71.5t176 26.5q193 0 291 -96t98 -258q0 -119 -64.5 -224.5t-173 -205t-252 -198.5t-302.5 -206 h278q70 0 113 5.5t77.5 24.5t68.5 59t85 110h107l-156 -469h-981z" />
<glyph unicode="3" horiz-adv-x="1122" d="M4 283q0 72 35 117.5t88 68.5h190q-12 -39 -18 -67.5t-6 -69.5t9 -83t29.5 -76t55.5 -55.5t88 -21.5q111 0 174.5 81t63.5 224q0 119 -65.5 191t-170.5 72q-25 0 -48 -2.5t-58 -8.5l-13 95q76 25 149 55.5t131 70t94 89t36 112.5q0 66 -42 105t-120 39q-80 0 -151.5 -40 t-132.5 -104l-66 84q88 129 218 214t300 85q166 0 253 -79t87 -203q0 -84 -40 -148.5t-101.5 -111t-136 -75t-142.5 -42.5q74 -6 138.5 -34t112.5 -73t76 -104.5t28 -126.5q0 -123 -49.5 -214t-132.5 -150.5t-190.5 -88t-223.5 -28.5q-109 0 -192 24.5t-140.5 65.5t-87 96 t-29.5 117z" />
<glyph unicode="4" horiz-adv-x="1323" d="M0 371l27 118l940 949h256l-191 -920h242l-33 -147h-242l-18 -90q-4 -16 -6 -37t-2 -31q0 -51 32.5 -67.5t114.5 -20.5l-22 -125h-692l26 125q53 2 88 9t58.5 22.5t37 42t21.5 69.5l22 103h-659zM221 518h469l125 592z" />
<glyph unicode="5" horiz-adv-x="1120" d="M20 272q0 63 33 113.5t92 69.5h181q-10 -35 -15.5 -59.5t-5.5 -55.5q0 -102 58.5 -168t162.5 -66q119 0 175.5 67t56.5 187q0 84 -44 140.5t-121 90.5t-179.5 49t-220.5 17l262 781h708l-90 -312h-604l-63 -180q131 -4 247.5 -29.5t202.5 -81t136 -143.5t50 -217 q0 -117 -44 -208t-120.5 -155.5t-180 -98t-222.5 -33.5q-217 0 -336 81.5t-119 210.5z" />
<glyph unicode="6" horiz-adv-x="1263" d="M96 510q0 182 82 341t226.5 284t340 208.5t424.5 114.5l29 -90q-252 -84 -434 -220t-266 -347q68 61 150.5 99t176.5 38q88 0 161 -27.5t123 -80t77.5 -125t27.5 -162.5q0 -121 -46 -224.5t-125.5 -178t-189.5 -117.5t-237 -43q-113 0 -208 34.5t-164.5 102t-108.5 166 t-39 227.5zM438 469q0 -78 12.5 -143.5t38 -112.5t64.5 -74.5t92 -27.5q55 0 101.5 32.5t79 88t50 127t17.5 151.5q0 57 -13.5 107.5t-41 87t-71.5 58t-103 21.5q-61 0 -108.5 -19.5t-86.5 -45.5q-31 -115 -31 -250z" />
<glyph unicode="7" horiz-adv-x="1083" d="M90 0l842 1124h-481q-72 0 -121 -37.5t-107 -134.5h-110l192 486h948l-18 -86l-879 -1352h-266z" />
<glyph unicode="8" horiz-adv-x="1222" d="M41 342q0 74 30.5 132t83 99t121 67t144.5 32l-23 16q-66 47 -117 128t-51 188q0 100 40 184t111 143.5t169 93t217 33.5q207 0 324.5 -90.5t117.5 -237.5q0 -72 -29.5 -126t-78.5 -93t-112.5 -63.5t-133.5 -34.5l33 -18q117 -63 180 -151.5t63 -211.5q0 -102 -43 -185 t-119.5 -142.5t-180 -92t-224.5 -32.5q-117 0 -213 25.5t-164.5 73.5t-106.5 114.5t-38 148.5zM303 360q0 -123 73 -187t197 -64q53 0 100.5 15t82.5 43t55 66.5t20 85.5q0 76 -37.5 118t-117.5 87l-189 109q-90 -49 -137 -116.5t-47 -156.5zM518 1126q0 -66 32 -108.5 t91 -79.5l141 -84q78 47 129.5 114.5t51.5 161.5q0 90 -54.5 144.5t-158.5 54.5q-98 0 -165 -54t-67 -149z" />
<glyph unicode="9" horiz-adv-x="1263" d="M125 895q0 121 46 224.5t126 178t189.5 117.5t236.5 43q113 0 208 -34.5t164.5 -102.5t108.5 -166t39 -227q0 -182 -82 -341t-226 -284t-340 -209t-425 -114l-29 90q252 84 434.5 220t266.5 347q-68 -61 -151 -99t-177 -38q-90 0 -161.5 27.5t-122 79.5t-78 125 t-27.5 163zM446 928q0 -57 13.5 -107.5t41 -87.5t72 -58.5t103.5 -21.5q61 0 108 19.5t86 46.5q31 113 31 250q0 76 -12 142.5t-38 113.5t-64.5 74.5t-92.5 27.5q-55 0 -101 -32.5t-79 -88t-50.5 -127t-17.5 -151.5z" />
<glyph unicode=":" horiz-adv-x="641" d="M61 184q0 92 59.5 149.5t145.5 57.5q43 0 81 -15.5t65.5 -43t44 -65.5t16.5 -83t-16.5 -81.5t-44 -64.5t-65.5 -43t-81 -15q-86 0 -145.5 57t-59.5 147zM190 803q0 90 59.5 148.5t145.5 58.5q43 0 81 -15.5t65.5 -43t44 -65.5t16.5 -83q0 -92 -60.5 -148.5t-146.5 -56.5 t-145.5 56.5t-59.5 148.5z" />
<glyph unicode=";" horiz-adv-x="641" d="M-23 -166q57 4 107.5 17.5t90.5 37t66.5 58.5t34.5 82h-69q-63 14 -100 53t-37 111t48 124t138 52q94 0 151.5 -60.5t57.5 -171.5q0 -78 -35 -152.5t-99.5 -134t-153.5 -95.5t-200 -38v117zM190 803q0 90 59.5 148.5t145.5 58.5q43 0 81 -15.5t65.5 -43t44 -65.5 t16.5 -83q0 -92 -60.5 -148.5t-146.5 -56.5t-145.5 56.5t-59.5 148.5z" />
<glyph unicode="&#x3c;" horiz-adv-x="925" d="M152 733l4 21l768 422l-43 -215l-430 -226l331 -221l-41 -201z" />
<glyph unicode="=" horiz-adv-x="1243" d="M143 500l35 168h932l-35 -168h-932zM211 834l37 167h934l-39 -167h-932z" />
<glyph unicode="&#x3e;" horiz-adv-x="925" d="M92 313l47 217l428 222l-336 225l45 199l592 -422l-4 -21z" />
<glyph unicode="?" horiz-adv-x="962" d="M199 1163q0 66 34.5 120t94 93t139.5 60.5t172 21.5q195 0 300 -91t105 -241q0 -74 -23.5 -130t-63 -101t-91 -80t-106.5 -63q-53 -29 -98.5 -54.5t-78 -54.5t-52 -61.5t-19.5 -73.5q0 -12 1 -22.5t3 -20.5h-86q-43 37 -69.5 80t-26.5 102q0 86 58 153.5t181 139.5 q45 25 80 49.5t59.5 54t37 65.5t12.5 83q0 61 -35 102t-102 41q-86 0 -127 -61.5t-41 -140.5q0 -29 3 -48.5t7 -40.5h-211q-27 23 -42 50.5t-15 68.5zM213 178q0 86 56.5 143.5t138.5 57.5t138 -57.5t56 -143.5q0 -82 -56.5 -139t-137.5 -57q-82 0 -138.5 57t-56.5 139z" />
<glyph unicode="@" horiz-adv-x="1873" d="M115 436q0 195 70.5 373t196.5 313t302 216t387 81q170 0 302 -50t223.5 -134t138.5 -197.5t47 -238.5q0 -111 -32 -225.5t-95.5 -207t-160.5 -150.5t-226 -58q-76 0 -125 27.5t-75 73.5t-30 105.5t11 122.5h-11q-29 -61 -64.5 -120.5t-77.5 -105.5t-91 -74.5t-107 -28.5 q-92 0 -151.5 69.5t-59.5 192.5q0 106 40 211.5t111 190.5t166 137.5t204 52.5q66 0 110.5 -24.5t69.5 -53.5l149 63h107l-68 -190l-104 -379q-8 -29 -10 -57.5t4 -51t21.5 -37t41.5 -14.5q55 0 99.5 27t77 72t55 100t37 114.5t20.5 115t6 98.5q0 106 -38 201.5t-109.5 167 t-175 112.5t-236.5 41q-176 0 -320.5 -69.5t-247 -188.5t-159.5 -276.5t-57 -331.5q0 -152 51 -264.5t140 -188.5t209 -114t259 -38q86 0 158.5 9.5t139.5 28t131.5 45t131.5 61.5l29 -66q-113 -92 -267.5 -148.5t-359.5 -56.5q-166 0 -310 48.5t-249.5 140.5t-167 225 t-61.5 303zM754 446q0 -53 16 -81.5t51 -28.5q37 0 80 40t84 108.5t77 161.5t58 198q-14 35 -31.5 53t-50.5 18q-61 0 -112.5 -46t-90 -114.5t-60 -151.5t-21.5 -157z" />
<glyph unicode="A" horiz-adv-x="1538" d="M-80 0l27 125q43 8 74.5 21.5t58.5 54.5l680 1085l-37 158h356l264 -1243q8 -39 34 -54.5t73 -21.5l-25 -125h-657l27 125q90 4 133 23.5t43 74.5q0 39 -8 74l-29 147h-539l-90 -147q-16 -25 -26.5 -51.5t-10.5 -48.5q0 -35 31 -51.5t109 -20.5l-25 -125h-463zM477 575 h432l-102 531z" />
<glyph unicode="B" horiz-adv-x="1449" d="M-29 0l27 125q51 2 87 9t58.5 22.5t36 42t23.5 69.5l188 891q4 16 6 35.5t2 30.5q0 51 -32.5 67.5t-116.5 20.5l24 125h709q229 0 345 -80t116 -234q0 -92 -37 -161.5t-98.5 -115.5t-143.5 -72.5t-170 -33.5q174 -10 274.5 -85.5t100.5 -209.5q0 -113 -48 -196.5 t-133 -139t-202 -83t-252 -27.5h-764zM545 215q0 -51 36.5 -69.5t108.5 -18.5h21q59 0 114.5 18.5t97.5 57.5t66.5 98t24.5 143q0 111 -60.5 169.5t-199.5 58.5h-117l-82 -389q-4 -27 -7 -41.5t-3 -26.5zM664 803h84q158 0 250 74.5t92 234.5q0 102 -62.5 146.5t-181.5 44.5 h-76z" />
<glyph unicode="C" horiz-adv-x="1425" d="M119 555q0 193 68.5 358.5t187.5 286.5t280.5 189.5t348.5 68.5q156 0 270.5 -42t185.5 -109l-67 -322h-166q-6 80 -18.5 142.5t-38 105.5t-67.5 66.5t-104 23.5q-119 0 -213 -72.5t-160.5 -188.5t-101.5 -258t-35 -282q0 -184 67 -291.5t206 -107.5q70 0 123 22.5 t100 69.5t90 116.5t90 166.5h174l-90 -383q-104 -61 -232.5 -98t-275.5 -37q-154 0 -270.5 44t-195 120.5t-117.5 182t-39 228.5z" />
<glyph unicode="D" horiz-adv-x="1601" d="M-29 0l27 125q51 2 87 9t58.5 22.5t36 42t23.5 69.5l188 891q4 16 6 35.5t2 30.5q0 51 -32.5 67.5t-116.5 20.5l24 125h619q166 0 294 -41t215 -117t133 -185.5t46 -246.5q0 -186 -67.5 -342t-189.5 -268.5t-290 -175t-366 -62.5h-697zM549 219q0 -51 29.5 -67.5 t97.5 -16.5h20q131 0 227.5 69.5t160 179.5t95 241t31.5 254q0 98 -19.5 176t-61.5 133t-107.5 85t-159.5 30h-92l-211 -1000q-6 -29 -8 -49.5t-2 -34.5z" />
<glyph unicode="E" horiz-adv-x="1378" d="M-29 0l27 125q51 2 87 9t58.5 22.5t36 42t23.5 69.5l188 891q4 16 6 35.5t2 30.5q0 51 -32.5 67.5t-116.5 20.5l24 125h1178l-82 -381h-127q-12 63 -25.5 110t-37 78t-62.5 46.5t-100 15.5h-248l-104 -500h186q68 0 108.5 37t75.5 129h119l-98 -467h-119q0 92 -23.5 129 t-91.5 37h-186l-78 -375q-6 -23 -8 -41t-2 -31q0 -57 38 -75.5t111 -18.5h68q57 0 104.5 14.5t93.5 48t94 87t109 131.5h142l-150 -412h-1188z" />
<glyph unicode="F" horiz-adv-x="1282" d="M-29 0l27 125q51 2 87 9t58.5 22.5t36 42t23.5 69.5l188 891q4 16 6 35.5t2 30.5q0 51 -32.5 67.5t-116.5 20.5l24 125h1158l-82 -385h-136q-10 63 -23 111t-38 80t-63.5 47.5t-100.5 15.5h-217l-110 -519h159q70 0 110 36t75 128h118l-96 -467h-121q0 94 -22.5 131 t-91.5 37h-160l-74 -358q-10 -37 -10 -74q0 -33 12 -52t39 -29.5t69 -14.5t99 -6l-23 -119h-774z" />
<glyph unicode="G" horiz-adv-x="1550" d="M119 555q0 193 69.5 357.5t190.5 286.5t286.5 190.5t356.5 68.5q145 0 264 -42t191 -109l-70 -322h-166q-10 160 -62.5 249t-174.5 89q-121 0 -216.5 -72.5t-161 -188.5t-101.5 -259.5t-36 -282.5q0 -186 69 -291.5t210 -105.5q63 0 103 10t81 33l64 260q10 41 10 63 q0 47 -35 62.5t-117 19.5l29 131h660l-25 -131q-53 -2 -86 -8t-54.5 -21.5t-33.5 -42t-21 -67.5l-71 -297q-111 -74 -245 -114.5t-282 -40.5q-154 0 -270.5 43t-196 119.5t-119.5 182t-40 230.5z" />
<glyph unicode="H" horiz-adv-x="1761" d="M-29 0l27 125q51 2 87 9t58.5 22.5t36 42t23.5 69.5l188 891q4 16 6 35.5t2 30.5q0 51 -32.5 67.5t-116.5 20.5l24 125h699l-25 -125q-53 -2 -89 -9.5t-58.5 -22.5t-35.5 -42t-22 -70l-77 -362h577l74 352q4 16 6 35.5t2 30.5q0 51 -31.5 67.5t-115.5 20.5l26 125h697 l-27 -125q-53 -2 -88 -9.5t-57.5 -22.5t-37 -42t-22.5 -70l-188 -890q-4 -16 -6 -36t-2 -30q0 -51 32.5 -68.5t116.5 -19.5l-25 -125h-698l25 125q53 2 89 9t59.5 22.5t36.5 42t21 69.5l84 404h-577l-82 -393q-4 -16 -6 -36t-2 -30q0 -51 31.5 -67.5t115.5 -20.5l-24 -125 h-699z" />
<glyph unicode="I" horiz-adv-x="833" d="M-29 0l27 125q51 2 87 9t58.5 22.5t36 42t23.5 69.5l188 891q4 16 6 35.5t2 30.5q0 51 -32.5 67.5t-116.5 20.5l24 125h699l-25 -125q-53 -2 -89 -9.5t-58.5 -22.5t-35.5 -42t-22 -70l-188 -890q-4 -16 -6 -36t-2 -30q0 -51 31.5 -67.5t115.5 -20.5l-24 -125h-699z" />
<glyph unicode="J" horiz-adv-x="1210" d="M-10 262q0 72 36.5 125t88.5 78h245q-23 -59 -34 -104.5t-11 -98.5q0 -29 6.5 -56.5t20.5 -49t36.5 -34.5t55.5 -13q78 0 125 70.5t76 205.5l164 774q4 16 6 35.5t2 30.5q0 51 -33 67.5t-117 20.5l25 125h700l-26 -125q-53 -2 -89 -9.5t-58.5 -22.5t-36 -42t-21.5 -70 l-156 -725q-53 -246 -198.5 -355t-384.5 -109q-109 0 -188 21.5t-131 59t-77.5 90t-25.5 111.5z" />
<glyph unicode="K" horiz-adv-x="1574" d="M-29 0l27 125q51 2 87 9t58.5 22.5t36 42t23.5 69.5l188 891q4 16 6 35.5t2 30.5q0 51 -32.5 67.5t-116.5 20.5l24 125h699l-25 -125q-53 -2 -89 -9.5t-58.5 -22.5t-35.5 -42t-22 -70l-188 -890q-4 -16 -6 -36t-2 -30q0 -51 31.5 -67.5t115.5 -20.5l-24 -125h-699z M676 731l520 430q31 29 51.5 48.5t20.5 41.5q0 25 -28 41.5t-91 20.5l27 125h534l-24 -125q-37 -2 -64 -6t-52.5 -14.5t-52 -29t-59.5 -46.5l-454 -381l276 -560q23 -43 42 -72.5t41.5 -47t51.5 -24.5t68 -7l-25 -125h-401q-45 33 -82 96.5t-78 149.5z" />
<glyph unicode="L" horiz-adv-x="1341" d="M-29 0l27 125q51 2 87 9t58.5 22.5t36 42t23.5 69.5l188 891q4 16 6 35.5t2 30.5q0 51 -32.5 67.5t-116.5 20.5l24 125h699l-25 -125q-53 -2 -89 -9.5t-58.5 -22.5t-35.5 -42t-22 -70l-186 -874q-10 -47 -10 -74q0 -49 34.5 -67.5t108.5 -18.5h64q53 0 94 14.5t85 51.5 t98 101.5t132 166.5h152l-174 -469h-1170z" />
<glyph unicode="M" horiz-adv-x="2029" d="M-70 0l27 125q43 2 73.5 9t54.5 20.5t40 37t29 58.5l335 917q5 26 5 46q0 44 -20 65q-30 31 -128 35l27 125h514q0 -35 2 -67t6 -68l115 -824l477 832q20 39 33.5 65.5t25.5 61.5h520l-26 -125q-51 -2 -86 -10.5t-58.5 -25.5t-38 -45t-22.5 -69l-55 -913v-16 q0 -62 28 -82q32 -24 119 -27l-24 -125h-723l24 125q49 2 90 10t71 27.5t47.5 53.5t21.5 91l45 717l-592 -1024h-127l-160 1034l-252 -706q-10 -29 -17 -59.5t-7 -53.5q0 -49 39.5 -67.5t132.5 -22.5l-25 -125h-541z" />
<glyph unicode="N" horiz-adv-x="1611" d="M-29 0l27 125q51 2 87 9t58.5 22.5t36 42t23.5 69.5l198 938q-18 33 -33.5 52.5t-33 30.5t-38 15.5t-48.5 8.5l26 125h480l479 -893l127 614q4 16 7 35.5t3 30.5q0 51 -32.5 67.5t-116.5 20.5l24 125h516l-24 -125q-53 -2 -88 -9.5t-58.5 -22.5t-38 -42t-22.5 -70 l-244 -1169h-147l-604 1059l-162 -780q-4 -16 -6 -36t-2 -30q0 -51 31.5 -68.5t115.5 -19.5l-27 -125h-514z" />
<glyph unicode="O" d="M119 563q0 170 59.5 332t168 287t259 200.5t334.5 75.5q135 0 243.5 -41t184.5 -116.5t117 -184t41 -242.5q0 -170 -59.5 -331.5t-168 -286.5t-259 -200.5t-334.5 -75.5q-135 0 -244 40.5t-184.5 116.5t-116.5 184.5t-41 241.5zM492 512q0 -88 11 -160.5t36.5 -125 t69 -81t104.5 -28.5q70 0 129 35.5t108 97t87 142.5t63.5 171t39 183.5t13.5 179.5q0 88 -11.5 160.5t-37 125t-68.5 81t-104 28.5q-70 0 -129.5 -36t-108.5 -97.5t-87 -142t-63.5 -171t-38.5 -183.5t-13 -179z" />
<glyph unicode="P" horiz-adv-x="1376" d="M-29 0l27 125q51 2 87 9t58.5 22.5t36 42t23.5 69.5l188 891q4 16 6 35.5t2 30.5q0 51 -32.5 67.5t-116.5 20.5l24 125h676q131 0 225.5 -27t156 -76t90 -116.5t28.5 -147.5q0 -129 -50 -224t-140.5 -159.5t-213 -96.5t-270.5 -32h-164l-53 -264q-10 -37 -10 -74 q0 -33 12 -52t39 -29.5t69 -14.5t99 -6l-23 -119h-774zM637 684h84q76 0 143.5 20.5t118.5 65.5t81 115.5t30 169.5q0 248 -242 248h-82z" />
<glyph unicode="Q" d="M121 563q0 170 59.5 332t168 287t259 200.5t334.5 75.5q135 0 243.5 -41t184.5 -116.5t117 -184t41 -242.5q0 -147 -44 -287.5t-126 -257t-198 -202.5t-259 -123l103 -104q31 -35 59.5 -60.5t58 -44t62.5 -28t76 -11.5l-13 -63q-94 -59 -233 -60q-111 0 -196 47.5 t-148 169.5l-70 138q-113 14 -202 61t-150.5 121t-94 173t-32.5 220zM494 512q0 -88 11 -160.5t36.5 -125t69 -81t104.5 -28.5q70 0 129 35.5t108 97t87 142.5t63.5 171t39 183.5t13.5 179.5q0 88 -11 160.5t-37 125t-69 81t-104 28.5q-70 0 -129.5 -36t-108.5 -97.5 t-87 -142t-63.5 -171t-38.5 -183.5t-13 -179z" />
<glyph unicode="R" horiz-adv-x="1527" d="M-29 0l27 125q51 2 87 9t58.5 22.5t36 42t23.5 69.5l188 891q4 16 6 35.5t2 30.5q0 51 -32.5 67.5t-116.5 20.5l24 125h697q495 0 495 -370q0 -87 -33.5 -156.5t-92 -122t-134.5 -86t-157 -48.5l176 -370q20 -47 39.5 -77t42 -48.5t53.5 -26.5t76 -8l-27 -125h-412 q-41 41 -72.5 99.5t-60.5 129.5l-145 375h-105l-67 -325q-4 -16 -6 -36t-2 -30q0 -51 31.5 -67.5t115.5 -20.5l-24 -125h-691zM641 731h72q88 0 161.5 17.5t127 57.5t82 102.5t28.5 154.5q0 117 -64.5 178.5t-201.5 61.5h-84z" />
<glyph unicode="S" horiz-adv-x="1193" d="M43 170l55 324h162q8 -180 85 -285t218 -105q100 0 166 52.5t66 158.5q0 43 -12.5 77t-42 63.5t-77 58.5t-114.5 64q-172 84 -255 186t-83 246q0 106 40 189t111.5 140.5t169 88t211.5 30.5q162 0 271.5 -45t179.5 -106l-61 -301h-142q-8 68 -24.5 127t-47 103 t-78.5 69.5t-122 25.5q-102 0 -156.5 -54t-54.5 -140q0 -84 55 -135.5t174 -110.5q88 -43 158 -87t117 -95.5t72.5 -115t25.5 -144.5q0 -121 -49 -209t-129 -145.5t-182 -86t-211 -28.5q-90 0 -168 17t-141.5 44t-110.5 60.5t-76 68.5z" />
<glyph unicode="T" horiz-adv-x="1482" d="M164 967l131 471h1311l-70 -471h-131q-16 90 -33.5 154.5t-44.5 106.5t-67.5 62.5t-104.5 20.5h-57l-215 -1014q-8 -35 -10.5 -52.5t-2.5 -27.5q0 -53 41 -70.5t127 -21.5l-24 -125h-731l26 125q102 4 151.5 31.5t65.5 111.5l222 1043h-60q-63 0 -109.5 -19.5 t-89.5 -61.5t-88 -107.5t-102 -155.5h-135z" />
<glyph unicode="U" horiz-adv-x="1581" d="M217 422q0 66 21 160l120 577q4 16 6.5 35.5t2.5 30.5q0 51 -33 67.5t-117 20.5l25 125h700l-27 -125q-53 -2 -88.5 -9.5t-58.5 -22.5t-36 -42t-21 -70l-123 -573q-8 -39 -12.5 -74t-4.5 -69q0 -133 65.5 -207t188.5 -74q74 0 135.5 17.5t111.5 61.5t87 116.5t62 183.5 l129 608q4 16 6 35.5t2 30.5q0 51 -32 67.5t-116 20.5l25 125h516l-27 -125q-102 -4 -145 -32t-59 -112l-140 -673q-29 -133 -87 -230.5t-140 -161t-184.5 -94t-218.5 -30.5q-248 0 -390.5 113.5t-142.5 328.5z" />
<glyph unicode="V" horiz-adv-x="1490" d="M197 1313l26 125h658l-25 -125q-96 -6 -139 -32t-43 -87q0 -16 2 -29.5t8 -36.5l164 -688l432 701q37 61 37 102q0 35 -31 50.5t-106 19.5l26 125h480l-27 -125q-47 -8 -80 -21.5t-59 -54.5l-789 -1247h-104l-330 1247q-10 41 -34.5 54.5t-65.5 21.5z" />
<glyph unicode="W" horiz-adv-x="2058" d="M197 1313l26 125h637l-26 -125q-31 -2 -60 -8.5t-51.5 -19.5t-36.5 -35.5t-14 -59.5q0 -27 6 -70l117 -657l301 528l-33 246q-4 37 -26.5 52.5t-63.5 23.5l26 125h621l-25 -125q-80 -4 -129 -31t-49 -102q0 -16 1 -34t3 -40l78 -633l344 639q18 35 34.5 68.5t16.5 66.5 t-28.5 47.5t-106.5 18.5l27 125h467l-27 -125q-45 -8 -80 -20.5t-61 -55.5l-711 -1247h-133l-117 811l-460 -811h-129l-238 1247q-6 39 -32.5 53.5t-67.5 22.5z" />
<glyph unicode="X" horiz-adv-x="1499" d="M-80 0l27 125q59 0 103 21.5t79 56.5l510 522l-270 510q-16 31 -42 52.5t-75 25.5l27 125h657l-25 -125q-66 0 -105.5 -15.5t-39.5 -56.5q0 -16 6 -36.5t23 -53.5l123 -236l223 236q31 29 48 54.5t17 49.5q0 29 -22.5 42.5t-87.5 15.5l26 125h508l-26 -125 q-59 0 -102.5 -21.5t-78.5 -56.5l-444 -442l307 -590q35 -66 125 -78l-25 -125h-647l25 125q59 0 94 15.5t35 58.5q0 16 -5 35.5t-22 52.5l-159 317l-301 -317q-33 -33 -50.5 -56.5t-17.5 -50.5t23.5 -40t95.5 -15l-25 -125h-512z" />
<glyph unicode="Y" horiz-adv-x="1406" d="M197 1313l26 125h639l-26 -125q-72 0 -119 -20.5t-47 -84.5q0 -41 20 -94l146 -422l329 424q29 39 49.5 68.5t20.5 58.5q0 33 -28.5 49.5t-102.5 20.5l26 125h472l-27 -125q-47 -8 -77 -21.5t-62 -54.5l-551 -700l-56 -263q-8 -31 -8 -57q0 -53 39 -70.5t127 -21.5 l-26 -125h-711l26 125q100 4 149.5 31.5t66.5 111.5l57 271l-252 698q-14 41 -36.5 54.5t-63.5 21.5z" />
<glyph unicode="Z" horiz-adv-x="1310" d="M-47 0l18 88l1002 1212h-273q-63 0 -106 -18t-79 -53t-71.5 -87t-83.5 -122h-124l90 418h1114l-21 -90l-995 -1213h276q63 0 109.5 12.5t90.5 48t95.5 99t128.5 166.5h146l-168 -461h-1149z" />
<glyph unicode="[" horiz-adv-x="712" d="M6 -289l397 1866h463l-20 -98q-61 -4 -106.5 -8.5t-76 -16.5t-49 -35.5t-26.5 -62.5l-301 -1413q-4 -18 -5 -27.5t-1 -19.5q0 -53 51 -66.5t157 -19.5l-20 -99h-463z" />
<glyph unicode="\" horiz-adv-x="886" d="M338 1577h192l175 -1866h-193z" />
<glyph unicode="]" horiz-adv-x="712" d="M-90 -289l20 99q61 4 106.5 8t76 16t49 34.5t26.5 63.5l299 1414q4 18 5.5 27t1.5 20q0 53 -51.5 66.5t-157.5 19.5l20 98h463l-395 -1866h-463z" />
<glyph unicode="^" horiz-adv-x="991" d="M186 983l426 594h226l176 -594h-209l-111 403l-278 -403h-230z" />
<glyph unicode="_" horiz-adv-x="901" d="M-98 -326l37 191h819l-39 -191h-817z" />
<glyph unicode="`" horiz-adv-x="1024" d="M315 1567h347l83 -332h-165z" />
<glyph unicode="a" horiz-adv-x="1382" d="M57 330q0 147 50.5 291.5t141.5 259t216 185.5t272 71q86 0 138.5 -29t99.5 -76l196 109h129l-79 -277l-142 -571q-16 -61 -16 -84q0 -31 29 -31t68.5 38t99.5 112l59 -54q-100 -145 -192.5 -219.5t-200.5 -74.5q-90 0 -138.5 56t-48.5 148q0 49 17.5 108.5t42.5 143.5 h-15q-39 -84 -86 -166t-103 -146.5t-124 -104t-147 -39.5q-119 0 -193 93t-74 257zM389 358q0 -70 21.5 -111.5t70.5 -41.5q51 0 111.5 57t117 155.5t106.5 230.5t83 280q-20 47 -42.5 71.5t-74.5 24.5q-84 0 -156.5 -64.5t-124.5 -163t-82 -216t-30 -222.5z" />
<glyph unicode="b" horiz-adv-x="1314" d="M80 274l252 1049l-131 86l18 64l440 86h66l-154 -633l-114 -320h14q43 90 99.5 184.5t123 171t142 126t159.5 49.5q137 0 201 -93.5t64 -252.5q0 -147 -54.5 -293t-155 -260.5t-239.5 -186t-307 -71.5q-156 0 -272.5 74.5t-151.5 219.5zM389 215q4 -57 38 -92t87 -35 q84 0 159 65.5t131 165t89 217t33 222.5q0 72 -24 112.5t-73 40.5q-51 0 -114.5 -58t-126 -154.5t-115.5 -222.5t-84 -261z" />
<glyph unicode="c" horiz-adv-x="1026" d="M57 393q0 137 51.5 271.5t142.5 239t217 169t275 64.5q59 0 111.5 -12.5t90.5 -38t59.5 -64.5t21.5 -92q0 -59 -34 -102.5t-95 -59.5h-100q2 33 2 62q-1 68 -13 118q-18 72 -84 72q-63 0 -119.5 -55.5t-99.5 -140.5t-67.5 -188.5t-24.5 -199.5q0 -117 44 -185.5 t132 -68.5q39 0 76 8.5t73 27t73.5 50t78.5 78.5l54 -53q-86 -152 -210 -232.5t-268 -80.5q-94 0 -165.5 30.5t-120.5 86t-75 131t-26 165.5z" />
<glyph unicode="d" horiz-adv-x="1394" d="M57 330q0 147 51.5 291.5t143.5 259t217 185.5t272 71q74 0 127.5 -23.5t77.5 -54.5l62 264l-131 86l18 64l432 86h68l-301 -1266q-16 -61 -17 -84q0 -31 29 -31t68.5 38t99.5 112l59 -54q-100 -145 -192 -219.5t-199 -74.5q-92 0 -140 56t-48 144q0 53 14 112.5 t37 145.5h-14q-39 -84 -86.5 -166t-105.5 -147.5t-127 -105t-148 -39.5q-119 0 -193 93t-74 257zM389 358q0 -70 22.5 -111.5t71.5 -41.5q53 0 116 58.5t123 159.5t112.5 237.5t83.5 291.5q-23 43 -58 59.5t-69 16.5q-86 0 -160 -65.5t-127 -165t-84 -217t-31 -222.5z" />
<glyph unicode="e" horiz-adv-x="1060" d="M57 401q0 137 53.5 270.5t147.5 236t221 166t273 63.5q72 0 127 -20.5t92 -54.5t55 -78t18 -93q0 -84 -48 -149.5t-136 -116t-211 -87t-272 -65.5v-35q0 -123 55 -196.5t150 -73.5q92 0 165.5 43t153.5 135l55 -51q-100 -166 -236 -240.5t-271 -74.5q-96 0 -169 32.5 t-122 89t-75 133t-26 166.5zM385 549q205 59 299 143t94 211q0 45 -18.5 79t-61.5 34q-55 0 -106 -40t-93 -105.5t-72 -149.5t-42 -172z" />
<glyph unicode="f" horiz-adv-x="770" d="M-358 -266q0 72 46 108.5t105 44.5h51q4 -94 27 -157.5t70 -63.5q25 0 42 17.5t33.5 59.5t31.5 114.5t36 183.5l176 946h-158l23 100l166 41q27 104 69.5 187.5t104 140.5t145.5 88t195 31q57 0 109.5 -10.5t91 -32t61.5 -54t23 -79.5q0 -49 -28 -86t-81 -53h-111 q3 34 3 66v16q-1 38 -10 69t-27.5 48.5t-49.5 17.5q-63 0 -106 -84t-57 -275h254l-25 -131h-244l-110 -520q-53 -254 -118 -425t-140.5 -274.5t-163.5 -147.5t-189 -44q-111 0 -178 42t-67 116z" />
<glyph unicode="g" horiz-adv-x="1153" d="M-127 -154q0 51 27.5 89t70.5 63t96.5 39t106.5 18q-37 35 -56.5 69t-19.5 87q0 86 60.5 139t158.5 92q-92 37 -143 112t-51 183q0 92 44 166t118.5 126t174 80t210.5 28q113 0 200 -47l396 36l-45 -182h-86l-140 41q55 -78 56 -162q0 -98 -44 -175t-120 -130 t-174.5 -80.5t-208.5 -27.5q-72 0 -123 14q-72 -29 -72 -74q0 -41 66 -57l344 -74q137 -29 219 -89t82 -183q0 -82 -44 -150.5t-124 -119t-191.5 -78t-244.5 -27.5q-100 0 -197.5 18.5t-174.5 53t-124 86t-47 116.5zM102 -127q0 -43 26 -78t69 -59.5t101 -37.5t126 -13 q66 0 123 10t99 30.5t65.5 48t23.5 62.5q0 39 -30.5 56.5t-88.5 31.5l-395 88q-119 -43 -119 -139zM430 672q0 -66 22.5 -115t77.5 -49q39 0 77 26.5t68 73.5t48 115t18 149q0 68 -22.5 117t-75.5 49q-39 0 -77 -26.5t-68.5 -74.5t-49 -115.5t-18.5 -149.5z" />
<glyph unicode="h" horiz-adv-x="1374" d="M27 0l315 1323l-131 86l18 64l441 86h65l-153 -641l-101 -310h15q70 121 142.5 219.5t146 167t147.5 105.5t147 37q84 0 126 -47.5t42 -124.5q0 -20 -4 -45t-8 -46l-156 -581q-8 -29 -13 -50.5t-5 -33.5q0 -31 29 -31t69.5 38t100.5 112l57 -54q-100 -145 -192.5 -219.5 t-198.5 -74.5q-92 0 -146.5 51t-54.5 131q0 41 6 82t23 94l137 473q10 45 10 68q0 39 -37 39q-33 0 -91 -51.5t-122.5 -138.5t-124 -203.5t-92.5 -245.5l-72 -279h-335z" />
<glyph unicode="i" horiz-adv-x="743" d="M86 162q0 41 7 82t20 94l141 567l-115 90l19 64l422 78h67l-213 -844q-16 -61 -16 -84q0 -31 28 -31q29 0 70 38t100 112l60 -54q-100 -145 -192.5 -219.5t-200.5 -74.5q-90 0 -143.5 51t-53.5 131zM342 1393q0 78 53.5 135t145.5 57q86 0 135 -50t49 -118 q0 -39 -14.5 -74.5t-40 -62.5t-63.5 -42t-83 -15q-86 0 -134 51t-48 119z" />
<glyph unicode="j" horiz-adv-x="679" d="M-369 -266q0 72 46.5 108.5t105.5 44.5h51q4 -94 23.5 -156.5t66.5 -62.5t74 76t63 240l207 921l-114 90l18 64l422 78h68l-230 -928q-76 -305 -212 -469t-343 -164q-111 0 -178.5 42t-67.5 116zM356 1393q0 78 53.5 135t145.5 57q86 0 134 -50t48 -118q0 -78 -52 -136 t-146 -58q-84 0 -133.5 51t-49.5 119z" />
<glyph unicode="k" horiz-adv-x="1298" d="M27 0l317 1323l-131 86l18 64l441 86h65l-375 -1559h-335zM532 561l328 389q43 51 79 87t66.5 58.5t59.5 32t61 9.5q78 0 117 -47.5t39 -104.5q0 -70 -38 -114t-105 -66h-43q0 47 -16.5 80t-59.5 33q-35 0 -71 -24t-89 -91l-53 -64l149 -385q23 -59 44.5 -97t54.5 -38 t63.5 23.5t79.5 85.5l53 -54q-98 -154 -178 -224t-178 -70q-86 0 -136 54t-87 156z" />
<glyph unicode="l" horiz-adv-x="714" d="M68 162q0 41 6 82t20 94l240 985l-131 86l18 64l441 86h65l-313 -1266q-14 -55 -15 -84q0 -31 29 -31t69 38t99 112l59 -54q-100 -145 -192 -219.5t-201 -74.5q-90 0 -142 51t-52 131z" />
<glyph unicode="m" horiz-adv-x="2015" d="M39 0l225 905l-114 90l18 64l420 84h69l-57 -225l-108 -308h14q70 121 141.5 218.5t143 166t143.5 105.5t145 37q84 0 121 -49.5t37 -120.5q0 -53 -25.5 -140.5t-70.5 -216.5h14q137 242 278.5 384.5t286.5 142.5q84 0 126 -47.5t42 -124.5q0 -20 -4 -46t-8 -45 l-156 -581q-8 -29 -13 -50.5t-5 -33.5q0 -31 29 -31t69.5 38t100.5 112l57 -54q-100 -145 -192.5 -219.5t-198.5 -74.5q-92 0 -146.5 51t-54.5 131q0 39 6 81t23 95l135 467q10 45 10 67q0 37 -37 37q-33 0 -89 -49t-116.5 -134t-117 -197.5t-86.5 -239.5l-72 -289h-334 l201 805q10 45 10 67q0 37 -37 37q-31 0 -88 -49t-120.5 -134t-121 -197.5t-88.5 -239.5l-71 -289h-334z" />
<glyph unicode="n" horiz-adv-x="1384" d="M39 0l225 905l-114 90l18 64l420 84h69l-59 -230l-104 -305h14q70 121 142.5 219.5t146 167t147.5 105.5t146 37q86 0 128 -47.5t42 -124.5q0 -20 -4.5 -45t-8.5 -46l-157 -581q-8 -29 -13.5 -50.5t-5.5 -33.5q0 -31 29 -31t69.5 38t100.5 112l59 -54 q-102 -145 -194.5 -219.5t-198.5 -74.5q-92 0 -145.5 51t-53.5 131q0 41 6.5 82t22.5 94l135 473q10 45 10 68q0 39 -34 39q-33 0 -91.5 -51.5t-123 -138.5t-125 -203.5t-93.5 -245.5l-71 -279h-334z" />
<glyph unicode="o" horiz-adv-x="1210" d="M61 438q0 141 47.5 267t133.5 222.5t205.5 153t267.5 56.5q94 0 174 -32t138 -90.5t90 -144.5t32 -192q0 -141 -47 -267t-133 -222.5t-206 -152.5t-267 -56q-96 0 -175 31.5t-137.5 90t-90.5 143.5t-32 193zM389 338q0 -106 27 -173t88 -67q74 0 133 71t100 175.5 t62.5 222t21.5 211.5q0 106 -26.5 173t-89.5 67q-74 0 -132.5 -70.5t-99.5 -175t-62.5 -222.5t-21.5 -212z" />
<glyph unicode="p" horiz-adv-x="1333" d="M-193 -403l29 120q35 4 61.5 10.5t45 17.5t32 32.5t21.5 56.5l258 1073l-117 88l19 64l417 84h68l-53 -232l-115 -313h14q43 92 100.5 187.5t124 173t142.5 128t160 50.5q135 0 199.5 -93.5t64.5 -252.5q0 -147 -53.5 -293t-147.5 -260.5t-220 -186t-273 -71.5 q-74 0 -124 30.5t-73 67.5l-51 -223q-4 -20 -7 -36t-3 -28q2 -43 32.5 -55t83.5 -19l-30 -120h-605zM414 199q16 -47 41.5 -79t79.5 -32q84 0 157.5 65.5t129 164t88 216t32.5 222.5q0 72 -23.5 113.5t-70.5 41.5q-49 0 -111.5 -57t-124 -154.5t-115 -226.5t-83.5 -274z" />
<glyph unicode="q" horiz-adv-x="1337" d="M57 330q0 147 52.5 291.5t144.5 259t217 185.5t272 71q84 0 140.5 -29t99.5 -76l195 109h129l-80 -277l-238 -1009q-4 -20 -7 -36t-3 -28q2 -43 32.5 -55t84.5 -19l-29 -120h-604l29 120q35 4 61.5 10.5t44.5 17.5t31.5 32.5t21.5 56.5l80 332l78 272h-14 q-39 -84 -87.5 -166t-105.5 -147.5t-125.5 -105t-148.5 -39.5q-121 0 -196 93t-75 257zM389 358q0 -70 23.5 -111.5t72.5 -41.5q53 0 115 58.5t119 158.5t106 231t80 277q-14 45 -40.5 69.5t-73.5 24.5q-86 0 -160 -64.5t-127 -163t-84 -216t-31 -222.5z" />
<glyph unicode="r" horiz-adv-x="1046" d="M45 0l225 905l-112 90l18 64l416 84h67l-81 -312l-127 -362h14q96 186 163.5 314t123 206t103.5 113t108 35q76 0 109.5 -46.5t33.5 -111.5q0 -43 -15.5 -82t-40 -69.5t-55 -54t-59.5 -38.5h-43q0 29 -11.5 52.5t-45.5 23.5q-53 0 -112.5 -56.5t-120 -161t-118 -255 t-104.5 -338.5h-336z" />
<glyph unicode="s" horiz-adv-x="960" d="M-2 213q0 59 35 98t86 56h53q25 -129 87 -204t171 -75q59 0 92 32t33 85q0 37 -29.5 72.5t-74.5 74.5t-98.5 81t-98.5 90t-74.5 103.5t-29.5 118.5q0 86 32.5 159t92 124t141.5 80t180 29q63 0 118.5 -14.5t96.5 -42t64.5 -66.5t23.5 -86q0 -43 -31.5 -75t-76.5 -46h-60 q-20 98 -73.5 157.5t-129.5 59.5q-63 0 -94 -27.5t-31 -74.5q0 -35 32 -72t79 -77t101.5 -85t101.5 -94t78.5 -105.5t31.5 -117.5q0 -90 -34.5 -163t-96 -123t-143.5 -77.5t-174 -27.5q-84 0 -153.5 18t-120 49t-79 74t-28.5 92z" />
<glyph unicode="t" horiz-adv-x="866" d="M92 193q0 41 5 74.5t16 80.5l155 639h-149l24 92q117 25 234 103t209 188h110l-61 -252h244l-33 -131h-244l-156 -647q-18 -74 -18 -107q0 -57 47 -57q49 0 108.5 48t151.5 147l60 -54q-117 -160 -236 -248.5t-254 -88.5q-55 0 -95 17t-65.5 47t-39 68t-13.5 81z" />
<glyph unicode="u" horiz-adv-x="1402" d="M88 174q0 53 16 125l148 606l-113 90l19 64l420 78h67l-205 -813q-10 -45 -10 -72q0 -25 7 -37t30 -12q41 0 102.5 57t124 150.5t118.5 211t87 236.5l62 240l337 18l-204 -823q-8 -29 -13.5 -50.5t-5.5 -33.5q0 -31 29 -31t69.5 38t100.5 112l59 -54 q-100 -145 -190 -219.5t-199 -74.5q-92 0 -138 56t-46 148q0 47 19.5 125t54.5 191h-15q-61 -115 -127.5 -211t-134.5 -165t-138.5 -106.5t-139.5 -37.5q-98 0 -144.5 53t-46.5 141z" />
<glyph unicode="v" horiz-adv-x="1134" d="M41 995l18 64l367 78h63l62 -838l176 205q66 74 111 153.5t45 151.5q0 74 -49.5 115t-128.5 41l2 36q33 53 90 94.5t143 41.5q96 0 139 -59.5t43 -137.5q0 -57 -22.5 -116.5t-62.5 -120t-92 -122t-109 -122.5l-443 -471h-127l-94 930z" />
<glyph unicode="w" horiz-adv-x="1681" d="M41 995l18 64l359 78h63l70 -809l258 331l-25 259l-131 77l19 64l342 78h63l62 -836l170 209q61 72 89.5 148.5t28.5 148.5q0 76 -49 117t-129 41l2 36q33 53 91.5 94.5t142.5 41.5q96 0 139 -61.5t43 -141.5q0 -57 -19.5 -115.5t-53 -117t-79 -118t-96.5 -116.5 l-420 -479h-122l-54 534l-430 -534h-119l-102 930z" />
<glyph unicode="x" horiz-adv-x="1202" d="M-72 127q0 74 39 120t105 68h45q0 -57 15 -89.5t52 -32.5q39 0 68 27.5t70 92.5l116 176l-155 437l-136 69l21 64l344 78h61l119 -371l101 164q66 109 129 158t137 49q80 0 122 -45t42 -105q0 -72 -41 -116t-105 -66h-45q0 55 -15.5 87t-49.5 32q-18 0 -35 -6.5 t-32 -19.5t-32.5 -36.5t-40.5 -58.5l-98 -152l96 -301q20 -66 38 -99.5t52 -33.5q35 0 71 26.5t89 86.5l55 -54q-57 -80 -105 -137t-93 -92t-89 -51t-91 -16q-82 0 -126 57t-77 149l-70 195l-123 -195q-61 -98 -125.5 -152t-150.5 -54q-72 0 -112 44t-40 103z" />
<glyph unicode="y" horiz-adv-x="1142" d="M-215 -242q0 53 32.5 96.5t90.5 61.5h59q0 -92 34 -143.5t120 -51.5q61 0 126.5 35t149.5 121l-227 1041l-129 77l18 64l357 78h63l170 -951l25 33q66 92 107.5 176t65 156t33 130t9.5 103q0 92 -48 136.5t-130 44.5l2 36q33 53 90 94.5t143 41.5q49 0 84 -17.5 t57.5 -47.5t32.5 -66.5t10 -75.5q0 -86 -29.5 -178.5t-83.5 -191.5t-127 -205.5t-159 -219.5q-121 -160 -219 -267.5t-183 -172t-162 -91t-151 -26.5q-45 0 -87 10.5t-73.5 33t-51 56t-19.5 80.5z" />
<glyph unicode="z" horiz-adv-x="1089" d="M-53 66q0 27 12 53t45 55l748 668h-387q-49 0 -73 -14.5t-50 -55.5l-56 -88l-67 18l176 484h65q4 -39 14.5 -57.5t33.5 -18.5h725v-63l-758 -691l188 -57q29 -10 68 -18.5t82 -8.5q39 0 69.5 5.5t59 21.5t57.5 50t66 89l65 -20q-43 -115 -86 -199t-90 -139t-104.5 -82 t-126.5 -27q-76 0 -139.5 21.5t-137.5 62.5l-192 105l-101 -166q-106 0 -106 72z" />
<glyph unicode="{" horiz-adv-x="784" d="M127 612l14 66q76 16 134.5 61t80.5 144l90 432q27 123 145 192.5t347 69.5l-18 -78q-37 -4 -75 -17.5t-70 -37t-55.5 -59t-33.5 -87.5l-92 -424q-12 -53 -29.5 -88.5t-44 -62.5t-65.5 -45.5t-95 -32.5q76 -25 111 -56.5t35 -96.5q0 -20 -8.5 -62.5t-19.5 -98 t-24.5 -115.5t-24.5 -114.5t-19.5 -97.5t-8.5 -63q0 -74 47.5 -108t108.5 -42l-16 -80q-199 0 -293 55.5t-94 153.5q0 35 16 113t36.5 163t37 161.5t16.5 111.5q0 66 -37 98.5t-96 44.5z" />
<glyph unicode="|" horiz-adv-x="600" d="M41 -289l397 1866h191l-398 -1866h-190z" />
<glyph unicode="}" horiz-adv-x="784" d="M-92 -289l18 78q76 8 143.5 53t90.5 148l90 424q12 51 29.5 88t44 63.5t65.5 44t94 33.5q-76 25 -110.5 56.5t-34.5 97.5q0 20 8 62t19.5 97.5t26 116t25.5 114.5t19 97t8 64q0 74 -47 107.5t-108 41.5l16 80q199 0 293 -55.5t94 -153.5q0 -35 -16.5 -112.5t-37 -162.5 t-36.5 -162t-16 -112q0 -66 35.5 -98.5t95.5 -44.5l-12 -66q-78 -16 -135.5 -61t-80.5 -143l-90 -433q-27 -123 -145.5 -192.5t-345.5 -69.5z" />
<glyph unicode="~" horiz-adv-x="1163" d="M145 551q55 197 140.5 273.5t193.5 76.5q43 0 87 -19.5t87 -44t83 -44t75 -19.5q96 0 174 123l117 -33q-55 -197 -141.5 -274.5t-192.5 -77.5q-43 0 -87 19.5t-87 44t-83 44t-75 19.5q-98 0 -174 -123z" />
<glyph unicode="&#xa1;" horiz-adv-x="667" d="M-45 -320l356 963h162l-125 -963h-393zM243 940q0 82 56.5 139t138.5 57q41 0 75.5 -15t60.5 -42t41 -62.5t15 -76.5q0 -43 -15 -79t-41 -63.5t-60.5 -43t-75.5 -15.5q-82 0 -138.5 57.5t-56.5 143.5z" />
<glyph unicode="&#xa2;" horiz-adv-x="1124" d="M80 410q0 129 45 253.5t128 227t199.5 172.5t262.5 86l51 235h113l-50 -229q61 -4 112.5 -18.5t90.5 -40t60.5 -63.5t21.5 -89q0 -59 -35 -102t-96 -62h-94q10 109 -10.5 174.5t-73.5 83.5l-187 -876h3q94 0 171.5 49t161.5 143l62 -55q-78 -137 -190.5 -218t-243.5 -97 l-47 -222h-113l45 220q-92 6 -164 39.5t-121 90t-75.5 132t-26.5 166.5zM399 461q0 -94 29 -165t84 -106l180 846q-70 -20 -124 -79.5t-92 -140.5t-57.5 -174t-19.5 -181z" />
<glyph unicode="&#xa3;" horiz-adv-x="1466" d="M-33 195q0 61 21.5 109t58.5 83t86 53.5t105 18.5q49 0 84.5 -8.5t72.5 -20.5l74 256h-213l25 113h221l35 116q70 260 218 401.5t402 141.5q74 0 135.5 -14t107.5 -42t71.5 -69t25.5 -94q0 -78 -41 -124t-102 -64h-187q23 43 35 83t12 95q0 41 -18 77.5t-74 36.5 q-59 0 -96 -57t-70 -153l-112 -334h301l-27 -113h-313l-109 -324q92 -39 179.5 -72.5t195.5 -33.5q63 0 99 27.5t36 87.5q0 53 -57 94l47 55q29 -8 61.5 -24.5t60.5 -43t45 -65.5t17 -90q0 -80 -27.5 -139.5t-75.5 -99.5t-112.5 -59t-138.5 -19q-78 0 -145.5 19t-124 49 t-101.5 62.5t-77 61.5q-66 -88 -162.5 -140t-212.5 -52q-117 0 -176.5 63t-59.5 152zM109 209q0 -41 24.5 -73t71.5 -32q53 0 91 48.5t62 136.5q-29 16 -60.5 26.5t-66.5 10.5q-53 0 -87.5 -31t-34.5 -86z" />
<glyph unicode="&#xa4;" horiz-adv-x="1181" d="M109 356l161 148q-51 86 -51 194q0 80 26.5 152t73.5 129l-126 143l92 82l125 -141q51 35 111.5 53.5t129.5 18.5q72 0 130.5 -20.5t105.5 -57.5l168 149l78 -88l-166 -147q59 -90 59 -207q0 -84 -27.5 -156.5t-76.5 -130.5l129 -139l-95 -82l-125 141q-104 -69 -237 -69 q-76 0 -138.5 21.5t-109.5 62.5l-162 -144zM383 711q0 -104 62.5 -169t160.5 -65q53 0 100.5 20.5t82 57.5t55 87t20.5 110q0 104 -61.5 168.5t-159.5 64.5q-53 0 -101 -20.5t-83 -57.5t-55.5 -87t-20.5 -109z" />
<glyph unicode="&#xa5;" horiz-adv-x="1386" d="M135 422l25 110h352l2 7l-49 133h-275l25 110h209l-164 455q-16 41 -38.5 54.5t-63.5 21.5l26 125h656l-27 -125q-72 0 -119 -20.5t-49 -84.5q0 -23 5 -44t16 -50l137 -422l317 424q31 39 51.5 68.5t20.5 58.5q0 33 -31 49.5t-102 20.5l26 125h469l-24 -125 q-47 -8 -77 -21.5t-60 -54.5l-353 -455h224l-25 -110h-283l-104 -135l-2 -5h358l-24 -110h-359l-30 -148q-6 -35 -7 -57q0 -53 39 -70.5t127 -21.5l-26 -125h-715l27 125q100 4 149 31.5t68 111.5l32 154h-354z" />
<glyph unicode="&#xa6;" horiz-adv-x="600" d="M41 -289l164 770h190l-164 -770h-190zM274 807l164 770h191l-164 -770h-191z" />
<glyph unicode="&#xa7;" horiz-adv-x="1060" d="M-20 -205q0 35 12 61.5t32.5 45t44 31t46.5 20.5h166q-12 -23 -16.5 -48.5t-4.5 -45.5q0 -61 23.5 -108.5t83.5 -47.5q59 0 92 42t33 130q0 63 -21.5 125.5t-53.5 127.5t-69 133.5t-68.5 144t-53 161.5t-21.5 187q0 127 42 253t125 226t202.5 162.5t277.5 62.5 q129 0 202.5 -55t73.5 -154q0 -35 -12 -61.5t-31.5 -45t-44 -30.5t-47.5 -20h-166q12 23 16.5 48t4.5 46q0 61 -23.5 108t-83.5 47q-59 0 -91 -42t-32 -130q0 -63 22 -125.5t53.5 -127t68.5 -133t68.5 -144.5t53 -162t21.5 -186q0 -127 -43 -253t-125 -226.5t-203.5 -163 t-277.5 -62.5q-129 0 -202.5 55.5t-73.5 153.5zM338 754q0 -127 44 -239t96 -217t96 -205.5t44 -201.5q0 -20 -5 -43.5t-15 -44.5q78 82 126 210t48 278q0 125 -44 237.5t-97 218t-97.5 205t-44.5 201.5q0 20 5.5 44t15.5 44q-78 -82 -125 -210t-47 -277z" />
<glyph unicode="&#xa8;" horiz-adv-x="1024" d="M123 1399q0 72 48 126t130 54q78 0 121 -47t43 -113q0 -72 -47 -126t-129 -54q-78 0 -122 48t-44 112zM559 1399q0 72 47 126t129 54q78 0 122 -47t44 -113q0 -72 -47 -126t-129 -54q-78 0 -122 48t-44 112z" />
<glyph unicode="&#xa9;" horiz-adv-x="1630" d="M127 666q0 166 60.5 310t165 251.5t246.5 169t308 61.5q152 0 278 -52t217 -144.5t142 -218t51 -271.5q0 -166 -60 -310.5t-164.5 -252t-247 -168.5t-308.5 -61q-152 0 -277.5 52t-217 144t-142.5 218t-51 272zM217 666q0 -129 43 -239t122 -191.5t189.5 -128 t243.5 -46.5q147 0 273 55.5t219.5 152t145.5 225.5t52 278q0 129 -43 238.5t-121.5 191.5t-189.5 128t-244 46q-147 0 -273 -55t-219 -151.5t-145.5 -225.5t-52.5 -278zM446 629q0 113 41 209t112 166.5t166 110.5t204 40q92 0 158.5 -24.5t109.5 -65.5l-41 -191h-117 q-6 92 -26.5 139.5t-87.5 47.5q-61 0 -110.5 -40t-84.5 -104.5t-54.5 -146.5t-19.5 -164q0 -98 33 -157.5t100 -59.5q39 0 68 11.5t52.5 37t45 65.5t49.5 95h121l-53 -229q-59 -37 -135 -58.5t-162 -21.5q-90 0 -159.5 25.5t-115.5 71.5t-70 108.5t-24 134.5z" />
<glyph unicode="&#xaa;" horiz-adv-x="1058" d="M162 899q0 106 37 210.5t103.5 187.5t156.5 134.5t196 51.5q63 0 101.5 -21.5t70.5 -54.5l164 78h94l-57 -199l-102 -405q-10 -47 -11 -60q0 -23 21 -22q37 0 119 106l51 -45q-74 -104 -147.5 -159.5t-159.5 -55.5q-61 0 -102.5 42t-41.5 108q0 35 14.5 77.5t30.5 104.5 h-10q-29 -61 -62.5 -120.5t-74.5 -107t-90 -76t-107 -28.5q-86 0 -140 67.5t-54 186.5zM424 932q0 -49 13 -79t48 -30q37 0 78 40t80 107.5t73 159t56 195.5q-12 33 -28.5 51.5t-51.5 18.5q-51 0 -99 -45t-86 -113t-60.5 -149.5t-22.5 -155.5z" />
<glyph unicode="&#xab;" horiz-adv-x="1124" d="M70 555l4 20l448 406h166l-326 -416l132 -415h-146zM514 555l4 20l447 406h165l-325 -416l131 -415h-145z" />
<glyph unicode="&#xad;" horiz-adv-x="737" d="M94 514l49 221h525l-50 -221h-524z" />
<glyph unicode="&#xae;" horiz-adv-x="1136" d="M207 961q0 104 38 195t104.5 157.5t157.5 105.5t195 39q96 0 177.5 -33.5t139.5 -92t90 -137.5t32 -171q0 -104 -38 -195.5t-104.5 -158t-158 -105.5t-195.5 -39q-96 0 -177 33t-139.5 91.5t-90 138t-31.5 172.5zM279 961q0 -80 26.5 -146.5t73.5 -116t114.5 -77 t151.5 -27.5q92 0 170 32.5t133.5 91t87 136.5t31.5 170q0 80 -25.5 146.5t-73.5 115.5t-116 77t-150 28q-92 0 -169.5 -33t-134 -91.5t-88 -136t-31.5 -169.5zM399 760l11 45q37 0 48 11t17 40l62 289l4 16t2 13q0 25 -47 26l8 45h231q94 0 133 -39t39 -92q0 -35 -14 -59.5 t-34.5 -43t-46.5 -29.5t-46 -17l65 -115q20 -41 62 -45l-10 -45h-121q-33 18 -51 67l-60 127h-28l-21 -94q-4 -16 -4 -29q0 -16 9 -21t36 -5l-12 -45h-232zM635 1006h18q45 0 83 25.5t38 84.5q0 74 -84 74h-16z" />
<glyph unicode="&#xaf;" horiz-adv-x="1024" d="M184 1280l43 190h613l-43 -190h-613z" />
<glyph unicode="&#xb0;" horiz-adv-x="755" d="M154 1077q0 80 27.5 148.5t74.5 121t112.5 82t143.5 29.5q61 0 112.5 -20.5t87.5 -55t56 -85t20 -107.5q0 -80 -27.5 -148.5t-74.5 -121t-113.5 -82t-142.5 -29.5q-61 0 -112.5 20.5t-87 55.5t-56 84t-20.5 108zM303 1087q0 -63 33.5 -108t103.5 -45q45 0 81 19.5 t62.5 52t41 77.5t14.5 97q0 63 -34 108t-101 45q-45 0 -82 -19.5t-63.5 -52t-41 -77.5t-14.5 -97z" />
<glyph unicode="&#xb1;" horiz-adv-x="1218" d="M86 250l39 176h911l-39 -176h-911zM205 811l39 174h366l60 279h176l-60 -279h371l-37 -174h-370l-60 -283h-176l59 283h-368z" />
<glyph unicode="&#xb2;" horiz-adv-x="911" d="M96 588l17 88q174 131 277.5 216t158.5 144.5t71.5 101.5t16.5 85q0 59 -31 91t-92 32q-66 0 -122 -36t-99 -83l-49 65q29 47 68.5 91t90 77t114 52.5t136.5 19.5q57 0 105.5 -14.5t84.5 -43t56.5 -71.5t20.5 -100q0 -80 -40 -148t-107.5 -128t-159 -117.5t-191.5 -114.5 h217q33 0 55.5 3t42 15t41 33.5t53.5 58.5h78l-98 -317h-715z" />
<glyph unicode="&#xb3;" horiz-adv-x="878" d="M121 758q0 53 27.5 82.5t62.5 44.5h162q-14 -29 -19.5 -57.5t-5.5 -51.5q0 -53 29 -86t78 -33q61 0 102 52.5t41 142.5q0 78 -36 116t-95 38q-10 0 -24.5 -1t-28.5 -4l-11 60q115 41 170.5 85t55.5 109q0 35 -24.5 61.5t-74.5 26.5q-66 0 -113.5 -30.5t-86.5 -69.5 l-58 49q53 100 154.5 166t222.5 66q113 0 179.5 -47t66.5 -144q0 -98 -72.5 -156.5t-181.5 -74.5q96 -14 159.5 -72.5t63.5 -144.5t-36.5 -146.5t-98 -97.5t-140.5 -54.5t-161 -17.5q-68 0 -124 14.5t-97 40t-63.5 60.5t-22.5 74z" />
<glyph unicode="&#xb4;" horiz-adv-x="1024" d="M223 1235l199 332h379l-400 -332h-178z" />
<glyph unicode="&#xb6;" horiz-adv-x="1349" d="M178 836q0 123 49 232.5t139.5 191t216.5 130t279 48.5h631l-29 -129q-59 0 -100 -6.5t-68.5 -22.5t-44 -45t-26.5 -76l-332 -1562h-143l366 1728h-135l-367 -1728h-143l172 813q-113 0 -199 31.5t-145 88t-90 135t-31 171.5zM504 825q0 -59 9 -113.5t28.5 -96.5 t50.5 -68.5t74 -30.5l174 815q-74 -8 -135.5 -56t-106.5 -120t-69.5 -159t-24.5 -171z" />
<glyph unicode="&#xb7;" horiz-adv-x="620" d="M119 623q0 92 59.5 149t145.5 57q43 0 80.5 -15t65.5 -43t44 -65.5t16 -82.5t-16 -82t-44 -64.5t-65.5 -43t-80.5 -15.5q-86 0 -145.5 57.5t-59.5 147.5z" />
<glyph unicode="&#xb8;" horiz-adv-x="1024" d="M244 -379q113 0 182.5 20.5t69.5 63.5q0 41 -43 56.5t-119 19.5l119 235h94l-55 -108q182 -16 182 -154q0 -57 -35 -99t-92.5 -70.5t-131 -43t-151.5 -14.5z" />
<glyph unicode="&#xb9;" horiz-adv-x="790" d="M129 588l21 98q55 2 87.5 6t51 13.5t27 27t14.5 47.5l100 467h-164l19 94l61 11q61 12 106.5 27.5t82 37t69.5 50t68 65.5h94l-158 -746q-6 -25 -6 -43q0 -35 32 -44t111 -13l-20 -98h-596z" />
<glyph unicode="&#xba;" horiz-adv-x="892" d="M143 979q0 100 34 191.5t96.5 160t152.5 108.5t203 40q68 0 127 -23.5t103 -66.5t68.5 -104.5t24.5 -139.5q0 -102 -33.5 -192.5t-96 -160t-152.5 -109.5t-203 -40q-70 0 -129 23.5t-102 66.5t-68 105.5t-25 140.5zM397 901q0 -74 18.5 -118t63.5 -44q51 0 92 49.5 t69 123t42 157.5t14 152q0 76 -17 119.5t-63 43.5q-53 0 -94 -50t-68.5 -123.5t-42 -157.5t-14.5 -152z" />
<glyph unicode="&#xbb;" horiz-adv-x="1124" d="M-14 150l325 415l-131 416h146l278 -406l-4 -20l-446 -405h-168zM428 150l326 415l-129 416h143l279 -406l-5 -20l-448 -405h-166z" />
<glyph unicode="&#xbc;" horiz-adv-x="1990" d="M129 588l21 98q55 2 87.5 6t51 13.5t27 27t14.5 47.5l100 467h-164l19 94l61 11q61 12 106.5 27.5t82 37t69.5 50t68 65.5h94l-158 -746q-6 -25 -6 -43q0 -35 32 -44t111 -13l-20 -98h-596zM395 0l1245 1518h150l-1245 -1518h-150zM930 96l22 92l598 609h242l-123 -588 h174l-24 -113h-177l-51 -241h-274l51 241h-438zM1098 209h295l80 377z" />
<glyph unicode="&#xbd;" horiz-adv-x="1992" d="M129 588l21 98q55 2 87.5 6t51 13.5t27 27t14.5 47.5l100 467h-164l19 94l61 11q61 12 106.5 27.5t82 37t69.5 50t68 65.5h94l-158 -746q-6 -25 -6 -43q0 -35 32 -44t111 -13l-20 -98h-596zM395 0l1245 1518h150l-1245 -1518h-150zM1038 -145l17 88q174 131 277.5 216 t158.5 144t71.5 101t16.5 85q0 121 -123 121q-66 0 -123 -35.5t-98 -82.5l-51 67q29 47 68.5 91t91 77t115 52.5t136.5 19.5q115 0 191 -57.5t76 -172.5q0 -80 -40 -147.5t-107.5 -128t-159 -117.5t-193.5 -115h219q33 0 54.5 3.5t42 15.5t42 33.5t52.5 58.5h79l-98 -317 h-715z" />
<glyph unicode="&#xbe;" horiz-adv-x="2009" d="M121 758q0 53 27.5 82.5t62.5 44.5h162q-14 -29 -19.5 -57.5t-5.5 -51.5q0 -53 29 -86t78 -33q61 0 102 52.5t41 142.5q0 78 -36 116t-95 38q-10 0 -24.5 -1t-28.5 -4l-11 60q115 41 170.5 85t55.5 109q0 35 -24.5 61.5t-74.5 26.5q-66 0 -113.5 -30.5t-86.5 -69.5 l-58 49q53 100 154.5 166t222.5 66q113 0 179.5 -47t66.5 -144q0 -98 -72.5 -156.5t-181.5 -74.5q96 -14 159.5 -72.5t63.5 -144.5t-36.5 -146.5t-98 -97.5t-140.5 -54.5t-161 -17.5q-68 0 -124 14.5t-97 40t-63.5 60.5t-22.5 74zM414 0l1243 1518h151l-1245 -1518h-149z M948 96l21 92l600 609h241l-124 -588h176l-25 -113h-176l-51 -241h-275l51 241h-438zM1116 209h295l80 377z" />
<glyph unicode="&#xbf;" horiz-adv-x="962" d="M0 -8q0 74 23.5 130t63.5 101t91 80t107 64q51 27 97 53t79 55t52 61.5t19 73.5q0 12 -1 22.5t-3 20.5h86q43 -37 70 -80t27 -102q0 -86 -58.5 -153.5t-181.5 -139.5q-45 -25 -80 -49.5t-59.5 -54t-36.5 -65.5t-12 -83q0 -61 34.5 -102t102.5 -41q86 0 127 61.5t41 141.5 q0 29 -3 48t-7 40h210q27 -23 42.5 -50.5t15.5 -68.5q0 -66 -35 -120t-94.5 -93t-139 -60.5t-171.5 -21.5q-195 0 -300.5 91t-105.5 241zM442 940q0 82 56.5 139.5t138.5 57.5t138 -57.5t56 -139.5q0 -86 -56 -143.5t-138 -57.5t-138.5 57.5t-56.5 143.5z" />
<glyph unicode="&#xc0;" horiz-adv-x="1538" d="M-80 0l27 125q43 8 74.5 21.5t58.5 54.5l680 1085l-37 158h356l264 -1243q8 -39 34 -54.5t73 -21.5l-25 -125h-657l27 125q90 4 133 23.5t43 74.5q0 39 -8 74l-29 147h-539l-90 -147q-16 -25 -26.5 -51.5t-10.5 -48.5q0 -35 31 -51.5t109 -20.5l-25 -125h-463zM477 575 h432l-102 531zM614 1862h346l80 -320h-166z" />
<glyph unicode="&#xc1;" horiz-adv-x="1538" d="M-80 0l27 125q43 8 74.5 21.5t58.5 54.5l680 1085l-37 158h356l264 -1243q8 -39 34 -54.5t73 -21.5l-25 -125h-657l27 125q90 4 133 23.5t43 74.5q0 39 -8 74l-29 147h-539l-90 -147q-16 -25 -26.5 -51.5t-10.5 -48.5q0 -35 31 -51.5t109 -20.5l-25 -125h-463zM477 575 h432l-102 531zM833 1542l195 320h377l-394 -320h-178z" />
<glyph unicode="&#xc2;" horiz-adv-x="1538" d="M-80 0l27 125q43 8 74.5 21.5t58.5 54.5l680 1085l-37 158h356l264 -1243q8 -39 34 -54.5t73 -21.5l-25 -125h-657l27 125q90 4 133 23.5t43 74.5q0 39 -8 74l-29 147h-539l-90 -147q-16 -25 -26.5 -51.5t-10.5 -48.5q0 -35 31 -51.5t109 -20.5l-25 -125h-463zM477 575 h432l-102 531zM501 1538l379 342h254l195 -342h-166l-187 168l-288 -168h-187z" />
<glyph unicode="&#xc3;" horiz-adv-x="1538" d="M-80 0l27 125q43 8 74.5 21.5t58.5 54.5l680 1085l-37 158h356l264 -1243q8 -39 34 -54.5t73 -21.5l-25 -125h-657l27 125q90 4 133 23.5t43 74.5q0 39 -8 74l-29 147h-539l-90 -147q-16 -25 -26.5 -51.5t-10.5 -48.5q0 -35 31 -51.5t109 -20.5l-25 -125h-463zM477 575 h432l-102 531zM559 1561q47 92 83 149t70 89t67.5 44t76.5 12t80 -20t70 -46t62.5 -46.5t60.5 -20.5q43 0 74.5 32t66.5 85l109 -24q-47 -92 -83 -149.5t-70 -89.5t-68.5 -44t-77.5 -12q-39 0 -75 20.5t-70 46t-65.5 46t-60.5 20.5q-45 0 -74.5 -33t-64.5 -82z" />
<glyph unicode="&#xc4;" horiz-adv-x="1538" d="M-80 0l27 125q43 8 74.5 21.5t58.5 54.5l680 1085l-37 158h356l264 -1243q8 -39 34 -54.5t73 -21.5l-25 -125h-657l27 125q90 4 133 23.5t43 74.5q0 39 -8 74l-29 147h-539l-90 -147q-16 -25 -26.5 -51.5t-10.5 -48.5q0 -35 31 -51.5t109 -20.5l-25 -125h-463zM477 575 h432l-102 531zM582 1692q0 72 48 126t130 54q78 0 121 -47t43 -113q0 -72 -47 -126t-129 -54q-78 0 -122 48t-44 112zM1018 1692q0 72 47 126t129 54q78 0 122 -47t44 -113q0 -72 -47 -126t-129 -54q-78 0 -122 48t-44 112z" />
<glyph unicode="&#xc5;" horiz-adv-x="1538" d="M-80 0l27 125q43 8 74.5 21.5t58.5 54.5l680 1085l-37 158h356l264 -1243q8 -39 34 -54.5t73 -21.5l-25 -125h-657l27 125q90 4 133 23.5t43 74.5q0 39 -8 74l-29 147h-539l-90 -147q-16 -25 -26.5 -51.5t-10.5 -48.5q0 -35 31 -51.5t109 -20.5l-25 -125h-463zM477 575 h432l-102 531zM752 1706q0 47 19.5 87t53 69.5t77.5 46t93 16.5q92 0 148.5 -52t56.5 -134q0 -47 -19.5 -87t-53 -70t-77.5 -46t-93 -16q-92 0 -148.5 52t-56.5 134zM879 1712q0 -39 23.5 -61.5t64.5 -22.5q51 0 78.5 32t27.5 75q0 37 -22.5 59t-65.5 22q-51 0 -78.5 -31.5 t-27.5 -72.5z" />
<glyph unicode="&#xc6;" horiz-adv-x="2134" d="M-80 0l27 125q43 8 71.5 23.5t61.5 52.5l899 1052q-12 37 -44 48.5t-99 11.5l24 125h1348l-82 -381h-127q-12 63 -25.5 110t-37 78t-62.5 46.5t-100 15.5h-250l-103 -500h187q68 0 108.5 37t75.5 129h119l-99 -467h-118q0 92 -23.5 129t-91.5 37h-186l-80 -375 q-10 -47 -10 -72q0 -57 38.5 -75.5t110.5 -18.5h70q57 0 104 14.5t93 48t94.5 87t109.5 131.5h141l-149 -412h-1190l27 125q53 2 89 9t58.5 22.5t35.5 42t23 69.5l50 236h-488l-166 -191q-33 -35 -45 -64.5t-12 -51.5q0 -35 31.5 -51.5t109.5 -20.5l-24 -125h-494zM633 633 h401l129 608z" />
<glyph unicode="&#xc7;" horiz-adv-x="1425" d="M119 555q0 193 68.5 358.5t187.5 286.5t280.5 189.5t348.5 68.5q156 0 270.5 -42t185.5 -109l-67 -322h-166q-6 80 -18.5 142.5t-38 105.5t-67.5 66.5t-104 23.5q-119 0 -213 -72.5t-160.5 -188.5t-101.5 -258t-35 -282q0 -184 67 -291.5t206 -107.5q70 0 123 22.5 t100 69.5t90 116.5t90 166.5h174l-90 -383q-104 -61 -232 -98t-276 -37q-16 0 -29.5 1t-27.5 1l-37 -74q182 -16 182 -154q0 -57 -34.5 -99t-92 -70.5t-131 -43t-151.5 -14.5l-21 94q113 0 182.5 20.5t69.5 63.5q0 41 -43 56.5t-119 19.5l105 211q-119 18 -208 68.5 t-148.5 124t-89 167.5t-29.5 203z" />
<glyph unicode="&#xc8;" horiz-adv-x="1378" d="M-29 0l27 125q51 2 87 9t58.5 22.5t36 42t23.5 69.5l188 891q4 16 6 35.5t2 30.5q0 51 -32.5 67.5t-116.5 20.5l24 125h1178l-82 -381h-127q-12 63 -25.5 110t-37 78t-62.5 46.5t-100 15.5h-248l-104 -500h186q68 0 108.5 37t75.5 129h119l-98 -467h-119q0 92 -23.5 129 t-91.5 37h-186l-78 -375q-6 -23 -8 -41t-2 -31q0 -57 38 -75.5t111 -18.5h68q57 0 104.5 14.5t93.5 48t94 87t109 131.5h142l-150 -412h-1188zM586 1862h346l80 -320h-166z" />
<glyph unicode="&#xc9;" horiz-adv-x="1378" d="M-29 0l27 125q51 2 87 9t58.5 22.5t36 42t23.5 69.5l188 891q4 16 6 35.5t2 30.5q0 51 -32.5 67.5t-116.5 20.5l24 125h1178l-82 -381h-127q-12 63 -25.5 110t-37 78t-62.5 46.5t-100 15.5h-248l-104 -500h186q68 0 108.5 37t75.5 129h119l-98 -467h-119q0 92 -23.5 129 t-91.5 37h-186l-78 -375q-6 -23 -8 -41t-2 -31q0 -57 38 -75.5t111 -18.5h68q57 0 104.5 14.5t93.5 48t94 87t109 131.5h142l-150 -412h-1188zM803 1542l195 320h377l-394 -320h-178z" />
<glyph unicode="&#xca;" horiz-adv-x="1378" d="M-29 0l27 125q51 2 87 9t58.5 22.5t36 42t23.5 69.5l188 891q4 16 6 35.5t2 30.5q0 51 -32.5 67.5t-116.5 20.5l24 125h1178l-82 -381h-127q-12 63 -25.5 110t-37 78t-62.5 46.5t-100 15.5h-248l-104 -500h186q68 0 108.5 37t75.5 129h119l-98 -467h-119q0 92 -23.5 129 t-91.5 37h-186l-78 -375q-6 -23 -8 -41t-2 -31q0 -57 38 -75.5t111 -18.5h68q57 0 104.5 14.5t93.5 48t94 87t109 131.5h142l-150 -412h-1188zM471 1538l379 342h254l195 -342h-166l-187 168l-288 -168h-187z" />
<glyph unicode="&#xcb;" horiz-adv-x="1378" d="M-29 0l27 125q51 2 87 9t58.5 22.5t36 42t23.5 69.5l188 891q4 16 6 35.5t2 30.5q0 51 -32.5 67.5t-116.5 20.5l24 125h1178l-82 -381h-127q-12 63 -25.5 110t-37 78t-62.5 46.5t-100 15.5h-248l-104 -500h186q68 0 108.5 37t75.5 129h119l-98 -467h-119q0 92 -23.5 129 t-91.5 37h-186l-78 -375q-6 -23 -8 -41t-2 -31q0 -57 38 -75.5t111 -18.5h68q57 0 104.5 14.5t93.5 48t94 87t109 131.5h142l-150 -412h-1188zM553 1692q0 72 48 126t130 54q78 0 121 -47t43 -113q0 -72 -47 -126t-129 -54q-78 0 -122 48t-44 112zM989 1692q0 72 47 126 t129 54q78 0 122 -47t44 -113q0 -72 -47 -126t-129 -54q-78 0 -122 48t-44 112z" />
<glyph unicode="&#xcc;" horiz-adv-x="833" d="M-29 0l27 125q51 2 87 9t58.5 22.5t36 42t23.5 69.5l188 891q4 16 6 35.5t2 30.5q0 51 -32.5 67.5t-116.5 20.5l24 125h699l-25 -125q-53 -2 -89 -9.5t-58.5 -22.5t-35.5 -42t-22 -70l-188 -890q-4 -16 -6 -36t-2 -30q0 -51 31.5 -67.5t115.5 -20.5l-24 -125h-699z M324 1862h346l80 -320h-166z" />
<glyph unicode="&#xcd;" horiz-adv-x="833" d="M-29 0l27 125q51 2 87 9t58.5 22.5t36 42t23.5 69.5l188 891q4 16 6 35.5t2 30.5q0 51 -32.5 67.5t-116.5 20.5l24 125h699l-25 -125q-53 -2 -89 -9.5t-58.5 -22.5t-35.5 -42t-22 -70l-188 -890q-4 -16 -6 -36t-2 -30q0 -51 31.5 -67.5t115.5 -20.5l-24 -125h-699z M540 1542l195 320h377l-394 -320h-178z" />
<glyph unicode="&#xce;" horiz-adv-x="833" d="M-29 0l27 125q51 2 87 9t58.5 22.5t36 42t23.5 69.5l188 891q4 16 6 35.5t2 30.5q0 51 -32.5 67.5t-116.5 20.5l24 125h699l-25 -125q-53 -2 -89 -9.5t-58.5 -22.5t-35.5 -42t-22 -70l-188 -890q-4 -16 -6 -36t-2 -30q0 -51 31.5 -67.5t115.5 -20.5l-24 -125h-699z M211 1538l379 342h254l195 -342h-166l-187 168l-288 -168h-187z" />
<glyph unicode="&#xcf;" horiz-adv-x="833" d="M-29 0l27 125q51 2 87 9t58.5 22.5t36 42t23.5 69.5l188 891q4 16 6 35.5t2 30.5q0 51 -32.5 67.5t-116.5 20.5l24 125h699l-25 -125q-53 -2 -89 -9.5t-58.5 -22.5t-35.5 -42t-22 -70l-188 -890q-4 -16 -6 -36t-2 -30q0 -51 31.5 -67.5t115.5 -20.5l-24 -125h-699z M291 1692q0 72 48 126t130 54q78 0 121 -47t43 -113q0 -72 -47 -126t-129 -54q-78 0 -122 48t-44 112zM727 1692q0 72 47 126t129 54q78 0 122 -47t44 -113q0 -72 -47 -126t-129 -54q-78 0 -122 48t-44 112z" />
<glyph unicode="&#xd0;" horiz-adv-x="1622" d="M-8 0l26 125q51 2 87 9t58.5 22.5t36 42t23.5 69.5l86 406h-182l27 135h184l74 350q4 16 6 35.5t2 30.5q0 51 -33 67.5t-117 20.5l25 125h618q166 0 294 -41t215 -117t133.5 -185.5t46.5 -246.5q0 -186 -68 -342t-189.5 -268.5t-289.5 -175t-367 -62.5h-696zM569 219 q0 -51 30 -67.5t97 -16.5h21q131 0 227 69.5t159.5 179.5t95.5 241t32 254q0 98 -19.5 176t-61.5 133t-107.5 85t-159.5 30h-92l-105 -494h272l-28 -135h-273l-77 -371q-6 -29 -8.5 -49.5t-2.5 -34.5z" />
<glyph unicode="&#xd1;" horiz-adv-x="1611" d="M-29 0l27 125q51 2 87 9t58.5 22.5t36 42t23.5 69.5l198 938q-18 33 -33.5 52.5t-33 30.5t-38 15.5t-48.5 8.5l26 125h480l479 -893l127 614q4 16 7 35.5t3 30.5q0 51 -32.5 67.5t-116.5 20.5l24 125h516l-24 -125q-53 -2 -88 -9.5t-58.5 -22.5t-38 -42t-22.5 -70 l-244 -1169h-147l-604 1059l-162 -780q-4 -16 -6 -36t-2 -30q0 -51 31.5 -68.5t115.5 -19.5l-27 -125h-514zM663 1561q47 92 83 149t70 89t67.5 44t76.5 12t80 -20t70 -46t62.5 -46.5t60.5 -20.5q43 0 74.5 32t66.5 85l109 -24q-47 -92 -83 -149.5t-70 -89.5t-68.5 -44 t-77.5 -12q-39 0 -75 20.5t-70 46t-65.5 46t-60.5 20.5q-45 0 -74.5 -33t-64.5 -82z" />
<glyph unicode="&#xd2;" d="M119 563q0 170 59.5 332t168 287t259 200.5t334.5 75.5q135 0 243.5 -41t184.5 -116.5t117 -184t41 -242.5q0 -170 -59.5 -331.5t-168 -286.5t-259 -200.5t-334.5 -75.5q-135 0 -244 40.5t-184.5 116.5t-116.5 184.5t-41 241.5zM492 512q0 -88 11 -160.5t36.5 -125 t69 -81t104.5 -28.5q70 0 129 35.5t108 97t87 142.5t63.5 171t39 183.5t13.5 179.5q0 88 -11.5 160.5t-37 125t-68.5 81t-104 28.5q-70 0 -129.5 -36t-108.5 -97.5t-87 -142t-63.5 -171t-38.5 -183.5t-13 -179zM668 1862h346l80 -320h-166z" />
<glyph unicode="&#xd3;" d="M119 563q0 170 59.5 332t168 287t259 200.5t334.5 75.5q135 0 243.5 -41t184.5 -116.5t117 -184t41 -242.5q0 -170 -59.5 -331.5t-168 -286.5t-259 -200.5t-334.5 -75.5q-135 0 -244 40.5t-184.5 116.5t-116.5 184.5t-41 241.5zM492 512q0 -88 11 -160.5t36.5 -125 t69 -81t104.5 -28.5q70 0 129 35.5t108 97t87 142.5t63.5 171t39 183.5t13.5 179.5q0 88 -11.5 160.5t-37 125t-68.5 81t-104 28.5q-70 0 -129.5 -36t-108.5 -97.5t-87 -142t-63.5 -171t-38.5 -183.5t-13 -179zM884 1542l195 320h377l-394 -320h-178z" />
<glyph unicode="&#xd4;" d="M119 563q0 170 59.5 332t168 287t259 200.5t334.5 75.5q135 0 243.5 -41t184.5 -116.5t117 -184t41 -242.5q0 -170 -59.5 -331.5t-168 -286.5t-259 -200.5t-334.5 -75.5q-135 0 -244 40.5t-184.5 116.5t-116.5 184.5t-41 241.5zM492 512q0 -88 11 -160.5t36.5 -125 t69 -81t104.5 -28.5q70 0 129 35.5t108 97t87 142.5t63.5 171t39 183.5t13.5 179.5q0 88 -11.5 160.5t-37 125t-68.5 81t-104 28.5q-70 0 -129.5 -36t-108.5 -97.5t-87 -142t-63.5 -171t-38.5 -183.5t-13 -179zM555 1538l379 342h254l195 -342h-166l-187 168l-288 -168h-187 z" />
<glyph unicode="&#xd5;" d="M119 563q0 170 59.5 332t168 287t259 200.5t334.5 75.5q135 0 243.5 -41t184.5 -116.5t117 -184t41 -242.5q0 -170 -59.5 -331.5t-168 -286.5t-259 -200.5t-334.5 -75.5q-135 0 -244 40.5t-184.5 116.5t-116.5 184.5t-41 241.5zM492 512q0 -88 11 -160.5t36.5 -125 t69 -81t104.5 -28.5q70 0 129 35.5t108 97t87 142.5t63.5 171t39 183.5t13.5 179.5q0 88 -11.5 160.5t-37 125t-68.5 81t-104 28.5q-70 0 -129.5 -36t-108.5 -97.5t-87 -142t-63.5 -171t-38.5 -183.5t-13 -179zM612 1561q47 92 83 149t70 89t67.5 44t76.5 12t80 -20t70 -46 t62.5 -46.5t60.5 -20.5q43 0 74.5 32t66.5 85l109 -24q-47 -92 -83 -149.5t-70 -89.5t-68.5 -44t-77.5 -12q-39 0 -75 20.5t-70 46t-65.5 46t-60.5 20.5q-45 0 -74.5 -33t-64.5 -82z" />
<glyph unicode="&#xd6;" d="M119 563q0 170 59.5 332t168 287t259 200.5t334.5 75.5q135 0 243.5 -41t184.5 -116.5t117 -184t41 -242.5q0 -170 -59.5 -331.5t-168 -286.5t-259 -200.5t-334.5 -75.5q-135 0 -244 40.5t-184.5 116.5t-116.5 184.5t-41 241.5zM492 512q0 -88 11 -160.5t36.5 -125 t69 -81t104.5 -28.5q70 0 129 35.5t108 97t87 142.5t63.5 171t39 183.5t13.5 179.5q0 88 -11.5 160.5t-37 125t-68.5 81t-104 28.5q-70 0 -129.5 -36t-108.5 -97.5t-87 -142t-63.5 -171t-38.5 -183.5t-13 -179zM635 1692q0 72 48 126t130 54q78 0 121 -47t43 -113 q0 -72 -47 -126t-129 -54q-78 0 -122 48t-44 112zM1071 1692q0 72 47 126t129 54q78 0 122 -47t44 -113q0 -72 -47 -126t-129 -54q-78 0 -122 48t-44 112z" />
<glyph unicode="&#xd7;" horiz-adv-x="1060" d="M123 475l332 275l-219 274l143 119l213 -277l332 277l100 -125l-334 -277l215 -272l-137 -115l-219 273l-328 -273z" />
<glyph unicode="&#xd8;" d="M119 563q0 170 59.5 332t168 287t259 200.5t334.5 75.5q133 0 240 -41l98 160l104 -59l-94 -154q115 -74 176.5 -199t61.5 -291q0 -170 -59.5 -331.5t-168 -286.5t-259 -200.5t-334.5 -75.5q-68 0 -128.5 10t-113.5 28l-113 -184l-104 57l110 181q-115 74 -176 199.5 t-61 291.5zM479 524q0 -63 5 -117.5t16 -99.5l583 953q-29 29 -64.5 45t-86.5 16q-70 0 -130.5 -36t-110.5 -97.5t-90 -141t-66.5 -169t-41 -180.5t-14.5 -173zM561 178q52 -61 152 -61q70 0 130 35.5t110.5 97t90 142.5t66.5 170t41 180.5t14 175.5q0 59 -5 113t-15 99z " />
<glyph unicode="&#xd9;" horiz-adv-x="1581" d="M217 422q0 66 21 160l120 577q4 16 6.5 35.5t2.5 30.5q0 51 -33 67.5t-117 20.5l25 125h700l-27 -125q-53 -2 -88.5 -9.5t-58.5 -22.5t-36 -42t-21 -70l-123 -573q-8 -39 -12.5 -74t-4.5 -69q0 -133 65.5 -207t188.5 -74q74 0 135.5 17.5t111.5 61.5t87 116.5t62 183.5 l129 608q4 16 6 35.5t2 30.5q0 51 -32 67.5t-116 20.5l25 125h516l-27 -125q-102 -4 -145 -32t-59 -112l-140 -673q-29 -133 -87 -230.5t-140 -161t-184.5 -94t-218.5 -30.5q-248 0 -390.5 113.5t-142.5 328.5zM776 1862h346l80 -320h-166z" />
<glyph unicode="&#xda;" horiz-adv-x="1581" d="M217 422q0 66 21 160l120 577q4 16 6.5 35.5t2.5 30.5q0 51 -33 67.5t-117 20.5l25 125h700l-27 -125q-53 -2 -88.5 -9.5t-58.5 -22.5t-36 -42t-21 -70l-123 -573q-8 -39 -12.5 -74t-4.5 -69q0 -133 65.5 -207t188.5 -74q74 0 135.5 17.5t111.5 61.5t87 116.5t62 183.5 l129 608q4 16 6 35.5t2 30.5q0 51 -32 67.5t-116 20.5l25 125h516l-27 -125q-102 -4 -145 -32t-59 -112l-140 -673q-29 -133 -87 -230.5t-140 -161t-184.5 -94t-218.5 -30.5q-248 0 -390.5 113.5t-142.5 328.5zM993 1542l195 320h377l-394 -320h-178z" />
<glyph unicode="&#xdb;" horiz-adv-x="1581" d="M217 422q0 66 21 160l120 577q4 16 6.5 35.5t2.5 30.5q0 51 -33 67.5t-117 20.5l25 125h700l-27 -125q-53 -2 -88.5 -9.5t-58.5 -22.5t-36 -42t-21 -70l-123 -573q-8 -39 -12.5 -74t-4.5 -69q0 -133 65.5 -207t188.5 -74q74 0 135.5 17.5t111.5 61.5t87 116.5t62 183.5 l129 608q4 16 6 35.5t2 30.5q0 51 -32 67.5t-116 20.5l25 125h516l-27 -125q-102 -4 -145 -32t-59 -112l-140 -673q-29 -133 -87 -230.5t-140 -161t-184.5 -94t-218.5 -30.5q-248 0 -390.5 113.5t-142.5 328.5zM663 1538l379 342h254l195 -342h-166l-187 168l-288 -168h-187 z" />
<glyph unicode="&#xdc;" horiz-adv-x="1581" d="M217 422q0 66 21 160l120 577q4 16 6.5 35.5t2.5 30.5q0 51 -33 67.5t-117 20.5l25 125h700l-27 -125q-53 -2 -88.5 -9.5t-58.5 -22.5t-36 -42t-21 -70l-123 -573q-8 -39 -12.5 -74t-4.5 -69q0 -133 65.5 -207t188.5 -74q74 0 135.5 17.5t111.5 61.5t87 116.5t62 183.5 l129 608q4 16 6 35.5t2 30.5q0 51 -32 67.5t-116 20.5l25 125h516l-27 -125q-102 -4 -145 -32t-59 -112l-140 -673q-29 -133 -87 -230.5t-140 -161t-184.5 -94t-218.5 -30.5q-248 0 -390.5 113.5t-142.5 328.5zM744 1692q0 72 48 126t130 54q78 0 121 -47t43 -113 q0 -72 -47 -126t-129 -54q-78 0 -122 48t-44 112zM1180 1692q0 72 47 126t129 54q78 0 122 -47t44 -113q0 -72 -47 -126t-129 -54q-78 0 -122 48t-44 112z" />
<glyph unicode="&#xdd;" horiz-adv-x="1406" d="M197 1313l26 125h639l-26 -125q-72 0 -119 -20.5t-47 -84.5q0 -41 20 -94l146 -422l329 424q29 39 49.5 68.5t20.5 58.5q0 33 -28.5 49.5t-102.5 20.5l26 125h472l-27 -125q-47 -8 -77 -21.5t-62 -54.5l-551 -700l-56 -263q-8 -31 -8 -57q0 -53 39 -70.5t127 -21.5 l-26 -125h-711l26 125q100 4 149.5 31.5t66.5 111.5l57 271l-252 698q-14 41 -36.5 54.5t-63.5 21.5zM911 1542l195 320h377l-394 -320h-178z" />
<glyph unicode="&#xde;" horiz-adv-x="1376" d="M-29 0l27 125q51 2 87 9t58.5 22.5t36 42t23.5 69.5l188 891q4 16 6 35.5t2 30.5q0 51 -32.5 67.5t-116.5 20.5l24 125h699l-25 -125q-53 -2 -89 -9.5t-59.5 -22.5t-36.5 -42t-22 -70l-6 -34h154q260 0 380 -100.5t120 -262.5q0 -125 -49.5 -212t-136.5 -142.5t-209 -80 t-269 -24.5h-162l-4 -18q-10 -37 -10 -74q0 -33 12 -52t39 -29.5t69 -14.5t99 -6l-23 -119h-774zM588 438h82q76 0 142.5 15.5t115.5 52.5t76.5 97.5t27.5 152.5q0 123 -61.5 183t-198.5 60h-65z" />
<glyph unicode="&#xdf;" horiz-adv-x="1406" d="M-358 -266q0 72 46 108.5t105 44.5h51q4 -94 27 -157.5t70 -63.5q25 0 42 17.5t33.5 59.5t31.5 114.5t36 183.5l178 946h-160l31 129h160q66 213 221.5 336t400.5 123q166 0 271.5 -66.5t105.5 -195.5q0 -102 -60.5 -166t-156.5 -115q-43 -25 -73.5 -45t-30.5 -63 q0 -31 27.5 -67t67.5 -77t88 -86t88 -96t67.5 -108.5t27.5 -118.5q0 -90 -33.5 -162t-93 -123t-140.5 -78.5t-173 -27.5q-162 0 -246 67.5t-84 165.5q0 59 34 98t85 56h49q16 -133 68.5 -210t144.5 -77q57 0 89 32.5t32 86.5q0 55 -53 118.5t-116.5 134t-117 150.5 t-53.5 172q0 82 46 147.5t128 133.5q59 47 100 113.5t41 144.5t-36.5 121t-108.5 43q-109 0 -164 -70t-80 -188l-157 -752q-53 -248 -117 -418t-139.5 -275.5t-164.5 -151.5t-190 -46q-111 0 -178 42t-67 116z" />
<glyph unicode="&#xe0;" horiz-adv-x="1382" d="M57 330q0 147 50.5 291.5t141.5 259t216 185.5t272 71q86 0 138.5 -29t99.5 -76l196 109h129l-79 -277l-142 -571q-16 -61 -16 -84q0 -31 29 -31t68.5 38t99.5 112l59 -54q-100 -145 -192.5 -219.5t-200.5 -74.5q-90 0 -138.5 56t-48.5 148q0 49 17.5 108.5t42.5 143.5 h-15q-39 -84 -86 -166t-103 -146.5t-124 -104t-147 -39.5q-119 0 -193 93t-74 257zM389 358q0 -70 21.5 -111.5t70.5 -41.5q51 0 111.5 57t117 155.5t106.5 230.5t83 280q-20 47 -42.5 71.5t-74.5 24.5q-84 0 -156.5 -64.5t-124.5 -163t-82 -216t-30 -222.5zM516 1567h347 l83 -332h-165z" />
<glyph unicode="&#xe1;" horiz-adv-x="1382" d="M57 330q0 147 50.5 291.5t141.5 259t216 185.5t272 71q86 0 138.5 -29t99.5 -76l196 109h129l-79 -277l-142 -571q-16 -61 -16 -84q0 -31 29 -31t68.5 38t99.5 112l59 -54q-100 -145 -192.5 -219.5t-200.5 -74.5q-90 0 -138.5 56t-48.5 148q0 49 17.5 108.5t42.5 143.5 h-15q-39 -84 -86 -166t-103 -146.5t-124 -104t-147 -39.5q-119 0 -193 93t-74 257zM389 358q0 -70 21.5 -111.5t70.5 -41.5q51 0 111.5 57t117 155.5t106.5 230.5t83 280q-20 47 -42.5 71.5t-74.5 24.5q-84 0 -156.5 -64.5t-124.5 -163t-82 -216t-30 -222.5zM739 1235 l199 332h379l-400 -332h-178z" />
<glyph unicode="&#xe2;" horiz-adv-x="1382" d="M57 330q0 147 50.5 291.5t141.5 259t216 185.5t272 71q86 0 138.5 -29t99.5 -76l196 109h129l-79 -277l-142 -571q-16 -61 -16 -84q0 -31 29 -31t68.5 38t99.5 112l59 -54q-100 -145 -192.5 -219.5t-200.5 -74.5q-90 0 -138.5 56t-48.5 148q0 49 17.5 108.5t42.5 143.5 h-15q-39 -84 -86 -166t-103 -146.5t-124 -104t-147 -39.5q-119 0 -193 93t-74 257zM389 358q0 -70 21.5 -111.5t70.5 -41.5q51 0 111.5 57t117 155.5t106.5 230.5t83 280q-20 47 -42.5 71.5t-74.5 24.5q-84 0 -156.5 -64.5t-124.5 -163t-82 -216t-30 -222.5zM415 1221 l375 346h254l188 -346h-163l-185 172l-284 -172h-185z" />
<glyph unicode="&#xe3;" horiz-adv-x="1382" d="M57 330q0 147 50.5 291.5t141.5 259t216 185.5t272 71q86 0 138.5 -29t99.5 -76l196 109h129l-79 -277l-142 -571q-16 -61 -16 -84q0 -31 29 -31t68.5 38t99.5 112l59 -54q-100 -145 -192.5 -219.5t-200.5 -74.5q-90 0 -138.5 56t-48.5 148q0 49 17.5 108.5t42.5 143.5 h-15q-39 -84 -86 -166t-103 -146.5t-124 -104t-147 -39.5q-119 0 -193 93t-74 257zM389 358q0 -70 21.5 -111.5t70.5 -41.5q51 0 111.5 57t117 155.5t106.5 230.5t83 280q-20 47 -42.5 71.5t-74.5 24.5q-84 0 -156.5 -64.5t-124.5 -163t-82 -216t-30 -222.5zM469 1288 q47 92 83 149.5t70 90.5t67.5 44t76.5 11t80 -20.5t70 -45t62.5 -45t60.5 -20.5q43 0 74.5 32t66.5 83l109 -23q-47 -92 -83 -149.5t-70 -90t-68.5 -44t-77.5 -11.5q-39 0 -75 20.5t-70 46t-65.5 46t-60.5 20.5q-45 0 -74.5 -32.5t-64.5 -83.5z" />
<glyph unicode="&#xe4;" horiz-adv-x="1382" d="M57 330q0 147 50.5 291.5t141.5 259t216 185.5t272 71q86 0 138.5 -29t99.5 -76l196 109h129l-79 -277l-142 -571q-16 -61 -16 -84q0 -31 29 -31t68.5 38t99.5 112l59 -54q-100 -145 -192.5 -219.5t-200.5 -74.5q-90 0 -138.5 56t-48.5 148q0 49 17.5 108.5t42.5 143.5 h-15q-39 -84 -86 -166t-103 -146.5t-124 -104t-147 -39.5q-119 0 -193 93t-74 257zM389 358q0 -70 21.5 -111.5t70.5 -41.5q51 0 111.5 57t117 155.5t106.5 230.5t83 280q-20 47 -42.5 71.5t-74.5 24.5q-84 0 -156.5 -64.5t-124.5 -163t-82 -216t-30 -222.5zM490 1399 q0 72 48 126t130 54q78 0 121 -47t43 -113q0 -72 -47 -126t-129 -54q-78 0 -122 48t-44 112zM926 1399q0 72 47 126t129 54q78 0 122 -47t44 -113q0 -72 -47 -126t-129 -54q-78 0 -122 48t-44 112z" />
<glyph unicode="&#xe5;" horiz-adv-x="1382" d="M57 330q0 147 50.5 291.5t141.5 259t216 185.5t272 71q86 0 138.5 -29t99.5 -76l196 109h129l-79 -277l-142 -571q-16 -61 -16 -84q0 -31 29 -31t68.5 38t99.5 112l59 -54q-100 -145 -192.5 -219.5t-200.5 -74.5q-90 0 -138.5 56t-48.5 148q0 49 17.5 108.5t42.5 143.5 h-15q-39 -84 -86 -166t-103 -146.5t-124 -104t-147 -39.5q-119 0 -193 93t-74 257zM389 358q0 -70 21.5 -111.5t70.5 -41.5q51 0 111.5 57t117 155.5t106.5 230.5t83 280q-20 47 -42.5 71.5t-74.5 24.5q-84 0 -156.5 -64.5t-124.5 -163t-82 -216t-30 -222.5zM655 1405 q0 47 19.5 87t53.5 69.5t78 46t93 16.5q92 0 148.5 -52t56.5 -132q0 -47 -19.5 -88t-53.5 -71t-78 -46t-93 -16q-92 0 -148.5 52t-56.5 134zM782 1411q0 -37 22.5 -60.5t65.5 -23.5q51 0 79 32t28 75q0 37 -23.5 59.5t-64.5 22.5q-51 0 -79 -32t-28 -73z" />
<glyph unicode="&#xe6;" horiz-adv-x="1732" d="M57 330q0 147 50.5 291.5t139.5 259t212 185.5t266 71q98 0 167 -38t122 -112q86 70 189.5 110t219.5 40q72 0 127.5 -20.5t92 -54.5t55 -78t18.5 -93q0 -84 -48 -149.5t-136 -116t-211 -87t-272 -65.5v-35q0 -123 55 -196.5t149 -73.5q92 0 165 43t155 135l55 -51 q-100 -166 -236.5 -240.5t-273.5 -74.5q-86 0 -152.5 26.5t-115.5 73.5t-79 111.5t-38 140.5q-37 -70 -81 -133.5t-94 -112.5t-108.5 -77.5t-125.5 -28.5q-119 0 -193 93t-74 257zM389 358q0 -70 21.5 -111.5t70.5 -41.5q55 0 122 66.5t128 183.5q10 129 64.5 247.5 t144.5 215.5q-25 51 -64.5 81.5t-91.5 30.5q-86 0 -157.5 -65.5t-124.5 -165t-83 -218t-30 -223.5zM1057 549q205 59 299 143t94 211q0 45 -18.5 79t-61.5 34q-55 0 -106.5 -40t-93.5 -105.5t-71.5 -149.5t-41.5 -172z" />
<glyph unicode="&#xe7;" horiz-adv-x="1026" d="M57 393q0 137 51.5 271.5t142.5 239t217 169t275 64.5q59 0 111.5 -12.5t90.5 -38t59.5 -64.5t21.5 -92q0 -59 -34 -102.5t-95 -59.5h-100q8 109 -10.5 180.5t-84.5 71.5q-63 0 -119.5 -55.5t-99.5 -140.5t-67.5 -188.5t-24.5 -199.5q0 -117 44 -185.5t132 -68.5 q39 0 76 8.5t73 27t73.5 50t78.5 78.5l54 -53q-86 -152 -210 -232.5t-268 -80.5q-23 0 -32 2l-37 -74q182 -16 182 -154q0 -57 -35 -99t-92 -70.5t-131 -43t-152 -14.5l-20 94q113 0 182.5 20.5t69.5 63.5q0 41 -43 56.5t-119 19.5l107 215q-131 35 -199 141.5t-68 255.5z " />
<glyph unicode="&#xe8;" horiz-adv-x="1060" d="M57 401q0 137 53.5 270.5t147.5 236t221 166t273 63.5q72 0 127 -20.5t92 -54.5t55 -78t18 -93q0 -84 -48 -149.5t-136 -116t-211 -87t-272 -65.5v-35q0 -123 55 -196.5t150 -73.5q92 0 165.5 43t153.5 135l55 -51q-100 -166 -236 -240.5t-271 -74.5q-96 0 -169 32.5 t-122 89t-75 133t-26 166.5zM385 549q205 59 299 143t94 211q0 45 -18.5 79t-61.5 34q-55 0 -106 -40t-93 -105.5t-72 -149.5t-42 -172zM395 1567h347l83 -332h-165z" />
<glyph unicode="&#xe9;" horiz-adv-x="1060" d="M57 401q0 137 53.5 270.5t147.5 236t221 166t273 63.5q72 0 127 -20.5t92 -54.5t55 -78t18 -93q0 -84 -48 -149.5t-136 -116t-211 -87t-272 -65.5v-35q0 -123 55 -196.5t150 -73.5q92 0 165.5 43t153.5 135l55 -51q-100 -166 -236 -240.5t-271 -74.5q-96 0 -169 32.5 t-122 89t-75 133t-26 166.5zM385 549q205 59 299 143t94 211q0 45 -18.5 79t-61.5 34q-55 0 -106 -40t-93 -105.5t-72 -149.5t-42 -172zM618 1235l199 332h379l-400 -332h-178z" />
<glyph unicode="&#xea;" horiz-adv-x="1060" d="M57 401q0 137 53.5 270.5t147.5 236t221 166t273 63.5q72 0 127 -20.5t92 -54.5t55 -78t18 -93q0 -84 -48 -149.5t-136 -116t-211 -87t-272 -65.5v-35q0 -123 55 -196.5t150 -73.5q92 0 165.5 43t153.5 135l55 -51q-100 -166 -236 -240.5t-271 -74.5q-96 0 -169 32.5 t-122 89t-75 133t-26 166.5zM295 1221l375 346h254l188 -346h-163l-185 172l-284 -172h-185zM385 549q205 59 299 143t94 211q0 45 -18.5 79t-61.5 34q-55 0 -106 -40t-93 -105.5t-72 -149.5t-42 -172z" />
<glyph unicode="&#xeb;" horiz-adv-x="1060" d="M57 401q0 137 53.5 270.5t147.5 236t221 166t273 63.5q72 0 127 -20.5t92 -54.5t55 -78t18 -93q0 -84 -48 -149.5t-136 -116t-211 -87t-272 -65.5v-35q0 -123 55 -196.5t150 -73.5q92 0 165.5 43t153.5 135l55 -51q-100 -166 -236 -240.5t-271 -74.5q-96 0 -169 32.5 t-122 89t-75 133t-26 166.5zM367 1399q0 72 48 126t130 54q78 0 121 -47t43 -113q0 -72 -47 -126t-129 -54q-78 0 -122 48t-44 112zM385 549q205 59 299 143t94 211q0 45 -18.5 79t-61.5 34q-55 0 -106 -40t-93 -105.5t-72 -149.5t-42 -172zM803 1399q0 72 47 126t129 54 q78 0 122 -47t44 -113q0 -72 -47 -126t-129 -54q-78 0 -122 48t-44 112z" />
<glyph unicode="&#xec;" horiz-adv-x="743" d="M86 162q0 41 7 82t20 94l141 567l-115 90l19 64l422 78h67l-213 -844q-16 -61 -16 -84q0 -31 28 -31q29 0 70 38t100 112l60 -54q-100 -145 -192.5 -219.5t-200.5 -74.5q-90 0 -143.5 51t-53.5 131zM180 1567h347l83 -332h-165z" />
<glyph unicode="&#xed;" horiz-adv-x="743" d="M86 162q0 41 7 82t20 94l141 567l-115 90l19 64l422 78h67l-213 -844q-16 -61 -16 -84q0 -31 28 -31q29 0 70 38t100 112l60 -54q-100 -145 -192.5 -219.5t-200.5 -74.5q-90 0 -143.5 51t-53.5 131zM387 1235l199 332h379l-400 -332h-178z" />
<glyph unicode="&#xee;" horiz-adv-x="743" d="M80 1221l375 346h254l188 -346h-163l-185 172l-284 -172h-185zM86 162q0 41 7 82t20 94l141 567l-115 90l19 64l422 78h67l-213 -844q-16 -61 -16 -84q0 -31 28 -31q29 0 70 38t100 112l60 -54q-100 -145 -192.5 -219.5t-200.5 -74.5q-90 0 -143.5 51t-53.5 131z" />
<glyph unicode="&#xef;" horiz-adv-x="743" d="M86 162q0 41 7 82t20 94l141 567l-115 90l19 64l422 78h67l-213 -844q-16 -61 -16 -84q0 -31 28 -31q29 0 70 38t100 112l60 -54q-100 -145 -192.5 -219.5t-200.5 -74.5q-90 0 -143.5 51t-53.5 131zM154 1399q0 72 48 126t130 54q78 0 121 -47t43 -113q0 -72 -47 -126 t-129 -54q-78 0 -122 48t-44 112zM590 1399q0 72 47 126t129 54q78 0 122 -47t44 -113q0 -72 -47 -126t-129 -54q-78 0 -122 48t-44 112z" />
<glyph unicode="&#xf0;" horiz-adv-x="1206" d="M61 438q0 141 47.5 264t131.5 214.5t200.5 144.5t257.5 53q47 0 82 -8q-39 115 -102 190l-326 -125l-37 86l289 111q-92 76 -233 141l57 80q106 -25 195.5 -63.5t160.5 -87.5l232 90l37 -86l-183 -70q147 -131 214 -301t67 -344q0 -156 -47 -292t-133 -237.5t-207 -159.5 t-268 -58q-96 0 -175 31.5t-137.5 90t-90.5 143.5t-32 193zM389 338q0 -106 26.5 -173t88.5 -67q74 0 133 71t100 175.5t62.5 222t21.5 211.5q0 109 -12 199q-41 18 -96 18q-78 0 -137.5 -67.5t-101.5 -168t-63.5 -214t-21.5 -207.5z" />
<glyph unicode="&#xf1;" horiz-adv-x="1384" d="M39 0l225 905l-114 90l18 64l420 84h69l-59 -230l-104 -305h14q70 121 142.5 219.5t146 167t147.5 105.5t146 37q86 0 128 -47.5t42 -124.5q0 -20 -4.5 -45t-8.5 -46l-157 -581q-8 -29 -13.5 -50.5t-5.5 -33.5q0 -31 29 -31t69.5 38t100.5 112l59 -54 q-102 -145 -194.5 -219.5t-198.5 -74.5q-92 0 -145.5 51t-53.5 131q0 41 6.5 82t22.5 94l135 473q10 45 10 68q0 39 -34 39q-33 0 -91.5 -51.5t-123 -138.5t-125 -203.5t-93.5 -245.5l-71 -279h-334zM475 1288q47 92 83 149.5t70 90.5t67.5 44t76.5 11t80 -20.5t70 -45 t62.5 -45t60.5 -20.5q43 0 74.5 32t66.5 83l109 -23q-47 -92 -83 -149.5t-70 -90t-68.5 -44t-77.5 -11.5q-39 0 -75 20.5t-70 46t-65.5 46t-60.5 20.5q-45 0 -74.5 -32.5t-64.5 -83.5z" />
<glyph unicode="&#xf2;" horiz-adv-x="1210" d="M61 438q0 141 47.5 267t133.5 222.5t205.5 153t267.5 56.5q94 0 174 -32t138 -90.5t90 -144.5t32 -192q0 -141 -47 -267t-133 -222.5t-206 -152.5t-267 -56q-96 0 -175 31.5t-137.5 90t-90.5 143.5t-32 193zM389 338q0 -106 27 -173t88 -67q74 0 133 71t100 175.5 t62.5 222t21.5 211.5q0 106 -26.5 173t-89.5 67q-74 0 -132.5 -70.5t-99.5 -175t-62.5 -222.5t-21.5 -212zM426 1567h347l83 -332h-165z" />
<glyph unicode="&#xf3;" horiz-adv-x="1210" d="M61 438q0 141 47.5 267t133.5 222.5t205.5 153t267.5 56.5q94 0 174 -32t138 -90.5t90 -144.5t32 -192q0 -141 -47 -267t-133 -222.5t-206 -152.5t-267 -56q-96 0 -175 31.5t-137.5 90t-90.5 143.5t-32 193zM389 338q0 -106 27 -173t88 -67q74 0 133 71t100 175.5 t62.5 222t21.5 211.5q0 106 -26.5 173t-89.5 67q-74 0 -132.5 -70.5t-99.5 -175t-62.5 -222.5t-21.5 -212zM645 1235l199 332h379l-400 -332h-178z" />
<glyph unicode="&#xf4;" horiz-adv-x="1210" d="M61 438q0 141 47.5 267t133.5 222.5t205.5 153t267.5 56.5q94 0 174 -32t138 -90.5t90 -144.5t32 -192q0 -141 -47 -267t-133 -222.5t-206 -152.5t-267 -56q-96 0 -175 31.5t-137.5 90t-90.5 143.5t-32 193zM321 1221l375 346h254l188 -346h-163l-185 172l-284 -172h-185 zM389 338q0 -106 27 -173t88 -67q74 0 133 71t100 175.5t62.5 222t21.5 211.5q0 106 -26.5 173t-89.5 67q-74 0 -132.5 -70.5t-99.5 -175t-62.5 -222.5t-21.5 -212z" />
<glyph unicode="&#xf5;" horiz-adv-x="1210" d="M61 438q0 141 47.5 267t133.5 222.5t205.5 153t267.5 56.5q94 0 174 -32t138 -90.5t90 -144.5t32 -192q0 -141 -47 -267t-133 -222.5t-206 -152.5t-267 -56q-96 0 -175 31.5t-137.5 90t-90.5 143.5t-32 193zM376 1288q47 92 83 149.5t70 90.5t67.5 44t76.5 11t80 -20.5 t70 -45t62.5 -45t60.5 -20.5q43 0 74.5 32t66.5 83l109 -23q-47 -92 -83 -149.5t-70 -90t-68.5 -44t-77.5 -11.5q-39 0 -75 20.5t-70 46t-65.5 46t-60.5 20.5q-45 0 -74.5 -32.5t-64.5 -83.5zM389 338q0 -106 27 -173t88 -67q74 0 133 71t100 175.5t62.5 222t21.5 211.5 q0 106 -26.5 173t-89.5 67q-74 0 -132.5 -70.5t-99.5 -175t-62.5 -222.5t-21.5 -212z" />
<glyph unicode="&#xf6;" horiz-adv-x="1210" d="M61 438q0 141 47.5 267t133.5 222.5t205.5 153t267.5 56.5q94 0 174 -32t138 -90.5t90 -144.5t32 -192q0 -141 -47 -267t-133 -222.5t-206 -152.5t-267 -56q-96 0 -175 31.5t-137.5 90t-90.5 143.5t-32 193zM387 1399q0 72 48 126t130 54q78 0 121 -47t43 -113 q0 -72 -47 -126t-129 -54q-78 0 -122 48t-44 112zM389 338q0 -106 27 -173t88 -67q74 0 133 71t100 175.5t62.5 222t21.5 211.5q0 106 -26.5 173t-89.5 67q-74 0 -132.5 -70.5t-99.5 -175t-62.5 -222.5t-21.5 -212zM823 1399q0 72 47 126t129 54q78 0 122 -47t44 -113 q0 -72 -47 -126t-129 -54q-78 0 -122 48t-44 112z" />
<glyph unicode="&#xf7;" horiz-adv-x="1218" d="M160 659l39 179h929l-36 -179h-932zM428 377q0 59 41 98t94 39q59 0 100.5 -39t41.5 -98t-41 -100t-101 -41q-53 0 -94 41t-41 100zM584 1122q0 57 41 97.5t96 40.5q59 0 100 -40t41 -98q0 -57 -41 -99t-100 -42q-55 0 -96 42t-41 99z" />
<glyph unicode="&#xf8;" horiz-adv-x="1239" d="M63 438q0 141 49.5 267t137.5 222.5t210 153t269 56.5q51 0 98 -10.5t91 -26.5l104 157l86 -53l-102 -153q78 -59 124 -153.5t46 -219.5q0 -141 -49.5 -267t-137.5 -222.5t-210 -152.5t-269 -56q-100 0 -188 34l-129 -196l-87 53l127 192q-78 59 -124 153.5t-46 221.5z M375 311.5q0 -14.5 2 -30.5l448 680q-35 57 -110 57q-74 0 -136.5 -70.5t-107.5 -175t-70.5 -221.5t-25.5 -209v-30.5zM416 156q38 -58 108 -58q74 0 136.5 71t107.5 175.5t70.5 221t25.5 208.5q0 16 -1 29.5t-1 27.5z" />
<glyph unicode="&#xf9;" horiz-adv-x="1402" d="M88 174q0 53 16 125l148 606l-113 90l19 64l420 78h67l-205 -813q-10 -45 -10 -72q0 -25 7 -37t30 -12q41 0 102.5 57t124 150.5t118.5 211t87 236.5l62 240l337 18l-204 -823q-8 -29 -13.5 -50.5t-5.5 -33.5q0 -31 29 -31t69.5 38t100.5 112l59 -54 q-100 -145 -190 -219.5t-199 -74.5q-92 0 -138 56t-46 148q0 47 19.5 125t54.5 191h-15q-61 -115 -127.5 -211t-134.5 -165t-138.5 -106.5t-139.5 -37.5q-98 0 -144.5 53t-46.5 141zM508 1567h347l83 -332h-165z" />
<glyph unicode="&#xfa;" horiz-adv-x="1402" d="M88 174q0 53 16 125l148 606l-113 90l19 64l420 78h67l-205 -813q-10 -45 -10 -72q0 -25 7 -37t30 -12q41 0 102.5 57t124 150.5t118.5 211t87 236.5l62 240l337 18l-204 -823q-8 -29 -13.5 -50.5t-5.5 -33.5q0 -31 29 -31t69.5 38t100.5 112l59 -54 q-100 -145 -190 -219.5t-199 -74.5q-92 0 -138 56t-46 148q0 47 19.5 125t54.5 191h-15q-61 -115 -127.5 -211t-134.5 -165t-138.5 -106.5t-139.5 -37.5q-98 0 -144.5 53t-46.5 141zM729 1235l199 332h379l-400 -332h-178z" />
<glyph unicode="&#xfb;" horiz-adv-x="1402" d="M88 174q0 53 16 125l148 606l-113 90l19 64l420 78h67l-205 -813q-10 -45 -10 -72q0 -25 7 -37t30 -12q41 0 102.5 57t124 150.5t118.5 211t87 236.5l62 240l337 18l-204 -823q-8 -29 -13.5 -50.5t-5.5 -33.5q0 -31 29 -31t69.5 38t100.5 112l59 -54 q-100 -145 -190 -219.5t-199 -74.5q-92 0 -138 56t-46 148q0 47 19.5 125t54.5 191h-15q-61 -115 -127.5 -211t-134.5 -165t-138.5 -106.5t-139.5 -37.5q-98 0 -144.5 53t-46.5 141zM405 1221l375 346h254l188 -346h-163l-185 172l-284 -172h-185z" />
<glyph unicode="&#xfc;" horiz-adv-x="1402" d="M88 174q0 53 16 125l148 606l-113 90l19 64l420 78h67l-205 -813q-10 -45 -10 -72q0 -25 7 -37t30 -12q41 0 102.5 57t124 150.5t118.5 211t87 236.5l62 240l337 18l-204 -823q-8 -29 -13.5 -50.5t-5.5 -33.5q0 -31 29 -31t69.5 38t100.5 112l59 -54 q-100 -145 -190 -219.5t-199 -74.5q-92 0 -138 56t-46 148q0 47 19.5 125t54.5 191h-15q-61 -115 -127.5 -211t-134.5 -165t-138.5 -106.5t-139.5 -37.5q-98 0 -144.5 53t-46.5 141zM479 1399q0 72 48 126t130 54q78 0 121 -47t43 -113q0 -72 -47 -126t-129 -54 q-78 0 -122 48t-44 112zM915 1399q0 72 47 126t129 54q78 0 122 -47t44 -113q0 -72 -47 -126t-129 -54q-78 0 -122 48t-44 112z" />
<glyph unicode="&#xfd;" horiz-adv-x="1142" d="M-215 -242q0 53 32.5 96.5t90.5 61.5h59q0 -92 34 -143.5t120 -51.5q61 0 126.5 35t149.5 121l-227 1041l-129 77l18 64l357 78h63l170 -951l25 33q66 92 107.5 176t65 156t33 130t9.5 103q0 92 -48 136.5t-130 44.5l2 36q33 53 90 94.5t143 41.5q49 0 84 -17.5 t57.5 -47.5t32.5 -66.5t10 -75.5q0 -86 -29.5 -178.5t-83.5 -191.5t-127 -205.5t-159 -219.5q-121 -160 -219 -267.5t-183 -172t-162 -91t-151 -26.5q-45 0 -87 10.5t-73.5 33t-51 56t-19.5 80.5zM598 1235l199 332h379l-400 -332h-178z" />
<glyph unicode="&#xfe;" horiz-adv-x="1314" d="M-213 -403l29 120q35 4 61.5 10.5t45 17.5t31.5 32.5t21 56.5l357 1489l-131 86l18 64l440 86h66l-154 -633l-114 -320h14q43 90 99.5 184.5t123 171t142 126t159.5 49.5q137 0 201 -93.5t64 -252.5q0 -147 -53.5 -293t-147.5 -260.5t-220 -186t-274 -71.5 q-74 0 -126 32.5t-72 69.5l-52 -227q-4 -20 -7 -36t-3 -28q2 -43 33 -55t84 -19l-31 -120h-604zM389 217q14 -49 44 -89t83 -40q84 0 158 65.5t129 165t88 217t33 222.5q0 72 -22.5 112.5t-72.5 40.5q-51 0 -114.5 -57t-126 -154.5t-115.5 -222.5t-84 -260z" />
<glyph unicode="&#xff;" horiz-adv-x="1142" d="M-215 -242q0 53 32.5 96.5t90.5 61.5h59q0 -92 34 -143.5t120 -51.5q61 0 126.5 35t149.5 121l-227 1041l-129 77l18 64l357 78h63l170 -951l25 33q66 92 107.5 176t65 156t33 130t9.5 103q0 92 -48 136.5t-130 44.5l2 36q33 53 90 94.5t143 41.5q49 0 84 -17.5 t57.5 -47.5t32.5 -66.5t10 -75.5q0 -86 -29.5 -178.5t-83.5 -191.5t-127 -205.5t-159 -219.5q-121 -160 -219 -267.5t-183 -172t-162 -91t-151 -26.5q-45 0 -87 10.5t-73.5 33t-51 56t-19.5 80.5zM348 1399q0 72 48 126t130 54q78 0 121 -47t43 -113q0 -72 -47 -126 t-129 -54q-78 0 -122 48t-44 112zM784 1399q0 72 47 126t129 54q78 0 122 -47t44 -113q0 -72 -47 -126t-129 -54q-78 0 -122 48t-44 112z" />
<glyph unicode="&#x152;" horiz-adv-x="2121" d="M119 590q0 186 68.5 341.5t191.5 268.5t294 175.5t378 62.5h1144l-81 -381h-127q-12 63 -25.5 110t-37 78t-62.5 46.5t-101 15.5h-248l-104 -500h186q70 0 110 37t75 129h118l-98 -467h-119q0 92 -22.5 129t-91.5 37h-187l-77 -375q-10 -47 -11 -72q0 -57 38 -75.5 t112 -18.5h69q57 0 103.5 14.5t92.5 48t94 87t110 131.5h141l-149 -412h-1096q-166 0 -294 41t-215 116.5t-133 185.5t-46 247zM489 559q0 -98 19.5 -176t61.5 -133t107.5 -85t160.5 -30h80l247 1172h-129q-143 0 -246.5 -71t-170 -180.5t-98.5 -241.5t-32 -255z" />
<glyph unicode="&#x153;" horiz-adv-x="1802" d="M61 438q0 141 47.5 267t133.5 222.5t206 153t267 56.5q117 0 200.5 -51.5t137.5 -141.5q88 86 198.5 139.5t239.5 53.5q74 0 129 -20.5t92 -54.5t55.5 -78t18.5 -93q0 -84 -48 -149.5t-136.5 -116t-211 -87t-272.5 -65.5v-35q0 -123 54.5 -196.5t150.5 -73.5q92 0 165 43 t152 135l58 -51q-100 -166 -236.5 -240.5t-273.5 -74.5q-106 0 -177 45t-116 118q-82 -78 -179.5 -120.5t-219.5 -42.5q-96 0 -175 31.5t-137.5 90t-90.5 143.5t-32 193zM389 338q0 -106 27 -173t88 -67q74 0 133 71t100 175.5t62.5 222t21.5 211.5q0 106 -26.5 173 t-89.5 67q-74 0 -132.5 -70.5t-99.5 -175t-62.5 -222.5t-21.5 -212zM1126 549q205 59 298.5 143t93.5 211q0 45 -17.5 79t-60.5 34q-55 0 -106.5 -40t-93.5 -105.5t-71.5 -149.5t-42.5 -172z" />
<glyph unicode="&#x178;" horiz-adv-x="1406" d="M197 1313l26 125h639l-26 -125q-72 0 -119 -20.5t-47 -84.5q0 -41 20 -94l146 -422l329 424q29 39 49.5 68.5t20.5 58.5q0 33 -28.5 49.5t-102.5 20.5l26 125h472l-27 -125q-47 -8 -77 -21.5t-62 -54.5l-551 -700l-56 -263q-8 -31 -8 -57q0 -53 39 -70.5t127 -21.5 l-26 -125h-711l26 125q100 4 149.5 31.5t66.5 111.5l57 271l-252 698q-14 41 -36.5 54.5t-63.5 21.5zM641 1692q0 72 48 126t130 54q78 0 121 -47t43 -113q0 -72 -47 -126t-129 -54q-78 0 -122 48t-44 112zM1077 1692q0 72 47 126t129 54q78 0 122 -47t44 -113 q0 -72 -47 -126t-129 -54q-78 0 -122 48t-44 112z" />
<glyph unicode="&#x2c6;" horiz-adv-x="1024" d="M55 1221l375 346h254l188 -346h-163l-185 172l-284 -172h-185z" />
<glyph unicode="&#x2dc;" horiz-adv-x="1024" d="M102 1288q47 92 83 149.5t70 90.5t67.5 44t76.5 11t80 -20.5t70 -45t62.5 -45t60.5 -20.5q43 0 74.5 32t66.5 83l109 -23q-47 -92 -83 -149.5t-70 -90t-68.5 -44t-77.5 -11.5q-39 0 -75 20.5t-70 46t-65.5 46t-60.5 20.5q-45 0 -74.5 -32.5t-64.5 -83.5z" />
<glyph unicode="&#x2000;" horiz-adv-x="962" />
<glyph unicode="&#x2001;" horiz-adv-x="1925" />
<glyph unicode="&#x2002;" horiz-adv-x="962" />
<glyph unicode="&#x2003;" horiz-adv-x="1925" />
<glyph unicode="&#x2004;" horiz-adv-x="641" />
<glyph unicode="&#x2005;" horiz-adv-x="481" />
<glyph unicode="&#x2006;" horiz-adv-x="320" />
<glyph unicode="&#x2007;" horiz-adv-x="320" />
<glyph unicode="&#x2008;" horiz-adv-x="240" />
<glyph unicode="&#x2009;" horiz-adv-x="385" />
<glyph unicode="&#x200a;" horiz-adv-x="106" />
<glyph unicode="&#x2010;" horiz-adv-x="737" d="M94 514l49 221h525l-50 -221h-524z" />
<glyph unicode="&#x2011;" horiz-adv-x="737" d="M94 514l49 221h525l-50 -221h-524z" />
<glyph unicode="&#x2012;" horiz-adv-x="737" d="M94 514l49 221h525l-50 -221h-524z" />
<glyph unicode="&#x2013;" horiz-adv-x="1187" d="M94 541l37 168h987l-37 -168h-987z" />
<glyph unicode="&#x2014;" horiz-adv-x="2048" d="M94 541l37 168h1847l-36 -168h-1848z" />
<glyph unicode="&#x2018;" horiz-adv-x="655" d="M262 1192q0 76 32 144.5t92 120.5t147.5 83t195.5 33v-113q-106 -14 -187 -51t-96 -111h74q63 -14 100 -52t37 -109q0 -74 -48 -125t-138 -51q-92 0 -150.5 60t-58.5 171z" />
<glyph unicode="&#x2019;" horiz-adv-x="655" d="M236 961v112q106 14 187 51t95 111h-74q-63 14 -100 52t-37 110q0 74 48 125t139 51q92 0 150 -60.5t58 -171.5q0 -76 -31.5 -144.5t-92 -120.5t-147.5 -82.5t-195 -32.5z" />
<glyph unicode="&#x201a;" horiz-adv-x="655" d="M8 -139q109 16 190 52t95 112h-76q-63 14 -100 52t-37 109q0 74 48 125t140 51t149.5 -60t57.5 -171q0 -76 -31.5 -144.5t-92 -120.5t-146.5 -83t-197 -33v111z" />
<glyph unicode="&#x201c;" horiz-adv-x="1167" d="M262 1192q0 76 32 144.5t92 120.5t147.5 83t195.5 33v-113q-106 -14 -187 -51t-96 -111h74q63 -14 100 -52t37 -109q0 -74 -48 -125t-138 -51q-92 0 -150.5 60t-58.5 171zM776 1192q0 76 32 144.5t92.5 120.5t146.5 83t196 33v-113q-109 -14 -189.5 -51t-95.5 -111h76 q63 -14 100 -52t37 -109q0 -74 -48 -125t-140 -51t-149.5 60t-57.5 171z" />
<glyph unicode="&#x201d;" horiz-adv-x="1167" d="M236 961v112q106 14 187 51t95 111h-74q-63 14 -100 52t-37 110q0 74 48 125t139 51q92 0 150 -60.5t58 -171.5q0 -76 -31.5 -144.5t-92 -120.5t-147.5 -82.5t-195 -32.5zM748 961v112q53 6 102 18.5t87 32t62.5 47t30.5 64.5h-74q-63 14 -100 52t-37 110q0 74 48 125 t139 51q94 0 151 -60.5t57 -171.5q0 -76 -31.5 -144.5t-92 -120.5t-146.5 -82.5t-196 -32.5z" />
<glyph unicode="&#x201e;" horiz-adv-x="1167" d="M8 -139q109 16 190 52t95 112h-76q-63 14 -100 52t-37 109q0 74 48 125t140 51t149.5 -60t57.5 -171q0 -76 -31.5 -144.5t-92 -120.5t-146.5 -83t-197 -33v111zM522 -139q53 8 101.5 20.5t86.5 31.5t63.5 47t31.5 65h-74q-63 14 -100 52t-37 109q0 74 48 125t138 51 q92 0 150.5 -60t58.5 -171q0 -76 -31.5 -144.5t-92 -120.5t-147.5 -83t-196 -33v111z" />
<glyph unicode="&#x2022;" horiz-adv-x="860" d="M125 629q0 66 24.5 124t67.5 102t99.5 69.5t121.5 25.5q63 0 120.5 -25.5t100.5 -69.5t68 -102.5t25 -123.5q0 -66 -25 -123t-68 -100.5t-100 -69t-121 -25.5q-66 0 -122 25.5t-99 69t-67.5 100.5t-24.5 123z" />
<glyph unicode="&#x2026;" horiz-adv-x="1921" d="M61 184q0 92 59.5 149.5t145.5 57.5q43 0 81 -15.5t65.5 -43t44 -65.5t16.5 -83t-16.5 -81.5t-44 -64.5t-65.5 -43t-81 -15q-86 0 -145.5 57t-59.5 147zM700 184q0 45 16.5 83t44 65.5t65.5 43t81 15.5t81 -15.5t65.5 -43t44 -65.5t16.5 -83t-16.5 -81.5t-44 -64.5 t-65.5 -43t-81 -15t-81 15t-65.5 43t-44 64.5t-16.5 81.5zM1341 184q0 92 59.5 149.5t145.5 57.5q88 0 147.5 -57.5t59.5 -149.5q0 -90 -59.5 -147t-147.5 -57q-86 0 -145.5 57t-59.5 147z" />
<glyph unicode="&#x202f;" horiz-adv-x="385" />
<glyph unicode="&#x2039;" horiz-adv-x="679" d="M70 555l4 20l448 406h166l-326 -416l132 -415h-146z" />
<glyph unicode="&#x203a;" horiz-adv-x="679" d="M-14 150l325 415l-131 416h146l278 -406l-4 -20l-446 -405h-168z" />
<glyph unicode="&#x205f;" horiz-adv-x="481" />
<glyph unicode="&#x20ac;" horiz-adv-x="1456" d="M49 539l27 112h160q10 70 24 133h-158l27 111h164q49 131 129 235.5t181.5 177t219 111.5t242.5 39q143 0 242.5 -41t171.5 -106l-62 -314h-149q-10 166 -53.5 244t-155.5 78q-76 0 -140.5 -34t-116.5 -91t-92 -134t-67 -165h473l-43 -111h-459q-6 -35 -11 -67.5 t-9 -65.5h430l-45 -112h-391v-15q0 -92 12 -165.5t40 -127t72 -82t107 -28.5t114.5 20.5t94.5 65.5t82 113.5t80 164.5h164l-80 -362q-100 -66 -217 -104.5t-266 -38.5q-270 0 -416 142t-146 398v19h-180z" />
<glyph unicode="&#x2122;" horiz-adv-x="1925" d="M262 1200l66 238h655l-37 -238h-69q-10 41 -18.5 72t-21 50t-32 29.5t-49.5 10.5h-23l-104 -481q-4 -10 -4 -17.5v-11.5q0 -27 19.5 -34t60.5 -11l-15 -68h-366l14 68q47 4 69.5 16.5t32.5 53.5l105 485h-23q-33 0 -56.5 -10.5t-45 -29.5t-43 -50t-47.5 -72h-68zM862 739 l15 68q45 4 65.5 15.5t34.5 45.5l153 426q0 35 -9 52.5t-56 17.5l14 74h273q0 -16 -1 -35t3 -41l47 -352l186 350q12 23 19.5 42t11.5 36h309l-31 -74q-49 0 -69.5 -15.5t-30.5 -54.5l-24 -426q-2 -35 14 -46t57 -15l-12 -68h-367l15 68q53 4 77.5 15.5t32.5 47.5q2 6 4 27 t4 47l15 293l-271 -498h-71l-68 498l-106 -293q-8 -27 -16.5 -50.5t-8.5 -41.5q0 -23 15.5 -32t70.5 -13l-14 -68h-281z" />
<glyph unicode="&#x25fc;" horiz-adv-x="1136" d="M0 0v1137h1137v-1137h-1137z" />
</font>
</defs>
</svg>
