<?xml version="1.0" standalone="no"?>
<!DOCTYPE svg PUBLIC "-//W3C//DTD SVG 1.1//EN" "http://www.w3.org/Graphics/SVG/1.1/DTD/svg11.dtd" >
<svg xmlns="http://www.w3.org/2000/svg">
<metadata></metadata>
<defs>
<font id="webfontregular" horiz-adv-x="1171" >
<font-face units-per-em="2048" ascent="1638" descent="-410" />
<missing-glyph horiz-adv-x="460" />
<glyph unicode="&#xfb01;" horiz-adv-x="1329" d="M82 0v72q33 4 62.5 10t50 17.5t33 33t12.5 55.5v789h-152v67l152 54v28q0 98 31.5 179t89 139.5t139.5 91.5t182 33q127 0 209 -39t82 -121q0 -39 -20.5 -68.5t-49.5 -46.5h-119v52q0 78 -33.5 110.5t-107.5 32.5q-88 0 -151.5 -77t-63.5 -236v-95h569l58 25h45v-918 q0 -35 11 -56t32.5 -32.5t50.5 -17.5t63 -10v-72h-503v72q33 4 62.5 10t50 17.5t32.5 33t12 55.5v789h-483v-789q0 -35 11.5 -56t33 -32.5t50 -17.5t63.5 -10v-72h-504z" />
<glyph unicode="&#xfb02;" horiz-adv-x="1327" d="M82 0v72q33 4 62.5 10t50 17.5t33 33t12.5 55.5v789h-152v67l152 54v37q0 94 30.5 174t86 137t132 90t166.5 33q76 0 139.5 -20.5t108.5 -55.5l146 66h51v-1371q0 -35 12 -56t32.5 -32.5t49.5 -17.5t63 -10v-72h-505v72q35 4 63.5 10t50 17.5t33.5 33t12 55.5v1121 q-39 78 -105.5 129t-158.5 51q-111 0 -165 -81t-54 -220v-103h270v-108h-270v-789q0 -35 11.5 -56t33 -32.5t50 -17.5t63.5 -10v-72h-504z" />
<glyph unicode="&#xfb03;" horiz-adv-x="2000" d="M82 0v72q33 4 62.5 10t50 17.5t33 33t12.5 55.5v789h-152v67l152 54v24q0 94 33.5 172t93 133.5t139.5 86t170 30.5q119 0 205 -39q82 -37 127 -88q12 15 24 27q57 59 139 92t183 33q127 0 209 -39t82 -121q0 -39 -20.5 -68.5t-49.5 -46.5h-119v52q0 78 -33.5 110.5 t-107.5 32.5q-88 0 -151.5 -77t-63.5 -236v-95h569l57 25h46v-918q0 -35 11 -56t32.5 -32.5t50 -17.5t63.5 -10v-72h-504v72q33 4 63 10t50.5 17.5t32.5 33t12 55.5v789h-483v-789q0 -35 11 -56t32.5 -32.5t50.5 -17.5t63 -10v-72h-503v72q33 4 62.5 10t50 17.5t32.5 33 t12 55.5v789h-483v-789q0 -35 11.5 -56t33 -32.5t50 -17.5t63.5 -10v-72h-504zM428 1081h483v45q0 76 19 142q-33 76 -101 133q-70 59 -161 59q-111 0 -175.5 -72.5t-64.5 -211.5v-95z" />
<glyph unicode="&#xfb04;" horiz-adv-x="1998" d="M82 0v72q33 4 62.5 10t50 17.5t33 33t12.5 55.5v789h-152v67l152 54v24q0 94 33.5 172t93 133.5t139.5 86t170 30.5q119 0 205 -39q80 -37 125 -86q10 14 22 27q55 57 132 90t167 33q76 0 139.5 -20.5t108.5 -55.5l145 66h52v-1371q0 -35 12 -56t32.5 -32.5t49 -17.5 t63.5 -10v-72h-506v72q35 4 64 10t50.5 17.5t33.5 33t12 55.5v1121q-39 78 -105.5 129t-158.5 51q-111 0 -165 -81t-54 -220v-103h270v-108h-270v-789q0 -35 11 -56t32.5 -32.5t50.5 -17.5t63 -10v-72h-503v72q33 4 62.5 10t50 17.5t32.5 33t12 55.5v789h-483v-789 q0 -35 11.5 -56t33 -32.5t50 -17.5t63.5 -10v-72h-504zM428 1081h483v54q0 72 19 135q-35 76 -101 131q-70 59 -161 59q-111 0 -175.5 -72.5t-64.5 -211.5v-95z" />
<glyph horiz-adv-x="0" />
<glyph unicode="&#xd;" horiz-adv-x="460" />
<glyph horiz-adv-x="0" />
<glyph horiz-adv-x="0" />
<glyph unicode=" "  horiz-adv-x="460" />
<glyph unicode="&#x09;" horiz-adv-x="460" />
<glyph unicode="&#xa0;" horiz-adv-x="460" />
<glyph unicode="!" horiz-adv-x="598" d="M150 129q0 63 43 106.5t106 43.5t106.5 -43t43.5 -107q0 -63 -43.5 -106t-106.5 -43t-106 43t-43 106zM164 1438h268l-88 -1022h-92z" />
<glyph unicode="&#x22;" horiz-adv-x="798" d="M113 1436q0 59 28.5 92t81.5 33t82 -33t29 -92q0 -12 -3 -33t-8.5 -45.5t-10.5 -50t-9 -45.5l-57 -295h-45l-58 295q-4 20 -9 45.5t-10 50t-8 45t-3 33.5zM465 1436q0 59 28.5 92t81.5 33t82 -33t29 -92q0 -12 -3 -33t-8 -45.5t-10.5 -50t-9.5 -45.5l-57 -295h-45 l-57 295q-4 20 -9.5 45.5t-10.5 50t-8 45t-3 33.5z" />
<glyph unicode="#" horiz-adv-x="1196" d="M61 430v109h232l117 362h-203v109h237l144 450l104 -37l-133 -413h262l144 450l104 -37l-133 -413h199v-109h-234l-115 -362h203v-109h-237l-144 -450l-104 36l131 414h-260l-144 -450l-104 36l131 414h-197zM410 539h260l116 362h-262z" />
<glyph unicode="$" horiz-adv-x="1099" d="M82 449h68q31 -115 90 -205t157 -131l90 538l-79 35q-63 27 -120 58.5t-100 75.5t-67.5 104.5t-24.5 146.5q0 82 31 152.5t88 123t139 82t187 29.5q20 0 40.5 -1t41.5 -3l36 213h93l-39 -227q74 -16 138 -42t107 -61v-313h-65q-25 104 -73 179t-128 114l-84 -494l74 -30 q74 -31 135.5 -64t106.5 -78t69.5 -108.5t24.5 -151.5q0 -98 -40 -175t-108.5 -129t-161 -79.5t-196.5 -27.5h-23.5t-21.5 2l-35 -213h-92l37 221q-88 14 -161 43.5t-120 70.5zM272 1130q0 -96 51.5 -153t153.5 -98l45 -21l82 485q-35 6 -74 7q-125 0 -191.5 -61t-66.5 -159 zM485 90q10 -2 21.5 -2h23.5q143 0 226.5 66.5t83.5 177.5q0 57 -17.5 98t-49.5 73t-76 56.5t-99 46.5l-25 10z" />
<glyph unicode="%" horiz-adv-x="1771" d="M82 1085q0 86 29.5 156t79 118t114 73.5t133.5 25.5q70 0 135.5 -25.5t114.5 -73.5t79 -118t30 -156t-30 -155.5t-79 -117.5t-114.5 -73.5t-135.5 -25.5t-134 25.5t-113.5 73.5t-79 117.5t-29.5 155.5zM248 1085q0 -57 10 -109t32.5 -92t58.5 -63.5t89 -23.5t90 23.5 t59.5 63.5t33 92t10.5 109t-10.5 109.5t-33 92.5t-59 63.5t-90.5 23.5q-53 0 -89 -23.5t-58.5 -63.5t-32.5 -92.5t-10 -109.5zM365 -39l921 1518h121l-922 -1518h-120zM975 354q0 86 29.5 156t79 118t114 73.5t135.5 25.5q70 0 134.5 -25.5t113.5 -73.5t79 -118t30 -156 t-30 -155.5t-79 -117.5t-113.5 -73.5t-134.5 -25.5q-72 0 -136 25.5t-113.5 73.5t-79 117.5t-29.5 155.5zM1141 354q0 -57 10 -109t32.5 -92t59.5 -63.5t90 -23.5q51 0 88 23.5t59.5 63.5t33 92t10.5 109t-10.5 109.5t-33 92.5t-59.5 63.5t-88 23.5q-53 0 -90 -23.5 t-59.5 -63.5t-32.5 -92t-10 -110z" />
<glyph unicode="&#x26;" horiz-adv-x="1415" d="M57 377q0 88 30 155.5t82 118.5t122 90q45 25 94 47q-18 23 -41 54q-25 35 -46.5 75.5t-34.5 90t-13 104.5q0 74 26.5 137.5t74.5 109.5t114.5 72.5t148.5 26.5q176 0 266.5 -84t90.5 -213q0 -72 -35 -133t-96.5 -111.5t-149.5 -93.5q-35 -16 -74 -32l385 -441 q10 25 21 49q33 92 33 195q0 78 -22.5 108.5t-82.5 30.5v80h410v-80q-61 0 -97 -6t-57.5 -22.5t-31 -45t-17.5 -73.5q-23 -133 -72 -246q-12 -29 -26 -55l84 -95q49 -55 100 -83.5t117 -28.5v-78h-248q-53 27 -100 72q-27 29 -64 65q-74 -72 -172 -112q-104 -45 -237 -45 q-90 0 -176.5 23.5t-154 72.5t-109.5 123.5t-42 177.5zM258 406q0 -74 25.5 -133.5t68.5 -102.5t101.5 -65.5t126.5 -22.5q111 0 198 41q63 31 115 78l-457 528q-74 -34 -117 -100q-61 -92 -61 -223zM406 1167q0 -94 46 -167.5t103 -139.5l8 -10q93 41 150 88q92 78 92 223 q0 96 -52.5 153.5t-148.5 57.5q-90 0 -144 -53t-54 -152z" />
<glyph unicode="'" horiz-adv-x="446" d="M113 1436q0 59 28.5 92t81.5 33t82 -33t29 -92q0 -12 -3 -33t-8.5 -45.5t-10.5 -50t-9 -45.5l-57 -295h-45l-58 295q-4 20 -9 45.5t-10 50t-8 45t-3 33.5z" />
<glyph unicode="(" horiz-adv-x="692" d="M123 643q0 127 25.5 256t76.5 251t127 230.5t176 196.5h103q-98 -104 -164 -217t-103.5 -230.5t-54 -239.5t-16.5 -247t16.5 -247t54 -238.5t103 -229t164.5 -217.5h-103q-100 88 -176 196.5t-127 229.5t-76.5 250t-25.5 256z" />
<glyph unicode=")" horiz-adv-x="692" d="M61 -289q98 104 163 217t104 229.5t54 238.5t15 247t-15 247t-54 239.5t-103.5 230.5t-163.5 217h103q100 -88 176 -196.5t127 -230.5t76.5 -251t25.5 -256t-25.5 -256t-76.5 -250t-127 -229.5t-176 -196.5h-103z" />
<glyph unicode="*" horiz-adv-x="892" d="M82 1047l301 143l-301 143l57 101l277 -191l-27 334h115l-27 -334l277 191l57 -101l-303 -143l303 -143l-57 -101l-277 189l27 -332h-115l27 334l-277 -191z" />
<glyph unicode="+" horiz-adv-x="1155" d="M129 696v127h385v385h125v-385h387v-127h-387v-385h-125v385h-385z" />
<glyph unicode="," horiz-adv-x="581" d="M102 -170q113 16 163 62.5t50 119.5h-77q-43 10 -68 39t-25 80q0 59 39 94t97 35q78 0 115.5 -54t37.5 -134q0 -63 -18.5 -119.5t-58.5 -99.5t-103.5 -71t-151.5 -34v82z" />
<glyph unicode="-" horiz-adv-x="737" d="M102 547v155h533v-155h-533z" />
<glyph unicode="." horiz-adv-x="581" d="M141 129q0 63 43 106.5t107 43.5q63 0 106 -43t43 -107q0 -63 -43 -106t-106 -43t-106.5 43t-43.5 106z" />
<glyph unicode="/" horiz-adv-x="813" d="M41 -289l567 1866h127l-567 -1866h-127z" />
<glyph unicode="0" horiz-adv-x="1300" d="M92 719q0 154 36 289t106.5 235t175 157.5t241.5 57.5t240.5 -57.5t174.5 -157.5t106.5 -235.5t35.5 -288.5q0 -154 -35.5 -289t-106.5 -235.5t-174.5 -157.5t-240.5 -57t-241.5 57t-175 157.5t-106.5 235.5t-36 289zM322 719q0 -121 14 -235.5t52 -205t101.5 -144.5 t161.5 -54t162 54t100.5 144.5t51 205t14.5 235.5t-14.5 235.5t-51 203.5t-100.5 143.5t-162 54.5t-161.5 -54.5t-101.5 -143.5t-52 -203.5t-14 -235.5z" />
<glyph unicode="1" horiz-adv-x="858" d="M74 0v82q82 6 137 12t87 20.5t45 41t13 73.5v951h-282v63l63 8q74 10 127 24.5t96 37t79 56.5t73 87h45v-1227q0 -47 10.5 -73.5t39 -41t79.5 -20.5t135 -12v-82h-747z" />
<glyph unicode="2" horiz-adv-x="1056" d="M23 0v45l358 377q102 109 168.5 189.5t104.5 148t52.5 127t14.5 123.5q0 135 -70.5 207.5t-204.5 72.5q-59 0 -108 -16.5t-91 -44t-78 -61t-69 -70.5l-47 47q31 59 75 115.5t102.5 100.5t130 70.5t157.5 26.5q199 0 306.5 -112.5t107.5 -298.5q0 -113 -54.5 -213.5 t-144.5 -203t-210 -214t-249 -242.5h334q63 0 110.5 6t84.5 27.5t70.5 63.5t70.5 114h60l-84 -385h-897z" />
<glyph unicode="3" horiz-adv-x="1079" d="M45 266q0 53 28.5 91t61.5 55h111v-70q0 -129 69.5 -199.5t200.5 -70.5q137 0 209 77.5t72 212.5q0 82 -32 142.5t-87 100.5t-131 60.5t-166 20.5h-72l-14 70q88 23 166 50.5t135 66t90 93t33 130.5q0 98 -63.5 151t-161.5 53q-104 0 -184.5 -54t-127.5 -138l-51 41 q27 61 67 117.5t94 98.5t122.5 67.5t152.5 25.5t149.5 -23.5t110.5 -65.5t69 -99.5t24 -124.5q0 -72 -31 -127t-80 -97t-108.5 -69t-116.5 -39q96 -10 174 -43t133 -83t85 -116.5t30 -144.5q0 -106 -40 -189t-110 -140.5t-161 -87t-191 -29.5q-113 0 -199 23.5t-143.5 63 t-87 92t-29.5 107.5z" />
<glyph unicode="4" horiz-adv-x="1239" d="M37 369v77l801 992h98v-963h248v-106h-248v-140q0 -47 13.5 -75.5t41 -44t66.5 -21.5t92 -8v-80h-621v80q51 2 91 8t68 21.5t41 44t13 75.5v140h-704zM186 475h555v678z" />
<glyph unicode="5" horiz-adv-x="1054" d="M55 266q0 53 28 91t58 55h119v-70q0 -129 62.5 -199.5t189.5 -70.5q139 0 210 79.5t71 210.5q0 102 -48.5 177t-133.5 122.5t-201.5 71t-253.5 23.5l108 682h639v-195h-569l-49 -313q145 -6 270 -37t217 -90.5t145.5 -149.5t53.5 -219q0 -100 -34 -183t-95.5 -143.5 t-148.5 -94t-191 -33.5q-111 0 -194 23.5t-139 63t-85 92t-29 107.5z" />
<glyph unicode="6" horiz-adv-x="1179" d="M92 567q0 176 57.5 325.5t165 263.5t262 190.5t349.5 109.5l41 -65q-147 -43 -263 -111t-199 -152t-131 -183t-63 -204q66 76 163 121t204 45q92 0 169 -28.5t132 -83t86 -133t31 -179.5q0 -115 -37 -208t-102.5 -158.5t-154.5 -101t-196 -35.5q-123 0 -218 45 t-161.5 123.5t-100.5 186t-34 232.5zM301 569q0 -113 23.5 -204t65.5 -155.5t100.5 -99t127.5 -34.5q135 0 205 92t70 252q0 168 -84 260t-240 92q-78 0 -148.5 -26.5t-113.5 -59.5q-4 -27 -5 -61.5t-1 -55.5z" />
<glyph unicode="7" horiz-adv-x="1015" d="M33 1110l86 328h870v-58l-583 -1380h-224l658 1243h-537q-39 0 -66.5 -6t-49 -20.5t-41 -41t-40.5 -65.5h-73z" />
<glyph unicode="8" horiz-adv-x="1130" d="M82 365q0 68 24.5 124t66.5 101t99.5 78.5t122.5 56.5l-24 12q-104 53 -169 132t-65 212q0 78 28 146.5t82 120t134 81t184 29.5q98 0 177 -24.5t134.5 -70.5t86 -109.5t30.5 -139.5q0 -61 -24.5 -114.5t-64.5 -95.5t-91 -72.5t-102 -47.5l71 -34q117 -59 192 -146.5 t75 -222.5q0 -80 -29 -152.5t-87.5 -128t-150.5 -88t-217 -32.5q-109 0 -196.5 27.5t-152 77.5t-99.5 122t-35 158zM266 365q0 -129 82 -209t217 -80q137 0 221 69.5t84 192.5q0 98 -59 157.5t-145 100.5l-217 102q-98 -59 -140.5 -146t-42.5 -187zM313 1135 q0 -90 48.5 -142.5t140.5 -99.5l155 -80q92 55 129 129t37 172q0 117 -70.5 182.5t-187.5 65.5q-121 0 -186.5 -63.5t-65.5 -163.5z" />
<glyph unicode="9" horiz-adv-x="1179" d="M84 954q0 115 37 208t102.5 158.5t154.5 101.5t195 36q123 0 218.5 -45t162 -124t100 -186.5t33.5 -232.5q0 -176 -57 -325.5t-164.5 -263t-262 -190.5t-349.5 -109l-41 65q147 43 263 110.5t199 151.5t131 183.5t62 203.5q-66 -76 -163 -121t-203 -45q-92 0 -169 29 t-132.5 83t-86 133t-30.5 179zM287 1018q0 -168 83.5 -260t239.5 -92q78 0 148.5 26.5t113.5 59.5q4 27 5.5 61.5t1.5 54.5q0 113 -24 204t-65.5 155.5t-100 99.5t-128.5 35q-135 0 -204.5 -92t-69.5 -252z" />
<glyph unicode=":" horiz-adv-x="581" d="M141 129q0 63 43 106.5t107 43.5q63 0 106 -43t43 -107q0 -63 -43 -106t-106 -43t-106.5 43t-43.5 106zM141 784q0 63 43 106.5t107 43.5q63 0 106 -43t43 -107q0 -63 -43 -106t-106 -43t-106.5 43t-43.5 106z" />
<glyph unicode=";" horiz-adv-x="581" d="M102 -170q113 16 163 62.5t50 119.5h-77q-43 10 -68 39t-25 80q0 59 39 94t97 35q78 0 115.5 -54t37.5 -134q0 -63 -18.5 -119.5t-58.5 -99.5t-103.5 -71t-151.5 -34v82zM141 784q0 63 43 106.5t107 43.5q63 0 106 -43t43 -107q0 -63 -43 -106t-106 -43t-106.5 43 t-43.5 106z" />
<glyph unicode="&#x3c;" horiz-adv-x="845" d="M82 745v21l635 387v-156l-408 -239l408 -244v-156z" />
<glyph unicode="=" horiz-adv-x="1175" d="M139 555v125h897v-125h-897zM139 838v127h897v-127h-897z" />
<glyph unicode="&#x3e;" horiz-adv-x="845" d="M129 358v156l410 244l-410 239v156l635 -387v-21z" />
<glyph unicode="?" horiz-adv-x="897" d="M55 1192q0 57 31 105.5t83 84t121.5 56t147.5 20.5q180 0 292 -85t112 -257q0 -127 -67.5 -217t-180.5 -172q-84 -59 -121 -116.5t-37 -149.5v-66h-59q-14 25 -37 77t-23 108q0 86 37 156.5t125 142.5q37 31 68 58.5t54.5 60t36.5 72.5t13 95q0 92 -55 144.5t-154 52.5 q-96 0 -138 -51t-42 -142v-75h-164q-43 39 -43 98zM256 129q0 63 43 106.5t107 43.5q63 0 106 -43t43 -107q0 -63 -43 -106t-106 -43t-106.5 43t-43.5 106z" />
<glyph unicode="@" horiz-adv-x="1826" d="M102 508q0 186 67 352t185.5 290t278.5 195.5t348 71.5q172 0 309 -51t234.5 -141t148.5 -216t51 -276q0 -135 -42 -241.5t-109.5 -182.5t-154.5 -115.5t-177 -39.5q-78 0 -122 33.5t-61.5 89t-12 124t27.5 138.5h-12q-35 -82 -78 -153t-91 -122t-99.5 -79.5 t-100.5 -28.5q-86 0 -138 65.5t-52 188.5q0 119 43 230.5t113.5 197.5t159.5 138t181 52q115 0 185 -65l96 77h76l-56 -182l-102 -426q-6 -29 -10 -63.5t1 -64.5t22.5 -49t54.5 -19q61 0 119.5 34.5t105.5 100t75.5 156.5t28.5 206q0 131 -38.5 241.5t-116.5 190.5 t-192.5 125t-266.5 45q-158 0 -293 -65.5t-234.5 -178t-155.5 -264t-56 -321.5q0 -154 52 -281t147.5 -218t226.5 -141t288 -50q150 0 277 35.5t260 113.5l29 -61q-98 -86 -255 -135.5t-331 -49.5q-184 0 -337 56.5t-263.5 159t-172 249t-61.5 324.5zM674 414 q0 -140 86 -140q43 0 94 43t102.5 123t98.5 190.5t84 246.5q-20 41 -52 58t-71 17q-76 0 -139.5 -53t-108.5 -134t-69.5 -175t-24.5 -176z" />
<glyph unicode="A" horiz-adv-x="1480" d="M10 0v80q41 6 75 20.5t50 55.5l486 1165l-64 135h227l564 -1300q16 -41 46.5 -55.5t75.5 -20.5v-80h-548v80q106 4 148 22.5t42 65.5q0 18 -6 38.5t-16 43.5l-97 225h-604l-90 -223q-10 -23 -16.5 -44.5t-6.5 -37.5q0 -47 43 -66.5t150 -23.5v-80h-459zM426 565h530 l-270 641z" />
<glyph unicode="B" horiz-adv-x="1355" d="M70 0v80q51 2 90 8t65.5 21.5t40 44t13.5 75.5v979q0 47 -13.5 76t-40 44t-65.5 21.5t-90 8.5v80h624q240 0 369 -90.5t129 -270.5q0 -78 -29.5 -135t-80 -97t-115 -64.5t-133.5 -37.5q211 -16 321.5 -110t110.5 -248q0 -86 -36 -156.5t-103.5 -122t-166 -79 t-223.5 -27.5h-667zM475 229q0 -84 48 -110.5t159 -26.5h27q178 0 259 72t81 221q0 63 -19.5 118.5t-63.5 96.5t-115 64.5t-171 23.5h-205v-459zM475 780h160q176 0 259 72t83 225q0 53 -19.5 101.5t-61.5 85t-106.5 58t-154.5 21.5h-160v-563z" />
<glyph unicode="C" horiz-adv-x="1378" d="M88 688q0 180 55.5 322.5t150.5 242t224 152.5t277 53q162 0 266 -37t176 -92v-313h-74q-41 178 -140 258t-241 80q-123 0 -213 -48.5t-148.5 -131t-86 -193.5t-27.5 -236q0 -139 32 -259.5t94.5 -210t155.5 -140.5t218 -51q154 0 249 89t154 267h76l-47 -348 q-49 -25 -99 -46t-107.5 -35.5t-123 -22.5t-147.5 -8q-152 0 -277 53t-213 147t-136 224.5t-48 283.5z" />
<glyph unicode="D" horiz-adv-x="1546" d="M70 0v80q51 2 90 8t65.5 21.5t40 44t13.5 75.5v979q0 47 -13.5 76t-40 44t-65.5 21.5t-90 8.5v80h628q199 0 343.5 -56.5t236.5 -149.5t136 -216t44 -256q0 -184 -57.5 -326.5t-156.5 -239t-232 -145.5t-283 -49h-659zM475 240q0 -90 50 -118t159 -28h45q238 0 374 158 t136 463q0 119 -31.5 232.5t-100.5 201.5t-179.5 141t-268.5 53h-184v-1103z" />
<glyph unicode="E" horiz-adv-x="1372" d="M70 0v80q51 2 90 8t65.5 21.5t40 44t13.5 75.5v979q0 47 -13.5 76t-40 44t-65.5 21.5t-90 8.5v80h1149v-342h-56q-29 68 -54.5 114.5t-59 76.5t-77.5 43t-106 13h-391v-561h348q68 0 99.5 46t48.5 139h69v-463h-69q-16 92 -48 138t-100 46h-348v-455q0 -84 48 -111.5 t159 -27.5h205q68 0 111.5 12.5t79.5 44t71 85t84 133.5h57l-61 -369h-1159z" />
<glyph unicode="F" horiz-adv-x="1243" d="M70 0v80q51 2 90 8t65.5 21.5t40 44t13.5 75.5v979q0 47 -13.5 76t-40 44t-65.5 21.5t-90 8.5v80h1112v-355h-54q-29 68 -55 116t-60 81t-77 48t-105 15h-356v-591h311q68 0 101 46t49 138h68v-463h-68q-16 92 -49 138t-101 46h-311v-428q0 -47 18.5 -74.5t52.5 -43 t83 -22.5t110 -9v-80h-669z" />
<glyph unicode="G" horiz-adv-x="1505" d="M88 688q0 180 56.5 322.5t153.5 242t228 152.5t279 53q162 0 271.5 -37t180.5 -92v-313h-73q-41 178 -145.5 258t-245.5 80q-123 0 -215.5 -48.5t-151.5 -131t-89 -193.5t-30 -236q0 -139 32 -259.5t94.5 -210t155.5 -140.5t218 -51q98 0 162.5 19.5t120.5 70.5v287 q0 92 -51.5 118.5t-149.5 30.5v78h575v-78q-49 -2 -83.5 -8t-57.5 -22.5t-33 -45t-10 -73.5v-334q-98 -70 -220 -108.5t-272 -38.5q-162 0 -291.5 52t-220 146t-139.5 224t-49 286z" />
<glyph unicode="H" horiz-adv-x="1710" d="M70 0v80q51 2 90 8t65.5 21.5t40 44t13.5 75.5v979q0 47 -13.5 76t-40 44t-65.5 21.5t-90 8.5v80h614v-80q-49 -2 -88 -8.5t-65.5 -21.5t-41 -44t-14.5 -76v-426h760v426q0 47 -14.5 76t-41 44t-65.5 21.5t-88 8.5v80h614v-80q-51 -2 -90 -8.5t-65.5 -21.5t-39.5 -44 t-13 -76v-979q0 -47 13 -75.5t39.5 -44t65.5 -21.5t90 -8v-80h-614v80q49 2 88 8t65.5 21.5t41 44t14.5 75.5v459h-760v-459q0 -47 14.5 -75.5t41 -44t65.5 -21.5t88 -8v-80h-614z" />
<glyph unicode="I" horiz-adv-x="753" d="M70 0v80q51 2 90 8t65.5 21.5t40 44t13.5 75.5v979q0 47 -13.5 76t-40 44t-65.5 21.5t-90 8.5v80h614v-80q-51 -2 -90 -8.5t-65.5 -21.5t-40 -44t-13.5 -76v-979q0 -47 13.5 -75.5t40 -44t65.5 -21.5t90 -8v-80h-614z" />
<glyph unicode="J" horiz-adv-x="1064" d="M20 236q0 41 16.5 75.5t39.5 55.5h145v-93q0 -104 56.5 -154t144.5 -50q92 0 150.5 68.5t58.5 238.5v831q0 47 -13.5 76t-40 44t-64.5 21.5t-89 8.5v80h614v-80q-51 -2 -90 -8.5t-65.5 -21.5t-40 -44t-13.5 -76v-798q0 -219 -110.5 -323.5t-308.5 -104.5 q-178 0 -284 68.5t-106 185.5z" />
<glyph unicode="K" horiz-adv-x="1462" d="M70 0v80q51 2 90 8t65.5 21.5t40 44t13.5 75.5v979q0 47 -13.5 76t-40 44t-65.5 21.5t-90 8.5v80h614v-80q-49 -2 -88 -8.5t-65.5 -21.5t-40 -44t-13.5 -76v-979q0 -47 13.5 -75.5t40 -44t65.5 -21.5t88 -8v-80h-614zM498 731l514 494q16 16 30.5 34.5t14.5 40.5 q0 14 -6.5 23.5t-23.5 16t-49 10.5t-85 8v80h522v-80q-72 -4 -123 -29.5t-102 -75.5l-488 -467l488 -544q43 -49 76.5 -79t64.5 -47.5t59.5 -25.5t63.5 -10v-80h-276q-51 29 -97.5 71t-105.5 107z" />
<glyph unicode="L" horiz-adv-x="1257" d="M70 0v80q51 2 90 8t65.5 21.5t40 44t13.5 75.5v979q0 47 -13.5 76t-40 44t-65.5 21.5t-90 8.5v80h614v-80q-49 -2 -88 -8.5t-65.5 -21.5t-40 -44t-13.5 -76v-975q0 -84 48 -111.5t159 -27.5h119q68 0 113 17.5t81.5 55.5t69.5 95t76 137h65l-65 -399h-1073z" />
<glyph unicode="M" horiz-adv-x="1906" d="M31 0v80q88 2 125 26.5t47 96.5l129 1005q0 82 -36 114t-138 36v80h374q4 -35 10.5 -58.5t20.5 -56.5l406 -1028l385 1028q12 33 20 56.5t12 58.5h363v-80q-51 -2 -84 -10.5t-52.5 -25.5t-27.5 -45t-8 -69l129 -1005q10 -72 47 -95.5t123 -27.5v-80h-563v80 q109 4 151.5 29.5t42.5 101.5q0 4 -1 21.5t-3 27.5l-110 873l-432 -1133h-70l-459 1139l-108 -879q-2 -10 -3.5 -27.5t-1.5 -21.5q0 -76 43.5 -101.5t151.5 -29.5v-80h-483z" />
<glyph unicode="N" horiz-adv-x="1650" d="M70 0v80q51 2 90 8t65.5 21.5t40 44t13.5 75.5v1000q-31 37 -53.5 60.5t-44 38.5t-48.5 22.5t-63 7.5v80h350l852 -1080v850q0 47 -13.5 76t-40 44t-65.5 21.5t-90 8.5v80h536v-80q-51 -2 -90 -8.5t-65.5 -21.5t-39.5 -44t-13 -76v-1208h-84l-910 1137v-908 q0 -47 13.5 -75.5t40 -44t65.5 -21.5t90 -8v-80h-536z" />
<glyph unicode="O" horiz-adv-x="1531" d="M88 690q0 176 54.5 318.5t147.5 242t218 153.5t264 54q160 0 285 -57.5t211 -154.5t131 -226t45 -272q0 -176 -54.5 -318.5t-147.5 -242t-218 -153.5t-264 -54q-160 0 -285 57t-211 154.5t-131 226.5t-45 272zM307 725q0 -117 27.5 -230.5t86 -202.5t149.5 -144.5 t218 -55.5q109 0 191 48t136 131t82 197t28 245q0 117 -28 230.5t-86 202.5t-149.5 144.5t-218.5 55.5q-109 0 -190.5 -48.5t-136 -131.5t-82 -196.5t-27.5 -244.5z" />
<glyph unicode="P" horiz-adv-x="1255" d="M70 0v80q51 2 90 8t65.5 21.5t40 44t13.5 75.5v979q0 47 -13.5 76t-40 44t-65.5 21.5t-90 8.5v80h610q147 0 249.5 -36t166 -94.5t92.5 -134t29 -155.5q0 -90 -30 -168t-91.5 -136.5t-155.5 -92t-225 -33.5h-238v-359q0 -47 17.5 -74.5t51.5 -43t83 -22.5t110 -9v-80 h-669zM477 682h162q190 0 274 79t84 249q0 74 -20.5 134t-64.5 105t-111.5 69.5t-161.5 24.5h-162v-661z" />
<glyph unicode="Q" horiz-adv-x="1531" d="M88 690q0 176 54.5 318.5t147.5 242t218 153.5t264 54q160 0 285 -57.5t211 -154.5t131 -226t45 -272q0 -176 -54.5 -318.5t-147.5 -242t-218 -154.5q-47 -20 -96 -33l53 -57q102 -111 181 -178.5t165 -77.5v-39q-33 -10 -71.5 -16.5t-65.5 -6.5q-113 0 -191.5 40 t-142.5 126l-135 191q-137 6 -246 55q-125 57 -211 154.5t-131 226.5t-45 272zM307 725q0 -117 27.5 -230.5t86 -202.5t149.5 -144.5t218 -55.5q109 0 191 48t136 131t82 197t28 245q0 117 -28 230.5t-86 202.5t-149.5 144.5t-218.5 55.5q-109 0 -190.5 -48.5t-136 -131.5 t-82 -196.5t-27.5 -244.5z" />
<glyph unicode="R" horiz-adv-x="1441" d="M70 0v80q51 2 90 8t65.5 21.5t40 44t13.5 75.5v979q0 47 -13.5 76t-40 44t-65.5 21.5t-90 8.5v80h602q137 0 235.5 -30t163 -83t95 -128t30.5 -163q0 -86 -35 -154.5t-90 -115.5t-126 -76t-144 -35l344 -428q49 -61 114.5 -101t149.5 -44v-80h-293q-57 35 -96 75t-90 105 l-346 447h-109v-398q0 -47 13.5 -75.5t40 -44t65.5 -21.5t88 -8v-80h-612zM475 717h143q360 0 361 317q0 66 -21.5 122t-65.5 98t-113.5 65.5t-168.5 23.5h-135v-626z" />
<glyph unicode="S" horiz-adv-x="1138" d="M82 457h72q23 -80 58.5 -148.5t83.5 -119t111.5 -79t141.5 -28.5q145 0 227 67.5t82 194.5q0 53 -18.5 93t-58.5 75t-105.5 65.5t-157.5 65.5q-102 37 -180 77t-131 89t-81 113.5t-28 150.5q0 82 30 151.5t87 122t140 82t192 29.5q125 0 233.5 -37t192.5 -92v-313h-68 q-35 150 -127 245t-241 95q-129 0 -195 -65.5t-66 -164.5q0 -53 14.5 -92t51.5 -72.5t99.5 -65.5t158.5 -67q113 -41 197 -84t139 -94t81.5 -115.5t26.5 -150.5q0 -98 -39.5 -174t-108.5 -127t-160 -77.5t-193 -26.5q-145 0 -262 41.5t-185 99.5z" />
<glyph unicode="T" horiz-adv-x="1357" d="M31 1010l30 428h1233l33 -428h-65q-45 104 -76 169.5t-65 102.5t-77 50.5t-112 13.5h-156v-1117q0 -47 14.5 -75.5t42 -44t68.5 -21.5t92 -8v-80h-631v80q51 2 91.5 8t68 21.5t42 44t14.5 75.5v1117h-152q-70 0 -113 -13.5t-76.5 -50.5t-65.5 -102.5t-77 -169.5h-63z" />
<glyph unicode="U" horiz-adv-x="1568" d="M16 1358v80h615v-80q-51 -2 -90 -8.5t-64.5 -21.5t-39 -44t-13.5 -76v-704q0 -193 99.5 -294t275.5 -101q207 0 317.5 95t110.5 316v688q0 47 -13.5 76t-40 44t-65.5 21.5t-90 8.5v80h534v-80q-51 -2 -90 -8.5t-64.5 -21.5t-38.5 -44t-13 -76v-727q0 -127 -45.5 -221 t-121 -155.5t-175 -92t-209.5 -30.5q-129 0 -234.5 29.5t-179.5 92t-115 157.5t-41 224v723q0 47 -13 76t-40 44t-65.5 21.5t-90.5 8.5z" />
<glyph unicode="V" horiz-adv-x="1462" d="M10 1358v80h547v-80q-106 -4 -148 -22.5t-42 -65.5q0 -18 6 -38t16 -44l406 -916l362 914q10 23 16.5 43t6.5 39q0 47 -42 66.5t-151 23.5v80h465v-80q-45 -6 -75.5 -20.5t-49.5 -55.5l-543 -1300h-61l-588 1300q-18 41 -50 55.5t-75 20.5z" />
<glyph unicode="W" horiz-adv-x="1968" d="M10 1358v80h545v-80q-106 -4 -148 -22.5t-42 -65.5q0 -18 6 -39t14 -43l313 -885l242 709l-92 270q-16 47 -50 58.5t-75 17.5v80h524v-80q-109 -4 -150.5 -22.5t-41.5 -65.5q0 -18 6 -39t14 -43l295 -885l311 883q8 23 15.5 43t7.5 39q0 47 -42 66.5t-151 23.5v80h447 v-80q-41 -6 -74 -18.5t-49 -57.5l-471 -1300h-59l-314 882l-311 -882h-59l-486 1300q-16 41 -50 55.5t-75 20.5z" />
<glyph unicode="X" horiz-adv-x="1456" d="M10 0v80q61 0 101.5 20.5t87.5 81.5l430 543l-391 530q-41 57 -84 80t-105 23v80h604v-80q-59 0 -95 -3t-56.5 -10.5t-26.5 -19.5t-6 -29q0 -27 17.5 -55.5t39.5 -58.5l240 -336l266 336q23 31 39 59.5t16 54.5q0 16 -6 28.5t-26.5 20t-56 10.5t-95.5 3v80h512v-80 q-61 0 -101 -20.5t-87 -82.5l-393 -499l421 -574q41 -55 84 -78.5t107 -23.5v-80h-598v80q61 0 97 3t54.5 11t23.5 20.5t5 28.5q0 23 -16.5 50.5t-38.5 56.5l-279 385l-301 -379q-25 -31 -40 -57.5t-15 -53.5q0 -16 5 -28.5t23.5 -20.5t55.5 -12t100 -4v-80h-512z" />
<glyph unicode="Y" horiz-adv-x="1357" d="M10 1358v80h543v-80q-106 -4 -146 -19.5t-40 -56.5q0 -25 10 -46.5t26 -47.5l314 -504l321 504q16 27 25.5 48t9.5 46q0 41 -40 56.5t-146 19.5v80h461v-80q-45 -6 -73 -20.5t-52 -55.5l-453 -702v-351q0 -47 13.5 -75.5t40 -44t65.5 -21.5t88 -8v-80h-610v80q51 2 90 8 t65.5 21.5t39.5 44t13 75.5v349l-440 704q-25 41 -53.5 55.5t-71.5 20.5z" />
<glyph unicode="Z" horiz-adv-x="1269" d="M51 0v51l875 1288h-457q-61 0 -101 -13t-70 -45t-56.5 -86t-63.5 -136h-59v379h1067v-54l-869 -1288h496q68 0 114 18.5t81.5 56.5t68.5 96.5t76 138.5h68l-68 -406h-1102z" />
<glyph unicode="[" horiz-adv-x="638" d="M174 -289v1866h373v-66q-61 -4 -105.5 -8t-72 -16t-41 -36t-13.5 -62v-1489q0 -41 13.5 -63.5t41 -35t71.5 -16.5t106 -8v-66h-373z" />
<glyph unicode="\" horiz-adv-x="813" d="M78 1577h127l569 -1866h-127z" />
<glyph unicode="]" horiz-adv-x="638" d="M92 -223q61 4 105.5 8t72 16.5t41 35t13.5 63.5v1489q0 39 -13.5 62.5t-41 35.5t-71.5 16t-106 8v66h373v-1866h-373v66z" />
<glyph unicode="^" horiz-adv-x="946" d="M82 983l317 594h148l317 -594h-137l-254 481l-254 -481h-137z" />
<glyph unicode="_" horiz-adv-x="901" d="M41 -135h819v-111h-819v111z" />
<glyph unicode="`" horiz-adv-x="1024" d="M317 1559h238l152 -347h-80z" />
<glyph unicode="a" horiz-adv-x="1095" d="M92 256q0 72 25.5 121t66.5 84t92.5 57.5t100.5 40.5l323 117v100q0 45 -9 87t-32.5 75t-62.5 51.5t-98 18.5q-168 0 -168 -152q0 -49 14 -106l-154 -21q-23 23 -33 48.5t-10 62.5q0 63 30 112t82 83t123 52.5t155 18.5q178 0 266 -88t88 -256q0 -25 -1 -95.5t-2 -151.5 t-2 -154.5t-1 -106.5q0 -139 94 -139q14 0 44 3t52 9l10 -49q-53 -53 -102 -75.5t-102 -22.5q-78 0 -119 51t-55 135q-29 -31 -64 -64.5t-78 -60.5t-93 -44t-107 -17q-70 0 -121 22.5t-85 60t-50.5 88t-16.5 105.5zM285 305q0 -88 43 -135t121 -47q72 0 129 22.5t122 69.5 v367l-290 -111q-57 -23 -91 -64.5t-34 -101.5z" />
<glyph unicode="b" horiz-adv-x="1214" d="M20 1413v43l287 103h51v-631q63 82 149.5 130t199.5 48q104 0 184 -40t134 -109.5t81 -163t27 -199.5q0 -141 -41 -255t-113 -193.5t-167 -122.5t-204 -43q-154 0 -264.5 41.5t-173.5 95.5v1224zM358 358q0 -78 18.5 -132t53.5 -88t84.5 -49t108.5 -15q72 0 131 30.5 t101 87t65.5 137.5t23.5 179q0 86 -17.5 169t-56.5 147.5t-99 104.5t-146 40q-78 0 -148.5 -25.5t-118.5 -75.5v-510z" />
<glyph unicode="c" horiz-adv-x="1036" d="M82 508q0 121 38 229.5t106.5 190.5t164.5 130t215 48q164 0 255 -67.5t91 -184.5q0 -53 -23.5 -79.5t-58.5 -43.5h-104v70q0 86 -44 144.5t-142 58.5q-74 0 -133.5 -32t-102.5 -88.5t-66.5 -133t-23.5 -164.5q0 -100 24.5 -183.5t70.5 -142.5t113.5 -92t153.5 -33 q106 0 179 45t133 129l37 -20q-45 -156 -152.5 -232.5t-263.5 -76.5q-104 0 -190.5 38.5t-147.5 109.5t-95 168t-34 212z" />
<glyph unicode="d" horiz-adv-x="1267" d="M82 492q0 141 40 254.5t109.5 193.5t163.5 123t203 43q84 0 152.5 -29.5t105.5 -83.5v348l-149 72v43l288 103h49v-1338q0 -53 23 -69.5t94 -24.5l53 -6v-70l-327 -71h-31v182q-63 -82 -143 -132t-195 -50q-104 0 -185 39.5t-137.5 109.5t-85 163t-28.5 200zM270 567 q0 -86 19.5 -167t58.5 -143t99.5 -99t142.5 -37q78 0 148.5 27.5t117.5 76.5v502q0 147 -71.5 216t-192.5 69q-72 0 -131.5 -33t-101.5 -91.5t-65.5 -140t-23.5 -180.5z" />
<glyph unicode="e" horiz-adv-x="1069" d="M82 508q0 135 37 244.5t102.5 188.5t155.5 122t196 43q100 0 178 -34t129.5 -94t78 -144t26.5 -185v-63h-733q0 -100 25.5 -183.5t74.5 -142.5t119 -92t156 -33q117 0 192.5 50.5t132.5 125.5l35 -18q-37 -137 -146.5 -225t-283.5 -88q-113 0 -201 40.5t-149.5 112.5 t-93 168t-31.5 207zM260 684h537q0 147 -63.5 234.5t-190.5 87.5q-61 0 -110.5 -27t-85.5 -71t-58.5 -102t-28.5 -122z" />
<glyph unicode="f" horiz-adv-x="739" d="M82 0v72q33 4 62.5 10t50 17.5t33 33t12.5 55.5v789h-152v67l152 54v37q0 94 25.5 174t74.5 137t122 90t167 33q104 0 168.5 -41t64.5 -119q0 -35 -18.5 -62.5t-46.5 -43.5h-103v53q0 59 -23.5 95t-88.5 36q-78 0 -116 -77t-38 -222v-103h270v-108h-270v-780 q0 -39 10.5 -60.5t34 -34t61 -18.5t93.5 -12v-72h-545z" />
<glyph unicode="g" horiz-adv-x="1114" d="M31 -170q0 43 16 76t43 57.5t60.5 44t70.5 35.5q-117 41 -117 150q0 86 66 149q53 51 123 96q-31 16 -60 37q-55 45 -87.5 109.5t-32.5 150.5t30.5 154.5t86 117t131 74t165.5 25.5q53 0 99.5 -10.5t83.5 -26.5l370 27v-140h-75l-211 48v-11q59 -39 100 -102.5t41 -145.5 t-30 -147.5t-83 -112.5t-130 -72.5t-169 -25.5q-84 0 -157 23q-14 4 -29 8q-45 -45 -64 -76q-23 -37 -22 -76q0 -65 74 -65h2h462q139 0 217 -53.5t78 -186.5q0 -86 -44 -156.5t-123.5 -122t-189.5 -79t-241 -27.5q-217 0 -335.5 62.5t-118.5 191.5zM199 -106 q0 -59 24.5 -101.5t67.5 -68t102.5 -38t130.5 -12.5q88 0 162 14.5t126 44t82 72.5t30 99q0 76 -45 98.5t-127 22.5h-500q-29 -31 -41 -64t-12 -67zM301 758q0 -59 15.5 -111.5t46 -92.5t76 -63.5t104.5 -23.5q104 0 156.5 72.5t52.5 189.5q0 59 -16.5 112.5t-48.5 93.5 t-77 62.5t-102 22.5q-104 0 -155.5 -73t-51.5 -189z" />
<glyph unicode="h" horiz-adv-x="1302" d="M66 0v72q35 4 63.5 10t50 17.5t33.5 33t12 55.5v1153l-149 72v43l286 103h52v-654q37 37 79 73t90 64.5t103 46t119 17.5q135 0 211 -78t76 -258v-582q0 -35 12 -56t33.5 -32.5t50.5 -17.5t63 -10v-72h-506v72q33 4 63 10t50.5 17.5t32.5 33t12 55.5v568q0 111 -46 154.5 t-144 43.5q-80 0 -160 -30.5t-139 -77.5v-658q0 -35 12 -56t32.5 -32.5t49.5 -17.5t63 -10v-72h-505z" />
<glyph unicode="i" horiz-adv-x="657" d="M82 0v72q33 4 62.5 10t50 17.5t33 33t12.5 55.5v701l-148 72v43l285 102h51v-918q0 -35 11.5 -56t33 -32.5t50 -17.5t63.5 -10v-72h-504zM193 1389q0 57 38.5 97t94.5 40q55 0 94 -40t39 -97t-39 -97.5t-94 -40.5t-94 40t-39 98z" />
<glyph unicode="j" horiz-adv-x="552" d="M20 -375l66 84q39 49 62.5 95t36 97.5t15.5 110t3 131.5v746l-150 72v43l289 102h49v-930q0 -55 -1 -100t-6 -84t-15.5 -74t-28.5 -72q-41 -82 -112.5 -145t-159.5 -127zM156 1389q0 57 38.5 97t94.5 40q55 0 94 -40t39 -97t-39 -97.5t-94 -40.5t-94 40t-39 98z" />
<glyph unicode="k" horiz-adv-x="1163" d="M66 0v72q35 4 63.5 10t50 17.5t33.5 33t12 55.5v1153l-149 72v43l286 103h52v-1371q0 -35 12 -56t32.5 -32.5t49.5 -17.5t63 -10v-72h-505zM434 580l340 323q16 16 24.5 27.5t8.5 27.5q0 25 -32 34t-124 22v71h465v-71q-61 -14 -95 -29.5t-69 -48.5l-323 -301l526 -580 v-55h-207z" />
<glyph unicode="l" horiz-adv-x="641" d="M66 0v72q35 4 63.5 10t50 17.5t33.5 33t12 55.5v1153l-149 72v43l286 103h52v-1371q0 -35 12 -56t32.5 -32.5t49.5 -17.5t63 -10v-72h-505z" />
<glyph unicode="m" horiz-adv-x="1941" d="M82 0v72q33 4 62.5 10t50 17.5t33 33t12.5 55.5v701l-148 72v43l285 102h51v-201q37 37 79 73t88 64.5t99.5 46t114.5 17.5q106 0 172 -49t88 -158q37 37 80 74t92 66.5t103.5 48t115.5 18.5q135 0 204 -80t69 -256v-582q0 -35 12 -56t32.5 -32.5t49 -17.5t63.5 -10v-72 h-506v72q35 4 64 10t50.5 17.5t33.5 33t12 55.5v568q0 111 -40 154.5t-136 43.5q-80 0 -153.5 -30.5t-133.5 -77.5v-658q0 -35 12.5 -56t33 -32.5t49 -17.5t63.5 -10v-72h-506v72q35 4 63.5 10t50 17.5t34 33t12.5 55.5v568q0 111 -40 154.5t-136 43.5q-80 0 -155 -30.5 t-134 -77.5v-658q0 -35 11.5 -56t33 -32.5t50 -17.5t63.5 -10v-72h-504z" />
<glyph unicode="n" horiz-adv-x="1318" d="M82 0v72q33 4 62.5 10t50 17.5t33 33t12.5 55.5v701l-148 72v43l285 102h51v-201q37 37 80 73t91 64.5t103.5 46t118.5 17.5q135 0 211 -78t76 -258v-582q0 -35 12.5 -56t34 -32.5t50 -17.5t63.5 -10v-72h-506v72q33 4 62.5 10t50 17.5t33 33t12.5 55.5v568 q0 111 -46.5 154.5t-144.5 43.5q-80 0 -161 -30.5t-140 -77.5v-658q0 -35 11.5 -56t33 -32.5t50 -17.5t63.5 -10v-72h-504z" />
<glyph unicode="o" d="M82 522q0 131 41 239.5t109.5 184.5t161.5 118t198 42q113 0 205 -41t157.5 -112.5t100.5 -171t35 -218.5q0 -133 -41 -240.5t-110 -183.5t-162 -117.5t-197 -41.5q-115 0 -206 39.5t-156.5 112.5t-100.5 172t-35 218zM279 559q0 -96 21.5 -182t63.5 -150.5t102 -102.5 t138 -38q72 0 126 32t90 89t54.5 139t18.5 180q0 96 -21.5 182.5t-63.5 151t-102.5 102t-138.5 37.5q-72 0 -126 -31.5t-90 -89t-54 -139.5t-18 -180z" />
<glyph unicode="p" horiz-adv-x="1253" d="M49 -332q35 4 63.5 10.5t50 17.5t34 32.5t12.5 56.5v1104l-150 72v43l289 102h49v-178q66 82 151 130t200 48q104 0 183 -40t133 -109.5t80.5 -163t26.5 -199.5q0 -141 -40.5 -255t-110.5 -193.5t-162 -122.5t-192 -43q-96 0 -165 31.5t-104 80.5v-307q0 -35 12.5 -56.5 t34 -32.5t50 -17.5t63.5 -10.5v-71h-508v71zM397 358q0 -141 72 -212.5t193 -71.5q72 0 131 30.5t101 87t65.5 137.5t23.5 179q0 86 -17.5 169t-56.5 147.5t-99 104.5t-146 40q-76 0 -148 -25.5t-119 -75.5v-510z" />
<glyph unicode="q" horiz-adv-x="1210" d="M82 492q0 141 40 254.5t110.5 193.5t166.5 123t207 43q88 0 168 -28.5t129 -86.5l107 131h51l-17 -229v-1108q0 -35 12.5 -56.5t34 -32.5t50 -17.5t63.5 -10.5v-71h-506v71q33 4 63 10.5t50 17.5t32.5 32.5t12.5 56.5v377q-63 -82 -143 -132t-195 -50q-104 0 -185 39.5 t-137.5 109.5t-85 163t-28.5 200zM270 567q0 -86 19.5 -167t58.5 -143t99.5 -99t142.5 -37q78 0 148.5 27.5t117.5 76.5v502q0 78 -18.5 132t-53 88t-84 49.5t-108.5 15.5q-72 0 -131.5 -33t-101.5 -91.5t-65.5 -140t-23.5 -180.5z" />
<glyph unicode="r" horiz-adv-x="843" d="M82 0v72q33 4 62.5 10t50 17.5t33 33t12.5 55.5v701l-148 72v43l283 102h53v-324q49 88 86 150.5t70.5 100.5t69.5 55.5t83 17.5q51 0 76 -29v-182h-43q-47 0 -88 -5t-81 -23.5t-82 -54.5t-91 -95v-520q0 -39 10.5 -60.5t34 -34t61 -18.5t93.5 -12v-72h-545z" />
<glyph unicode="s" horiz-adv-x="923" d="M82 352h76q31 -131 106.5 -205.5t202.5 -74.5q98 0 153.5 44t55.5 124q0 49 -17.5 84.5t-52.5 61.5t-87 46.5t-122 42.5q-68 20 -124 48t-96 65t-61.5 88t-21.5 121q0 68 24.5 124t71 98t112 64.5t144.5 22.5q104 0 187.5 -23.5t150.5 -62.5v-254h-77q-43 246 -267 246 q-84 0 -131 -46t-47 -116q0 -86 61.5 -135t180.5 -86q76 -25 139.5 -50.5t108.5 -62.5t69.5 -89t24.5 -130q0 -68 -26.5 -126t-76 -100t-120 -66.5t-158.5 -24.5q-100 0 -197.5 21.5t-173.5 78.5z" />
<glyph unicode="t" horiz-adv-x="757" d="M31 977v61q78 49 147.5 116t136.5 165h54v-234h313v-108h-313v-717q0 -86 37.5 -118.5t123.5 -32.5q47 0 96.5 12t90.5 33l20 -45q-53 -57 -131 -93t-180 -36q-106 0 -175 55t-69 186v756h-151z" />
<glyph unicode="u" horiz-adv-x="1288" d="M45 989v70l313 47h31v-762q0 -113 46 -163t145 -50q82 0 156.5 31t133.5 78v639q0 55 -24.5 75.5t-97.5 30.5l-33 4v70l311 47h33v-885q0 -53 22.5 -69.5t92.5 -24.5l53 -6v-70l-328 -71h-29v200q-39 -37 -79.5 -72.5t-87 -64.5t-98.5 -46t-116 -17q-135 0 -211.5 77.5 t-76.5 257.5v564q0 55 -24.5 75.5t-98.5 30.5z" />
<glyph unicode="v" horiz-adv-x="1132" d="M10 1014v71h479v-71q-80 -10 -113.5 -23.5t-33.5 -50.5q0 -20 14 -55l250 -625l256 625q8 20 11.5 31.5t3.5 23.5q0 37 -35 50.5t-113 23.5v71h393v-71q-35 -12 -55 -20.5t-32.5 -16.5t-18.5 -18.5t-15 -26.5l-405 -952h-45l-420 952q-8 16 -14 26.5t-18.5 17.5t-33 16 t-55.5 22z" />
<glyph unicode="w" horiz-adv-x="1624" d="M10 1014v71h463v-71q-78 -10 -110.5 -23.5t-32.5 -50.5q0 -23 14 -61l217 -594l203 549l-35 98q-6 16 -13 27.5t-19.5 19.5t-33 15t-55.5 20v71h457v-71q-80 -10 -112.5 -23.5t-32.5 -50.5q0 -23 14 -61l209 -598l217 604q6 18 9 30.5t3 24.5q0 37 -32.5 50.5 t-110.5 23.5v71h385v-71q-35 -12 -55.5 -20.5t-33 -16.5t-18.5 -18.5t-12 -26.5l-356 -952h-52l-270 722l-274 -722h-49l-367 952q-6 16 -12 27.5t-18.5 19.5t-33 15t-53.5 20z" />
<glyph unicode="x" horiz-adv-x="1110" d="M10 0v72q94 25 144 82l305 393l-283 385q-27 35 -53.5 54.5t-83.5 27.5v71h475v-71q-41 -4 -65.5 -8.5t-38 -10.5t-17.5 -15t-4 -22q0 -12 11.5 -30.5t23.5 -34.5l176 -242l170 242q14 16 21.5 29.5t7.5 29.5q0 29 -22.5 37t-94.5 25v71h383v-71q-47 -12 -81 -29.5 t-62 -52.5l-269 -354l310 -424q29 -35 55 -54.5t82 -27.5v-72h-473v72q82 8 103.5 18t21.5 37q0 12 -11.5 30.5t-23.5 35.5l-205 280l-201 -280q-10 -16 -18 -29.5t-8 -30.5q0 -29 21.5 -37t94.5 -24v-72h-391z" />
<glyph unicode="y" horiz-adv-x="1148" d="M10 1014v71h479v-71q-80 -10 -113.5 -23.5t-33.5 -50.5q0 -12 2 -23.5t12 -31.5l271 -668l252 668q8 20 11 31.5t3 23.5q0 37 -35 50.5t-113 23.5v71h394v-71q-35 -12 -55.5 -20.5t-33 -16.5t-19.5 -18.5t-13 -26.5l-453 -1141q-39 -98 -92 -156.5t-147 -58.5 q-51 0 -92 20.5t-66 53.5v94h106q96 0 143.5 28.5t78.5 112.5l41 109l-406 938q-8 16 -14 26.5t-18.5 17.5t-33 16t-55.5 22z" />
<glyph unicode="z" horiz-adv-x="1024" d="M76 0v45l635 948h-332q-39 0 -65.5 -11t-47 -39t-38 -75t-38.5 -116h-84v333h832v-53l-625 -940h318q41 0 76.5 13.5t67.5 44t57.5 81t44.5 125.5h84l-37 -356h-848z" />
<glyph unicode="{" horiz-adv-x="698" d="M102 629v33q74 16 122 61t48 143v449q0 61 25 109.5t70 82t105 52t134 18.5v-55q-37 -4 -69.5 -17.5t-59 -37t-42 -59.5t-15.5 -87v-447q0 -104 -42 -151t-145 -78q102 -31 144.5 -78t42.5 -151v-447q0 -51 15.5 -87t42 -59.5t59 -36.5t69.5 -17v-56q-74 0 -134 18.5 t-105 52.5t-70 82t-25 109v449q0 98 -48 143t-122 62z" />
<glyph unicode="|" horiz-adv-x="526" d="M205 -289v1866h117v-1866h-117z" />
<glyph unicode="}" horiz-adv-x="698" d="M92 -231q37 4 70 17t59.5 36.5t42 59.5t15.5 87v447q0 104 41.5 151t144.5 78q-102 31 -144 78t-42 151v447q0 51 -15.5 87t-42 59.5t-59.5 37t-70 17.5v55q74 0 134.5 -18.5t105.5 -52t69.5 -82t24.5 -109.5v-449q0 -98 48 -143t122 -61v-33q-74 -16 -122 -61.5 t-48 -143.5v-449q0 -61 -24.5 -109t-69.5 -82t-105.5 -52.5t-134.5 -18.5v56z" />
<glyph unicode="~" horiz-adv-x="1046" d="M102 588q43 127 105.5 189.5t161.5 62.5q49 0 94 -18.5t89 -42t86 -42t85 -18.5q51 0 78.5 21.5t62.5 86.5l80 -12q-43 -127 -105.5 -189.5t-160.5 -62.5q-49 0 -94 18.5t-89 42t-86 42t-85 18.5q-51 0 -79 -21.5t-63 -87.5z" />
<glyph unicode="&#xa1;" horiz-adv-x="598" d="M150 956q0 63 43 106.5t106 43.5t106.5 -43t43.5 -107q0 -63 -43.5 -106t-106.5 -43t-106 43t-43 106zM164 -352l88 1022h92l88 -1022h-268z" />
<glyph unicode="&#xa2;" horiz-adv-x="1058" d="M72 510q0 125 36.5 233.5t107.5 189.5t172 127t230 46h3l59 270h90l-59 -276q29 -4 57 -13q68 -16 116 -48.5t74.5 -80t26.5 -104.5q0 -53 -25.5 -84t-62.5 -47h-98v70q0 96 -49 153q-23 27 -64 41l-178 -835q59 -16 129 -17q111 0 188.5 45t139.5 129l39 -20 q-47 -156 -161 -232.5t-278 -76.5q-47 0 -92 8l-43 -209h-90l49 229q-14 6 -27 10q-90 41 -154.5 112t-100 168t-35.5 212zM248 586q0 -209 100 -330q35 -41 78 -68l174 816h-22q-72 0 -132.5 -30t-104.5 -85t-68.5 -132t-24.5 -171z" />
<glyph unicode="&#xa3;" horiz-adv-x="1343" d="M31 176q0 94 62.5 153.5t164.5 59.5q63 0 123 -18l49 327h-217v88h231l27 168q20 133 63.5 228.5t104.5 157t140 90t171 28.5q135 0 214 -52t79 -151q0 -47 -20.5 -81.5t-51.5 -49.5h-122v74q0 72 -27 118t-107 46q-51 0 -87.5 -26.5t-63.5 -78t-46.5 -125t-33.5 -167.5 l-31 -179h338v-88h-352l-41 -254q-12 -74 -33 -143q88 -51 190.5 -90t209.5 -39q51 0 92 10.5t70.5 35t46 67.5t16.5 108h49q12 -16 27.5 -54t15.5 -95q0 -72 -21.5 -122t-59.5 -82t-91 -46t-117 -14q-70 0 -138.5 18t-129.5 49t-114.5 69t-94.5 74q-43 -86 -109.5 -148 t-168.5 -62q-109 0 -158 56t-49 140zM133 176q0 -45 24.5 -70.5t65.5 -25.5q49 0 85 43t54 143q-59 27 -110 27q-61 0 -90 -35t-29 -82z" />
<glyph unicode="&#xa4;" horiz-adv-x="1191" d="M123 311l147 150q-37 49 -57 111.5t-20 134.5q0 143 79 247l-149 148l80 78l147 -148q51 37 113.5 57.5t132.5 20.5t132.5 -20.5t113.5 -57.5l147 146l78 -78l-147 -148q37 -49 58 -111.5t21 -133.5q0 -72 -21.5 -134.5t-57.5 -113.5l149 -146l-80 -77l-147 145 q-51 -37 -113.5 -57.5t-132.5 -20.5q-72 0 -133.5 20.5t-114.5 57.5l-147 -148zM303 707q0 -68 22.5 -124.5t61.5 -97.5t93.5 -64.5t115.5 -23.5t115.5 23.5t93.5 64.5t61.5 97.5t22.5 124.5t-22.5 124t-61.5 97t-93.5 64.5t-115.5 23.5t-115.5 -23.5t-93.5 -64.5t-61.5 -97 t-22.5 -124z" />
<glyph unicode="&#xa5;" horiz-adv-x="1357" d="M37 1358v80h559v-80q-109 -4 -146.5 -21.5t-37.5 -58.5q0 -25 8 -45.5t22 -44.5l277 -494l280 494q12 23 21.5 44t9.5 46q0 41 -37 58.5t-147 21.5v80h475v-80q-45 -6 -74.5 -20.5t-52.5 -55.5l-330 -545h303v-88h-356l-41 -69v-76h397v-90h-397v-185q0 -47 13.5 -75.5 t40 -44t66.5 -21.5t91 -8v-80h-616v80q51 2 91 8t67.5 21.5t41 44t13.5 75.5v185h-392v90h392v74l-43 71h-349v88h297l-319 545q-23 39 -52.5 54.5t-74.5 21.5z" />
<glyph unicode="&#xa6;" horiz-adv-x="526" d="M205 -289v770h117v-770h-117zM205 807v770h117v-770h-117z" />
<glyph unicode="&#xa7;" horiz-adv-x="1062" d="M115 969q0 113 36.5 203t101 153.5t155 98t198.5 34.5q141 0 222 -53t81 -133q0 -43 -24.5 -67.5t-53.5 -37.5h-122v33q0 70 -45.5 119t-126.5 49q-80 0 -123 -39t-43 -100q0 -55 31.5 -116.5t79.5 -127t106.5 -135.5t111.5 -143q109 -150 178.5 -302.5t69.5 -328.5 q0 -113 -37 -203t-101.5 -153.5t-155.5 -98.5t-197 -35q-141 0 -222 53.5t-81 133.5q0 43 24.5 67.5t52.5 36.5h123v-33q0 -70 45 -119t127 -49q80 0 123 39t43 101q0 55 -31.5 116.5t-80 127t-106.5 135t-112 143.5q-109 150 -178 302.5t-69 328.5zM213 969 q0 -137 65.5 -287t178.5 -299q51 -70 109.5 -144.5t107.5 -150.5t81.5 -149t32.5 -136q25 39 43.5 110t18.5 163q0 137 -65.5 286.5t-178.5 299.5q-53 70 -111.5 144.5t-107.5 150t-81 147.5t-32 137q-25 -39 -43 -109.5t-18 -162.5z" />
<glyph unicode="&#xa8;" horiz-adv-x="1024" d="M193 1386q0 51 35.5 87t88.5 36t89 -35.5t36 -87.5q0 -53 -35.5 -89.5t-89.5 -36.5q-53 0 -88.5 36.5t-35.5 89.5zM582 1386q0 51 35.5 87t89.5 36q53 0 88.5 -35.5t35.5 -87.5q0 -53 -35.5 -89.5t-88.5 -36.5t-89 36.5t-36 89.5z" />
<glyph unicode="&#xa9;" horiz-adv-x="1630" d="M82 719q0 154 54 288t151.5 234t232.5 158.5t295 58.5t295 -58.5t232.5 -158.5t151.5 -234.5t54 -287.5q0 -154 -54 -288t-151.5 -234.5t-232.5 -158.5t-295 -58t-295 58t-232.5 158.5t-151.5 234.5t-54 288zM168 719q0 -135 47 -256t133 -210t205 -141.5t262 -52.5 t262 52.5t205 141.5t133 210t47 256t-47 256t-133 210t-205 141t-262 52t-262 -52t-205 -141t-133 -210t-47 -256zM424 705q0 104 34 188t91 142.5t135 89t164 30.5q94 0 155.5 -24.5t102.5 -57.5v-194h-62q-43 199 -194 198q-66 0 -115 -26.5t-80.5 -72.5t-47 -106.5 t-15.5 -130.5q0 -78 16.5 -146.5t49 -118.5t82 -78.5t112.5 -28.5q45 0 78 15t56.5 43t42 68t34.5 89h63l-18 -222q-59 -29 -120.5 -50t-158.5 -21q-90 0 -164.5 30.5t-128 86t-83 131t-29.5 166.5z" />
<glyph unicode="&#xaa;" horiz-adv-x="892" d="M92 848q0 53 19.5 90t49 62.5t67.5 43t75 29.5l242 86v76q0 68 -25.5 119t-105.5 51q-119 0 -119 -111q0 -20 3 -37.5t7 -39.5l-139 -17q-16 16 -25.5 34.5t-9.5 47.5q0 92 83 144.5t208 52.5q139 0 213 -64.5t74 -189.5q0 -25 -1 -77t-2 -109.5t-2.5 -109.5t-1.5 -77 q0 -49 19.5 -74.5t50.5 -25.5q10 0 32.5 2t41.5 6l6 -43q-39 -39 -86 -55.5t-88 -16.5q-53 0 -86 38t-43 97q-23 -23 -49.5 -46t-58 -43.5t-68.5 -33t-80 -12.5q-102 0 -151.5 59.5t-49.5 143.5zM262 881q0 -57 30 -91t83 -34q49 0 86 15t84 50v271l-180 -76 q-102 -43 -103 -135z" />
<glyph unicode="&#xab;" horiz-adv-x="976" d="M92 551v20l330 390h96l-235 -400l235 -399h-96zM459 551v20l329 390h97l-236 -400l236 -399h-97z" />
<glyph unicode="&#xad;" horiz-adv-x="737" d="M102 547v155h533v-155h-533z" />
<glyph unicode="&#xae;" horiz-adv-x="1136" d="M102 991q0 96 35 181t96.5 148.5t146.5 100.5t187 37t188.5 -37t148 -100.5t96 -148.5t34.5 -181t-34.5 -181t-96 -147.5t-147.5 -99.5t-189 -37q-102 0 -187 37t-146.5 99.5t-96.5 147.5t-35 181zM178 991q0 -80 29 -151.5t81 -126t123.5 -86t155.5 -31.5q86 0 158 31.5 t124 86t80.5 126t28.5 151.5t-28.5 151.5t-80.5 127t-124 87.5t-158 32q-84 0 -155.5 -32t-123.5 -87.5t-81 -127t-29 -151.5zM356 760v39q35 0 48.5 9t13.5 40v303q0 35 -13.5 41t-48.5 10v39h222q92 0 140 -39t48 -98q0 -53 -38 -88t-85 -45l82 -113q23 -33 41 -46t45 -13 v-39h-104q-16 10 -38 34.5t-40 53.5l-76 113h-45v-113q0 -31 13.5 -40t45.5 -9v-39h-211zM508 1004h53q53 0 82 26.5t29 73.5q0 92 -111 92h-53v-192z" />
<glyph unicode="&#xaf;" horiz-adv-x="1024" d="M244 1276v119h536v-119h-536z" />
<glyph unicode="&#xb0;" horiz-adv-x="751" d="M61 1149q0 66 25 122t67 98t99 65.5t123 23.5q68 0 125 -23.5t99 -65.5t66.5 -98.5t24.5 -121.5q0 -66 -24.5 -122t-66.5 -97t-99.5 -64.5t-124.5 -23.5q-66 0 -123 23.5t-99 64.5t-67 97t-25 122zM174 1149q0 -92 54.5 -151.5t146.5 -59.5q94 0 148.5 59.5t54.5 151.5 t-54.5 152.5t-148.5 60.5q-92 0 -146.5 -60.5t-54.5 -152.5z" />
<glyph unicode="&#xb1;" horiz-adv-x="1155" d="M129 295v125h897v-125h-897zM129 815v125h385v293h125v-293h387v-125h-387v-291h-125v291h-385z" />
<glyph unicode="&#xb2;" horiz-adv-x="833" d="M51 588v49l242 240q61 61 104 109t70 90t38 79t11 74q0 82 -48 125t-130 43q-39 0 -70.5 -10.5t-59.5 -27t-51.5 -36.5t-43.5 -41l-33 35q23 43 54.5 82t72.5 68.5t90 47t109 17.5q135 0 209.5 -69.5t74.5 -192.5q0 -72 -34.5 -134.5t-93 -124t-138.5 -127t-168 -143.5 h231q39 0 67 4.5t50.5 17.5t43 40.5t44.5 75.5h49l-32 -291h-658z" />
<glyph unicode="&#xb3;" horiz-adv-x="831" d="M72 768q0 35 17 59.5t40 36.5h102v-47q0 -84 40 -131t126 -47q76 0 120 47t44 139q0 98 -63.5 144.5t-171.5 46.5h-50l-6 49q117 41 184.5 87t67.5 120q0 57 -39 94t-116 37q-80 0 -127 -42t-76 -95l-53 34q20 45 49.5 86t70.5 72t91.5 48.5t111.5 17.5 q119 0 185.5 -57.5t66.5 -143.5q0 -47 -22.5 -83t-56.5 -63.5t-75.5 -46t-78.5 -30.5q125 -14 200.5 -83t75.5 -177q0 -68 -28.5 -118t-77 -84t-110.5 -51.5t-130 -17.5q-76 0 -134.5 16.5t-97 44t-59 63.5t-20.5 75z" />
<glyph unicode="&#xb4;" horiz-adv-x="1024" d="M317 1212l152 347h238l-310 -347h-80z" />
<glyph unicode="&#xb6;" horiz-adv-x="1269" d="M123 958q0 104 32.5 192.5t99.5 152t168 99.5t239 36h559v-80q-49 -2 -88 -8.5t-66 -21.5t-41 -44t-14 -76v-1611h-107v1763h-137v-1763h-106v862q-137 0 -238.5 39t-168.5 106.5t-99.5 158.5t-32.5 195zM346 958q0 -76 16.5 -150.5t53.5 -135t97 -98t149 -37.5v823 q-88 0 -148.5 -35t-97.5 -91t-53.5 -128t-16.5 -148z" />
<glyph unicode="&#xb7;" horiz-adv-x="524" d="M113 616q0 63 43 106.5t106 43.5t106.5 -43t43.5 -107q0 -63 -43 -106t-107 -43q-63 0 -106 43t-43 106z" />
<glyph unicode="&#xb8;" horiz-adv-x="1024" d="M322 -385q111 0 175 23.5t64 70.5t-50 67.5t-140 24.5l88 215h65l-45 -114q104 -2 163.5 -35t59.5 -117q0 -53 -28.5 -91t-78.5 -62.5t-117.5 -37t-143.5 -12.5z" />
<glyph unicode="&#xb9;" horiz-adv-x="770" d="M113 588v67q109 6 153.5 20.5t44.5 76.5v548h-198v58l59 10q47 8 84 21.5t67.5 33t57.5 47t55 62.5h43v-780q0 -31 11.5 -48.5t35 -27.5t61.5 -14.5t91 -6.5v-67h-565z" />
<glyph unicode="&#xba;" horiz-adv-x="909" d="M72 1049q0 98 28.5 177t79.5 135t123 87t156 31q88 0 158.5 -30t119.5 -84t75 -128t26 -162q0 -98 -29 -177t-80 -135t-121.5 -87t-156.5 -31q-88 0 -159 30t-120 84t-74.5 128t-25.5 162zM252 1073q0 -68 14.5 -131t43 -110.5t69.5 -76t96 -28.5q94 0 138 91t44 233 q0 68 -14 131t-42 110t-68.5 76t-94.5 29q-94 0 -140 -91.5t-46 -232.5z" />
<glyph unicode="&#xbb;" horiz-adv-x="976" d="M92 162l236 399l-236 400h96l330 -390v-20l-330 -389h-96zM459 162l235 399l-235 400h96l330 -390v-20l-330 -389h-96z" />
<glyph unicode="&#xbc;" horiz-adv-x="1822" d="M113 588v67q109 6 153.5 20.5t44.5 76.5v548h-198v58l59 10q47 8 84 21.5t67.5 33t57.5 47t55 62.5h43v-780q0 -31 11.5 -48.5t35 -27.5t61.5 -14.5t91 -6.5v-67h-565zM434 0l920 1518h123l-922 -1518h-121zM924 98v70l522 625h113v-605h161v-90h-161v-243h-173v243h-462 zM1051 188h335v406z" />
<glyph unicode="&#xbd;" horiz-adv-x="1826" d="M113 588v67q109 6 153.5 20.5t44.5 76.5v548h-198v58l59 10q47 8 84 21.5t67.5 33t57.5 47t55 62.5h43v-780q0 -31 11.5 -48.5t35 -27.5t61.5 -14.5t91 -6.5v-67h-565zM434 0l920 1518h123l-922 -1518h-121zM1047 -100l239 241q61 61 104.5 110.5t70 90.5t38.5 78t12 74 q0 82 -48 125t-132 43q-39 0 -70.5 -10.5t-59 -27t-51.5 -37t-44 -40.5l-33 35q23 41 54.5 79.5t72.5 68.5t91 48.5t108 18.5q137 0 210.5 -70t73.5 -192q0 -72 -34.5 -134.5t-93 -124t-137.5 -127t-167 -143.5h230q41 0 68.5 4t49 17.5t42 41t45.5 74.5h49l-33 -290h-655 v47z" />
<glyph unicode="&#xbe;" horiz-adv-x="1847" d="M72 768q0 35 17 59.5t40 36.5h102v-47q0 -84 40 -131t126 -47q76 0 120 47t44 139q0 98 -63.5 144.5t-171.5 46.5h-50l-6 49q117 41 184.5 87t67.5 120q0 57 -39 94t-116 37q-80 0 -127 -42t-76 -95l-53 34q20 45 49.5 86t70.5 72t91.5 48.5t111.5 17.5 q119 0 185.5 -57.5t66.5 -143.5q0 -47 -22.5 -83t-56.5 -63.5t-75.5 -46t-78.5 -30.5q125 -14 200.5 -83t75.5 -177q0 -68 -28.5 -118t-77 -84t-110.5 -51.5t-130 -17.5q-76 0 -134.5 16.5t-97 44t-59 63.5t-20.5 75zM459 0l919 1518h123l-921 -1518h-121zM948 98v70 l522 625h113v-605h162v-90h-162v-243h-172v243h-463zM1075 188h336v406z" />
<glyph unicode="&#xbf;" horiz-adv-x="897" d="M84 -33q0 127 67.5 217t180.5 172q84 59 120.5 116.5t36.5 150.5v65h60q14 -25 36.5 -77t22.5 -107q0 -86 -36.5 -157t-125.5 -142q-37 -31 -67.5 -58.5t-54 -60.5t-37 -73t-13.5 -95q0 -92 55.5 -144.5t153.5 -52.5q96 0 138.5 51.5t42.5 141.5v76h163q43 -39 43 -99 q0 -57 -30.5 -105t-82.5 -84t-122 -56.5t-148 -20.5q-180 0 -291.5 85t-111.5 257zM371 954q0 63 43 106.5t106 43.5t106.5 -43.5t43.5 -106.5t-43 -106t-107 -43q-63 0 -106 43t-43 106z" />
<glyph unicode="&#xc0;" horiz-adv-x="1480" d="M10 0v80q41 6 75 20.5t50 55.5l486 1165l-64 135h227l564 -1300q16 -41 46.5 -55.5t75.5 -20.5v-80h-548v80q106 4 148 22.5t42 65.5q0 18 -6 38.5t-16 43.5l-97 225h-604l-90 -223q-10 -23 -16.5 -44.5t-6.5 -37.5q0 -47 43 -66.5t150 -23.5v-80h-459zM368 1864h246 l152 -305h-80zM426 565h530l-270 641z" />
<glyph unicode="&#xc1;" horiz-adv-x="1480" d="M10 0v80q41 6 75 20.5t50 55.5l486 1165l-64 135h227l564 -1300q16 -41 46.5 -55.5t75.5 -20.5v-80h-548v80q106 4 148 22.5t42 65.5q0 18 -6 38.5t-16 43.5l-97 225h-604l-90 -223q-10 -23 -16.5 -44.5t-6.5 -37.5q0 -47 43 -66.5t150 -23.5v-80h-459zM426 565h530 l-270 641zM639 1559l152 305h246l-318 -305h-80z" />
<glyph unicode="&#xc2;" horiz-adv-x="1480" d="M10 0v80q41 6 75 20.5t50 55.5l486 1165l-64 135h227l564 -1300q16 -41 46.5 -55.5t75.5 -20.5v-80h-548v80q106 4 148 22.5t42 65.5q0 18 -6 38.5t-16 43.5l-97 225h-604l-90 -223q-10 -23 -16.5 -44.5t-6.5 -37.5q0 -47 43 -66.5t150 -23.5v-80h-459zM330 1559l307 325 h140l307 -325h-94l-283 184l-283 -184h-94zM426 565h530l-270 641z" />
<glyph unicode="&#xc3;" horiz-adv-x="1480" d="M10 0v80q41 6 75 20.5t50 55.5l486 1165l-64 135h227l564 -1300q16 -41 46.5 -55.5t75.5 -20.5v-80h-548v80q106 4 148 22.5t42 65.5q0 18 -6 38.5t-16 43.5l-97 225h-604l-90 -223q-10 -23 -16.5 -44.5t-6.5 -37.5q0 -47 43 -66.5t150 -23.5v-80h-459zM342 1597 q35 76 63.5 124t56.5 75t56.5 37t65.5 10q45 0 86 -23.5t78 -51t70.5 -50t66.5 -22.5q47 0 72.5 31.5t60.5 95.5l76 -21q-35 -76 -63.5 -124t-56.5 -74.5t-56.5 -37t-65.5 -10.5q-47 0 -87 23t-77 50.5t-70.5 51t-66.5 23.5q-47 0 -72.5 -32t-60.5 -95zM426 565h530 l-270 641z" />
<glyph unicode="&#xc4;" horiz-adv-x="1480" d="M10 0v80q41 6 75 20.5t50 55.5l486 1165l-64 135h227l564 -1300q16 -41 46.5 -55.5t75.5 -20.5v-80h-548v80q106 4 148 22.5t42 65.5q0 18 -6 38.5t-16 43.5l-97 225h-604l-90 -223q-10 -23 -16.5 -44.5t-6.5 -37.5q0 -47 43 -66.5t150 -23.5v-80h-459zM377 1704 q0 51 36 87t89 36t89 -36t36 -87q0 -53 -36 -90t-89 -37t-89 37t-36 90zM426 565h530l-270 641zM787 1704q0 51 36 87t89 36t89 -36t36 -87q0 -53 -36 -90t-89 -37t-89 37t-36 90z" />
<glyph unicode="&#xc5;" horiz-adv-x="1480" d="M10 0v80q41 6 75 20.5t50 55.5l486 1165l-64 135h227l564 -1300q16 -41 46.5 -55.5t75.5 -20.5v-80h-548v80q106 4 148 22.5t42 65.5q0 18 -6 38.5t-16 43.5l-97 225h-604l-90 -223q-10 -23 -16.5 -44.5t-6.5 -37.5q0 -47 43 -66.5t150 -23.5v-80h-459zM426 565h530 l-270 641zM517 1730q0 80 52 133t138 53t138 -53t52 -133t-52 -133t-138 -53t-138 53t-52 133zM603 1730q0 -47 25.5 -79t78.5 -32t78.5 32t25.5 79t-25.5 79t-78.5 32t-78.5 -32t-25.5 -79z" />
<glyph unicode="&#xc6;" horiz-adv-x="2160" d="M10 0v80q41 6 74 23.5t59 52.5l799 1128q-14 41 -59 55.5t-142 18.5v80h1266v-342h-55q-29 68 -54.5 114.5t-59.5 76.5t-78 43t-105 13h-391v-561h348q68 0 99.5 46t47.5 139h70v-463h-70q-16 92 -48 138t-99 46h-348v-455q0 -84 48 -111.5t158 -27.5h205q68 0 112 12.5 t80 44t70.5 85t83.5 133.5h58l-62 -369h-1159v80q51 2 90 8t65.5 21.5t40 44t13.5 75.5v287h-541l-186 -266q-35 -49 -35 -98q0 -47 43 -58.5t156 -13.5v-80h-494zM588 606h479v684z" />
<glyph unicode="&#xc7;" horiz-adv-x="1378" d="M88 688q0 180 55.5 322.5t150.5 242t224 152.5t277 53q162 0 266 -37t176 -92v-313h-74q-41 178 -140 258t-241 80q-123 0 -213 -48.5t-148.5 -131t-86 -193.5t-27.5 -236q0 -139 32 -259.5t94.5 -210t155.5 -140.5t218 -51q154 0 249 89t154 267h76l-47 -348 q-49 -25 -99 -46t-107.5 -35.5t-123.5 -22.5q-61 -6 -135 -8l-31 -78q104 -2 164 -35t60 -117q0 -53 -29 -91t-79 -62.5t-117.5 -37t-143.5 -12.5l-12 68q111 0 175 23.5t64 70.5t-50 67.5t-140 24.5l74 181q-121 8 -224 51q-125 53 -213 147t-136 224.5t-48 283.5z" />
<glyph unicode="&#xc8;" horiz-adv-x="1372" d="M70 0v80q51 2 90 8t65.5 21.5t40 44t13.5 75.5v979q0 47 -13.5 76t-40 44t-65.5 21.5t-90 8.5v80h1149v-342h-56q-29 68 -54.5 114.5t-59 76.5t-77.5 43t-106 13h-391v-561h348q68 0 99.5 46t48.5 139h69v-463h-69q-16 92 -48 138t-100 46h-348v-455q0 -84 48 -111.5 t159 -27.5h205q68 0 111.5 12.5t79.5 44t71 85t84 133.5h57l-61 -369h-1159zM370 1864h246l152 -305h-80z" />
<glyph unicode="&#xc9;" horiz-adv-x="1372" d="M70 0v80q51 2 90 8t65.5 21.5t40 44t13.5 75.5v979q0 47 -13.5 76t-40 44t-65.5 21.5t-90 8.5v80h1149v-342h-56q-29 68 -54.5 114.5t-59 76.5t-77.5 43t-106 13h-391v-561h348q68 0 99.5 46t48.5 139h69v-463h-69q-16 92 -48 138t-100 46h-348v-455q0 -84 48 -111.5 t159 -27.5h205q68 0 111.5 12.5t79.5 44t71 85t84 133.5h57l-61 -369h-1159zM641 1559l152 305h246l-318 -305h-80z" />
<glyph unicode="&#xca;" horiz-adv-x="1372" d="M70 0v80q51 2 90 8t65.5 21.5t40 44t13.5 75.5v979q0 47 -13.5 76t-40 44t-65.5 21.5t-90 8.5v80h1149v-342h-56q-29 68 -54.5 114.5t-59 76.5t-77.5 43t-106 13h-391v-561h348q68 0 99.5 46t48.5 139h69v-463h-69q-16 92 -48 138t-100 46h-348v-455q0 -84 48 -111.5 t159 -27.5h205q68 0 111.5 12.5t79.5 44t71 85t84 133.5h57l-61 -369h-1159zM332 1559l307 325h140l307 -325h-94l-283 184l-283 -184h-94z" />
<glyph unicode="&#xcb;" horiz-adv-x="1372" d="M70 0v80q51 2 90 8t65.5 21.5t40 44t13.5 75.5v979q0 47 -13.5 76t-40 44t-65.5 21.5t-90 8.5v80h1149v-342h-56q-29 68 -54.5 114.5t-59 76.5t-77.5 43t-106 13h-391v-561h348q68 0 99.5 46t48.5 139h69v-463h-69q-16 92 -48 138t-100 46h-348v-455q0 -84 48 -111.5 t159 -27.5h205q68 0 111.5 12.5t79.5 44t71 85t84 133.5h57l-61 -369h-1159zM379 1704q0 51 36 87t89 36t89 -36t36 -87q0 -53 -36 -90t-89 -37t-89 37t-36 90zM789 1704q0 51 36 87t89 36t89 -36t36 -87q0 -53 -36 -90t-89 -37t-89 37t-36 90z" />
<glyph unicode="&#xcc;" horiz-adv-x="753" d="M39 1864h246l152 -305h-80zM70 0v80q51 2 90 8t65.5 21.5t40 44t13.5 75.5v979q0 47 -13.5 76t-40 44t-65.5 21.5t-90 8.5v80h614v-80q-51 -2 -90 -8.5t-65.5 -21.5t-40 -44t-13.5 -76v-979q0 -47 13.5 -75.5t40 -44t65.5 -21.5t90 -8v-80h-614z" />
<glyph unicode="&#xcd;" horiz-adv-x="753" d="M70 0v80q51 2 90 8t65.5 21.5t40 44t13.5 75.5v979q0 47 -13.5 76t-40 44t-65.5 21.5t-90 8.5v80h614v-80q-51 -2 -90 -8.5t-65.5 -21.5t-40 -44t-13.5 -76v-979q0 -47 13.5 -75.5t40 -44t65.5 -21.5t90 -8v-80h-614zM309 1559l152 305h246l-318 -305h-80z" />
<glyph unicode="&#xce;" horiz-adv-x="753" d="M0 1559l307 325h140l307 -325h-94l-283 184l-283 -184h-94zM70 0v80q51 2 90 8t65.5 21.5t40 44t13.5 75.5v979q0 47 -13.5 76t-40 44t-65.5 21.5t-90 8.5v80h614v-80q-51 -2 -90 -8.5t-65.5 -21.5t-40 -44t-13.5 -76v-979q0 -47 13.5 -75.5t40 -44t65.5 -21.5t90 -8v-80 h-614z" />
<glyph unicode="&#xcf;" horiz-adv-x="753" d="M47 1704q0 51 36 87t89 36t89 -36t36 -87q0 -53 -36 -90t-89 -37t-89 37t-36 90zM70 0v80q51 2 90 8t65.5 21.5t40 44t13.5 75.5v979q0 47 -13.5 76t-40 44t-65.5 21.5t-90 8.5v80h614v-80q-51 -2 -90 -8.5t-65.5 -21.5t-40 -44t-13.5 -76v-979q0 -47 13.5 -75.5t40 -44 t65.5 -21.5t90 -8v-80h-614zM457 1704q0 51 36 87t89 36t89 -36t36 -87q0 -53 -36 -90t-89 -37t-89 37t-36 90z" />
<glyph unicode="&#xd0;" horiz-adv-x="1568" d="M92 0v80q51 2 90 8t65.5 21.5t40 44t13.5 75.5v463h-209v88h209v428q0 47 -13.5 76t-40 44t-65.5 21.5t-90 8.5v80h629q199 0 343 -56.5t236.5 -149.5t136.5 -216t44 -256q0 -184 -57.5 -326.5t-157 -239t-232.5 -145.5t-282 -49h-660zM498 240q0 -90 50 -118t159 -28h45 q238 0 374 158t136 463q0 119 -32 232.5t-100.5 201.5t-179 141t-268.5 53h-184v-563h356v-88h-356v-452z" />
<glyph unicode="&#xd1;" horiz-adv-x="1650" d="M70 0v80q51 2 90 8t65.5 21.5t40 44t13.5 75.5v1000q-31 37 -53.5 60.5t-44 38.5t-48.5 22.5t-63 7.5v80h350l852 -1080v850q0 47 -13.5 76t-40 44t-65.5 21.5t-90 8.5v80h536v-80q-51 -2 -90 -8.5t-65.5 -21.5t-39.5 -44t-13 -76v-1208h-84l-910 1137v-908 q0 -47 13.5 -75.5t40 -44t65.5 -21.5t90 -8v-80h-536zM448 1597q35 76 63.5 124t56.5 75t56.5 37t65.5 10q45 0 86 -23.5t78 -51t70.5 -50t66.5 -22.5q47 0 72.5 31.5t60.5 95.5l76 -21q-35 -76 -63.5 -124t-56.5 -74.5t-56.5 -37t-65.5 -10.5q-47 0 -87 23t-77 50.5 t-70.5 51t-66.5 23.5q-47 0 -72.5 -32t-60.5 -95z" />
<glyph unicode="&#xd2;" horiz-adv-x="1531" d="M88 690q0 176 54.5 318.5t147.5 242t218 153.5t264 54q160 0 285 -57.5t211 -154.5t131 -226t45 -272q0 -176 -54.5 -318.5t-147.5 -242t-218 -153.5t-264 -54q-160 0 -285 57t-211 154.5t-131 226.5t-45 272zM307 725q0 -117 27.5 -230.5t86 -202.5t149.5 -144.5 t218 -55.5q109 0 191 48t136 131t82 197t28 245q0 117 -28 230.5t-86 202.5t-149.5 144.5t-218.5 55.5q-109 0 -190.5 -48.5t-136 -131.5t-82 -196.5t-27.5 -244.5zM428 1864h246l152 -305h-80z" />
<glyph unicode="&#xd3;" horiz-adv-x="1531" d="M88 690q0 176 54.5 318.5t147.5 242t218 153.5t264 54q160 0 285 -57.5t211 -154.5t131 -226t45 -272q0 -176 -54.5 -318.5t-147.5 -242t-218 -153.5t-264 -54q-160 0 -285 57t-211 154.5t-131 226.5t-45 272zM307 725q0 -117 27.5 -230.5t86 -202.5t149.5 -144.5 t218 -55.5q109 0 191 48t136 131t82 197t28 245q0 117 -28 230.5t-86 202.5t-149.5 144.5t-218.5 55.5q-109 0 -190.5 -48.5t-136 -131.5t-82 -196.5t-27.5 -244.5zM698 1559l152 305h246l-318 -305h-80z" />
<glyph unicode="&#xd4;" horiz-adv-x="1531" d="M88 690q0 176 54.5 318.5t147.5 242t218 153.5t264 54q160 0 285 -57.5t211 -154.5t131 -226t45 -272q0 -176 -54.5 -318.5t-147.5 -242t-218 -153.5t-264 -54q-160 0 -285 57t-211 154.5t-131 226.5t-45 272zM307 725q0 -117 27.5 -230.5t86 -202.5t149.5 -144.5 t218 -55.5q109 0 191 48t136 131t82 197t28 245q0 117 -28 230.5t-86 202.5t-149.5 144.5t-218.5 55.5q-109 0 -190.5 -48.5t-136 -131.5t-82 -196.5t-27.5 -244.5zM389 1559l307 325h140l307 -325h-94l-283 184l-283 -184h-94z" />
<glyph unicode="&#xd5;" horiz-adv-x="1531" d="M88 690q0 176 54.5 318.5t147.5 242t218 153.5t264 54q160 0 285 -57.5t211 -154.5t131 -226t45 -272q0 -176 -54.5 -318.5t-147.5 -242t-218 -153.5t-264 -54q-160 0 -285 57t-211 154.5t-131 226.5t-45 272zM307 725q0 -117 27.5 -230.5t86 -202.5t149.5 -144.5 t218 -55.5q109 0 191 48t136 131t82 197t28 245q0 117 -28 230.5t-86 202.5t-149.5 144.5t-218.5 55.5q-109 0 -190.5 -48.5t-136 -131.5t-82 -196.5t-27.5 -244.5zM391 1597q35 76 63.5 124t56.5 75t56.5 37t65.5 10q45 0 86 -23.5t78 -51t70.5 -50t66.5 -22.5 q47 0 72.5 31.5t60.5 95.5l76 -21q-35 -76 -63.5 -124t-56.5 -74.5t-56.5 -37t-65.5 -10.5q-47 0 -87 23t-77 50.5t-70.5 51t-66.5 23.5q-47 0 -72.5 -32t-60.5 -95z" />
<glyph unicode="&#xd6;" horiz-adv-x="1531" d="M88 690q0 176 54.5 318.5t147.5 242t218 153.5t264 54q160 0 285 -57.5t211 -154.5t131 -226t45 -272q0 -176 -54.5 -318.5t-147.5 -242t-218 -153.5t-264 -54q-160 0 -285 57t-211 154.5t-131 226.5t-45 272zM307 725q0 -117 27.5 -230.5t86 -202.5t149.5 -144.5 t218 -55.5q109 0 191 48t136 131t82 197t28 245q0 117 -28 230.5t-86 202.5t-149.5 144.5t-218.5 55.5q-109 0 -190.5 -48.5t-136 -131.5t-82 -196.5t-27.5 -244.5zM436 1704q0 51 36 87t89 36t89 -36t36 -87q0 -53 -36 -90t-89 -37t-89 37t-36 90zM846 1704q0 51 36 87 t89 36t89 -36t36 -87q0 -53 -36 -90t-89 -37t-89 37t-36 90z" />
<glyph unicode="&#xd7;" horiz-adv-x="999" d="M129 469l281 281l-281 282l90 90l279 -284l282 284l90 -90l-282 -282l282 -281l-90 -86l-282 279l-279 -279z" />
<glyph unicode="&#xd8;" horiz-adv-x="1544" d="M94 690q0 176 54.5 318.5t147.5 242t218 153.5t264 54q160 0 285 -57q43 -20 80 -45l119 180l79 -47l-124 -189q31 -25 57 -55q86 -96 131 -225t45 -272q0 -176 -54.5 -318.5t-147.5 -242t-218 -153.5t-264 -54q-160 0 -285 57q-37 16 -71 37l-125 -189l-80 47l129 197 q-35 29 -64 61q-86 98 -131 227.5t-45 272.5zM313 725q0 -117 28 -230.5t85 -203.5q4 -4 8 -10l621 942q-39 36 -88 67q-90 55 -217 56q-109 0 -191 -48.5t-136 -131.5t-82 -196.5t-28 -244.5zM498 207q35 -35 77 -60q93 -55 220 -55q109 0 190.5 48t136 131t82 197 t27.5 245q0 117 -27.5 230.5t-87.5 201.5v2z" />
<glyph unicode="&#xd9;" horiz-adv-x="1568" d="M16 1358v80h615v-80q-51 -2 -90 -8.5t-64.5 -21.5t-39 -44t-13.5 -76v-704q0 -193 99.5 -294t275.5 -101q207 0 317.5 95t110.5 316v688q0 47 -13.5 76t-40 44t-65.5 21.5t-90 8.5v80h534v-80q-51 -2 -90 -8.5t-64.5 -21.5t-38.5 -44t-13 -76v-727q0 -127 -45.5 -221 t-121 -155.5t-175 -92t-209.5 -30.5q-129 0 -234.5 29.5t-179.5 92t-115 157.5t-41 224v723q0 47 -13 76t-40 44t-65.5 21.5t-90.5 8.5zM487 1864h246l152 -305h-80z" />
<glyph unicode="&#xda;" horiz-adv-x="1568" d="M16 1358v80h615v-80q-51 -2 -90 -8.5t-64.5 -21.5t-39 -44t-13.5 -76v-704q0 -193 99.5 -294t275.5 -101q207 0 317.5 95t110.5 316v688q0 47 -13.5 76t-40 44t-65.5 21.5t-90 8.5v80h534v-80q-51 -2 -90 -8.5t-64.5 -21.5t-38.5 -44t-13 -76v-727q0 -127 -45.5 -221 t-121 -155.5t-175 -92t-209.5 -30.5q-129 0 -234.5 29.5t-179.5 92t-115 157.5t-41 224v723q0 47 -13 76t-40 44t-65.5 21.5t-90.5 8.5zM757 1559l152 305h246l-318 -305h-80z" />
<glyph unicode="&#xdb;" horiz-adv-x="1568" d="M16 1358v80h615v-80q-51 -2 -90 -8.5t-64.5 -21.5t-39 -44t-13.5 -76v-704q0 -193 99.5 -294t275.5 -101q207 0 317.5 95t110.5 316v688q0 47 -13.5 76t-40 44t-65.5 21.5t-90 8.5v80h534v-80q-51 -2 -90 -8.5t-64.5 -21.5t-38.5 -44t-13 -76v-727q0 -127 -45.5 -221 t-121 -155.5t-175 -92t-209.5 -30.5q-129 0 -234.5 29.5t-179.5 92t-115 157.5t-41 224v723q0 47 -13 76t-40 44t-65.5 21.5t-90.5 8.5zM448 1559l307 325h140l307 -325h-94l-283 184l-283 -184h-94z" />
<glyph unicode="&#xdc;" horiz-adv-x="1568" d="M16 1358v80h615v-80q-51 -2 -90 -8.5t-64.5 -21.5t-39 -44t-13.5 -76v-704q0 -193 99.5 -294t275.5 -101q207 0 317.5 95t110.5 316v688q0 47 -13.5 76t-40 44t-65.5 21.5t-90 8.5v80h534v-80q-51 -2 -90 -8.5t-64.5 -21.5t-38.5 -44t-13 -76v-727q0 -127 -45.5 -221 t-121 -155.5t-175 -92t-209.5 -30.5q-129 0 -234.5 29.5t-179.5 92t-115 157.5t-41 224v723q0 47 -13 76t-40 44t-65.5 21.5t-90.5 8.5zM495 1704q0 51 36 87t89 36t89 -36t36 -87q0 -53 -36 -90t-89 -37t-89 37t-36 90zM905 1704q0 51 36 87t89 36t89 -36t36 -87 q0 -53 -36 -90t-89 -37t-89 37t-36 90z" />
<glyph unicode="&#xdd;" horiz-adv-x="1357" d="M10 1358v80h543v-80q-106 -4 -146 -19.5t-40 -56.5q0 -25 10 -46.5t26 -47.5l314 -504l321 504q16 27 25.5 48t9.5 46q0 41 -40 56.5t-146 19.5v80h461v-80q-45 -6 -73 -20.5t-52 -55.5l-453 -702v-351q0 -47 13.5 -75.5t40 -44t65.5 -21.5t88 -8v-80h-610v80q51 2 90 8 t65.5 21.5t39.5 44t13 75.5v349l-440 704q-25 41 -53.5 55.5t-71.5 20.5zM643 1559l152 305h246l-318 -305h-80z" />
<glyph unicode="&#xde;" horiz-adv-x="1267" d="M70 0v80q51 2 90 8t65.5 21.5t40 44t13.5 75.5v979q0 47 -13.5 76t-40 44t-65.5 21.5t-90 8.5v80h614v-80q-51 -2 -90 -8.5t-65.5 -21.5t-40 -44t-13.5 -76v-78h191q147 0 251.5 -32.5t171 -87t97.5 -127t31 -152.5q0 -90 -32 -164.5t-96.5 -129t-161 -85t-227.5 -30.5 h-225v-93q0 -47 18.5 -74.5t52.5 -43t83 -22.5t110 -9v-80h-669zM475 416h150q190 0 281 68.5t91 238.5q0 147 -91 230t-281 83h-150v-620z" />
<glyph unicode="&#xdf;" horiz-adv-x="1349" d="M82 0v72q33 4 62.5 10t50 17.5t33 33t12.5 55.5v789h-152v67l152 54q0 109 32.5 195.5t95 148t150.5 94.5t199 33q174 0 268 -75t94 -218q0 -57 -20.5 -100t-51 -79t-66.5 -67t-66.5 -60.5t-51 -61t-20.5 -70.5q0 -29 16.5 -49.5t46 -41t72.5 -43t98 -55.5 q53 -31 98.5 -62.5t77 -70.5t50 -87t18.5 -116q0 -74 -28.5 -135t-78 -105t-113 -67.5t-130.5 -23.5q-104 0 -183 28.5t-133 79.5l-12 272h76q31 -131 85 -209.5t163 -78.5q86 0 136 45t50 133q0 47 -15.5 82t-45 64.5t-73.5 58t-101 61.5q-51 29 -91.5 56.5t-67 59.5 t-39.5 68.5t-13 83.5q0 61 37.5 110.5t82.5 103t83 118t38 156.5q0 100 -47 156.5t-160 56.5q-125 0 -197.5 -95.5t-72.5 -273.5v-1118h-348z" />
<glyph unicode="&#xe0;" horiz-adv-x="1095" d="M92 256q0 72 25.5 121t66.5 84t92.5 57.5t100.5 40.5l323 117v100q0 45 -9 87t-32.5 75t-62.5 51.5t-98 18.5q-168 0 -168 -152q0 -49 14 -106l-154 -21q-23 23 -33 48.5t-10 62.5q0 63 30 112t82 83t123 52.5t155 18.5q178 0 266 -88t88 -256q0 -25 -1 -95.5t-2 -151.5 t-2 -154.5t-1 -106.5q0 -139 94 -139q14 0 44 3t52 9l10 -49q-53 -53 -102 -75.5t-102 -22.5q-78 0 -119 51t-55 135q-29 -31 -64 -64.5t-78 -60.5t-93 -44t-107 -17q-70 0 -121 22.5t-85 60t-50.5 88t-16.5 105.5zM217 1559h238l152 -347h-80zM285 305q0 -88 43 -135 t121 -47q72 0 129 22.5t122 69.5v367l-290 -111q-57 -23 -91 -64.5t-34 -101.5z" />
<glyph unicode="&#xe1;" horiz-adv-x="1095" d="M92 256q0 72 25.5 121t66.5 84t92.5 57.5t100.5 40.5l323 117v100q0 45 -9 87t-32.5 75t-62.5 51.5t-98 18.5q-168 0 -168 -152q0 -49 14 -106l-154 -21q-23 23 -33 48.5t-10 62.5q0 63 30 112t82 83t123 52.5t155 18.5q178 0 266 -88t88 -256q0 -25 -1 -95.5t-2 -151.5 t-2 -154.5t-1 -106.5q0 -139 94 -139q14 0 44 3t52 9l10 -49q-53 -53 -102 -75.5t-102 -22.5q-78 0 -119 51t-55 135q-29 -31 -64 -64.5t-78 -60.5t-93 -44t-107 -17q-70 0 -121 22.5t-85 60t-50.5 88t-16.5 105.5zM285 305q0 -88 43 -135t121 -47q72 0 129 22.5t122 69.5 v367l-290 -111q-57 -23 -91 -64.5t-34 -101.5zM471 1212l152 347h238l-310 -347h-80z" />
<glyph unicode="&#xe2;" horiz-adv-x="1095" d="M92 256q0 72 25.5 121t66.5 84t92.5 57.5t100.5 40.5l323 117v100q0 45 -9 87t-32.5 75t-62.5 51.5t-98 18.5q-168 0 -168 -152q0 -49 14 -106l-154 -21q-23 23 -33 48.5t-10 62.5q0 63 30 112t82 83t123 52.5t155 18.5q178 0 266 -88t88 -256q0 -25 -1 -95.5t-2 -151.5 t-2 -154.5t-1 -106.5q0 -139 94 -139q14 0 44 3t52 9l10 -49q-53 -53 -102 -75.5t-102 -22.5q-78 0 -119 51t-55 135q-29 -31 -64 -64.5t-78 -60.5t-93 -44t-107 -17q-70 0 -121 22.5t-85 60t-50.5 88t-16.5 105.5zM179 1212l286 355h140l286 -355h-94l-262 211l-262 -211 h-94zM285 305q0 -88 43 -135t121 -47q72 0 129 22.5t122 69.5v367l-290 -111q-57 -23 -91 -64.5t-34 -101.5z" />
<glyph unicode="&#xe3;" horiz-adv-x="1095" d="M92 256q0 72 25.5 121t66.5 84t92.5 57.5t100.5 40.5l323 117v100q0 45 -9 87t-32.5 75t-62.5 51.5t-98 18.5q-168 0 -168 -152q0 -49 14 -106l-154 -21q-23 23 -33 48.5t-10 62.5q0 63 30 112t82 83t123 52.5t155 18.5q178 0 266 -88t88 -256q0 -25 -1 -95.5t-2 -151.5 t-2 -154.5t-1 -106.5q0 -139 94 -139q14 0 44 3t52 9l10 -49q-53 -53 -102 -75.5t-102 -22.5q-78 0 -119 51t-55 135q-29 -31 -64 -64.5t-78 -60.5t-93 -44t-107 -17q-70 0 -121 22.5t-85 60t-50.5 88t-16.5 105.5zM168 1292q35 76 63.5 124t56.5 75t56.5 37t65.5 10 q45 0 86 -23.5t78 -51t70.5 -50t66.5 -22.5q47 0 72.5 31.5t60.5 95.5l76 -21q-35 -76 -63.5 -124t-56.5 -74.5t-56.5 -37t-65.5 -10.5q-47 0 -87 22.5t-77 50.5t-70.5 51.5t-66.5 23.5q-47 0 -72.5 -32t-60.5 -95zM285 305q0 -88 43 -135t121 -47q72 0 129 22.5t122 69.5 v367l-290 -111q-57 -23 -91 -64.5t-34 -101.5z" />
<glyph unicode="&#xe4;" horiz-adv-x="1095" d="M92 256q0 72 25.5 121t66.5 84t92.5 57.5t100.5 40.5l323 117v100q0 45 -9 87t-32.5 75t-62.5 51.5t-98 18.5q-168 0 -168 -152q0 -49 14 -106l-154 -21q-23 23 -33 48.5t-10 62.5q0 63 30 112t82 83t123 52.5t155 18.5q178 0 266 -88t88 -256q0 -25 -1 -95.5t-2 -151.5 t-2 -154.5t-1 -106.5q0 -139 94 -139q14 0 44 3t52 9l10 -49q-53 -53 -102 -75.5t-102 -22.5q-78 0 -119 51t-55 135q-29 -31 -64 -64.5t-78 -60.5t-93 -44t-107 -17q-70 0 -121 22.5t-85 60t-50.5 88t-16.5 105.5zM222 1386q0 51 35.5 87t88.5 36t89 -35.5t36 -87.5 q0 -53 -35.5 -89.5t-89.5 -36.5q-53 0 -88.5 36.5t-35.5 89.5zM285 305q0 -88 43 -135t121 -47q72 0 129 22.5t122 69.5v367l-290 -111q-57 -23 -91 -64.5t-34 -101.5zM611 1386q0 51 35.5 87t89.5 36q53 0 88.5 -35.5t35.5 -87.5q0 -53 -35.5 -89.5t-88.5 -36.5t-89 36.5 t-36 89.5z" />
<glyph unicode="&#xe5;" horiz-adv-x="1095" d="M92 256q0 72 25.5 121t66.5 84t92.5 57.5t100.5 40.5l323 117v100q0 45 -9 87t-32.5 75t-62.5 51.5t-98 18.5q-168 0 -168 -152q0 -49 14 -106l-154 -21q-23 23 -33 48.5t-10 62.5q0 63 30 112t82 83t123 52.5t155 18.5q178 0 266 -88t88 -256q0 -25 -1 -95.5t-2 -151.5 t-2 -154.5t-1 -106.5q0 -139 94 -139q14 0 44 3t52 9l10 -49q-53 -53 -102 -75.5t-102 -22.5q-78 0 -119 51t-55 135q-29 -31 -64 -64.5t-78 -60.5t-93 -44t-107 -17q-70 0 -121 22.5t-85 60t-50.5 88t-16.5 105.5zM285 305q0 -88 43 -135t121 -47q72 0 129 22.5t122 69.5 v367l-290 -111q-57 -23 -91 -64.5t-34 -101.5zM345 1391q0 80 52 133t138 53t138 -53.5t52 -132.5q0 -80 -52 -133.5t-138 -53.5t-138 53.5t-52 133.5zM431 1391q0 -47 25.5 -79t78.5 -32t78.5 32t25.5 79t-25.5 78.5t-78.5 31.5t-78.5 -31.5t-25.5 -78.5z" />
<glyph unicode="&#xe6;" horiz-adv-x="1695" d="M92 256q0 72 26.5 121t68.5 83t94.5 54.5t101.5 34.5l336 98q8 51 22 96q-2 31 -8 66q-10 53 -37.5 97t-75 73t-122.5 29q-168 0 -168 -152q0 -49 14 -106l-154 -21q-23 23 -33 48.5t-10 62.5q0 63 30 112t80 83t118.5 52.5t148.5 18.5q178 0 273 -88q33 -31 53 -74 q66 76 154 119q90 43 196 43q100 0 178 -34t129.5 -94t78 -144t26.5 -185v-63h-733q0 -100 25.5 -183.5t74.5 -142.5t118.5 -92t155.5 -33q117 0 193 50.5t133 125.5l35 -18q-37 -137 -146.5 -225t-283.5 -88q-113 0 -201 40.5t-149 112.5q-29 31 -50 68q-82 -102 -172 -160 q-96 -61 -227 -61q-70 0 -124 22.5t-92 60t-57.5 88t-19.5 105.5zM285 295q0 -80 43 -126t121 -46q111 0 190 43q63 35 123 78q-13 28 -23 57q-31 96 -30 207v41l-293 -88q-59 -18 -95 -59.5t-36 -106.5zM887 680h536q0 147 -63.5 236.5t-190.5 89.5q-61 0 -110 -27t-85 -72 t-58.5 -104.5t-28.5 -122.5z" />
<glyph unicode="&#xe7;" horiz-adv-x="1036" d="M82 508q0 121 38 229.5t106.5 190.5t164.5 130t215 48q164 0 255 -67.5t91 -184.5q0 -53 -23.5 -79.5t-58.5 -43.5h-104v70q0 86 -44 144.5t-142 58.5q-74 0 -133.5 -32t-102.5 -88.5t-66.5 -133t-23.5 -164.5q0 -100 24.5 -183.5t70.5 -142.5t113.5 -92t153.5 -33 q106 0 179 45t133 129l37 -20q-45 -156 -152.5 -232.5t-263.5 -76.5h-17l-30 -78q104 -2 163.5 -35t59.5 -117q0 -53 -28.5 -91t-79 -62.5t-118 -37t-143.5 -12.5l-12 68q111 0 175.5 23.5t64.5 70.5t-50.5 67.5t-140.5 24.5l76 185q-59 10 -111 32q-86 39 -147 110t-95 168 t-34 212z" />
<glyph unicode="&#xe8;" horiz-adv-x="1069" d="M82 508q0 135 37 244.5t102.5 188.5t155.5 122t196 43q100 0 178 -34t129.5 -94t78 -144t26.5 -185v-63h-733q0 -100 25.5 -183.5t74.5 -142.5t119 -92t156 -33q117 0 192.5 50.5t132.5 125.5l35 -18q-37 -137 -146.5 -225t-283.5 -88q-113 0 -201 40.5t-149.5 112.5 t-93 168t-31.5 207zM245 1559h238l152 -347h-80zM260 684h537q0 147 -63.5 234.5t-190.5 87.5q-61 0 -110.5 -27t-85.5 -71t-58.5 -102t-28.5 -122z" />
<glyph unicode="&#xe9;" horiz-adv-x="1069" d="M82 508q0 135 37 244.5t102.5 188.5t155.5 122t196 43q100 0 178 -34t129.5 -94t78 -144t26.5 -185v-63h-733q0 -100 25.5 -183.5t74.5 -142.5t119 -92t156 -33q117 0 192.5 50.5t132.5 125.5l35 -18q-37 -137 -146.5 -225t-283.5 -88q-113 0 -201 40.5t-149.5 112.5 t-93 168t-31.5 207zM260 684h537q0 147 -63.5 234.5t-190.5 87.5q-61 0 -110.5 -27t-85.5 -71t-58.5 -102t-28.5 -122zM499 1212l152 347h238l-310 -347h-80z" />
<glyph unicode="&#xea;" horiz-adv-x="1069" d="M82 508q0 135 37 244.5t102.5 188.5t155.5 122t196 43q100 0 178 -34t129.5 -94t78 -144t26.5 -185v-63h-733q0 -100 25.5 -183.5t74.5 -142.5t119 -92t156 -33q117 0 192.5 50.5t132.5 125.5l35 -18q-37 -137 -146.5 -225t-283.5 -88q-113 0 -201 40.5t-149.5 112.5 t-93 168t-31.5 207zM213 1212l286 355h140l286 -355h-94l-262 211l-262 -211h-94zM260 684h537q0 147 -63.5 234.5t-190.5 87.5q-61 0 -110.5 -27t-85.5 -71t-58.5 -102t-28.5 -122z" />
<glyph unicode="&#xeb;" horiz-adv-x="1069" d="M82 508q0 135 37 244.5t102.5 188.5t155.5 122t196 43q100 0 178 -34t129.5 -94t78 -144t26.5 -185v-63h-733q0 -100 25.5 -183.5t74.5 -142.5t119 -92t156 -33q117 0 192.5 50.5t132.5 125.5l35 -18q-37 -137 -146.5 -225t-283.5 -88q-113 0 -201 40.5t-149.5 112.5 t-93 168t-31.5 207zM246 1386q0 51 35.5 87t88.5 36t89 -35.5t36 -87.5q0 -53 -35.5 -89.5t-89.5 -36.5q-53 0 -88.5 36.5t-35.5 89.5zM260 684h537q0 147 -63.5 234.5t-190.5 87.5q-61 0 -110.5 -27t-85.5 -71t-58.5 -102t-28.5 -122zM635 1386q0 51 35.5 87t89.5 36 q53 0 88.5 -35.5t35.5 -87.5q0 -53 -35.5 -89.5t-88.5 -36.5t-89 36.5t-36 89.5z" />
<glyph unicode="&#xec;" horiz-adv-x="657" d="M-9 1559h238l152 -347h-80zM82 0v72q33 4 62.5 10t50 17.5t33 33t12.5 55.5v701l-148 72v43l285 102h51v-918q0 -35 11.5 -56t33 -32.5t50 -17.5t63.5 -10v-72h-504z" />
<glyph unicode="&#xed;" horiz-adv-x="657" d="M82 0v72q33 4 62.5 10t50 17.5t33 33t12.5 55.5v701l-148 72v43l285 102h51v-918q0 -35 11.5 -56t33 -32.5t50 -17.5t63.5 -10v-72h-504zM266 1212l152 347h238l-310 -347h-80z" />
<glyph unicode="&#xee;" horiz-adv-x="657" d="M-26 1212l286 355h140l286 -355h-94l-262 211l-262 -211h-94zM82 0v72q33 4 62.5 10t50 17.5t33 33t12.5 55.5v701l-148 72v43l285 102h51v-918q0 -35 11.5 -56t33 -32.5t50 -17.5t63.5 -10v-72h-504z" />
<glyph unicode="&#xef;" horiz-adv-x="657" d="M11 1386q0 51 35.5 87t88.5 36t89 -35.5t36 -87.5q0 -53 -35.5 -89.5t-89.5 -36.5q-53 0 -88.5 36.5t-35.5 89.5zM82 0v72q33 4 62.5 10t50 17.5t33 33t12.5 55.5v701l-148 72v43l285 102h51v-918q0 -35 11.5 -56t33 -32.5t50 -17.5t63.5 -10v-72h-504zM400 1386 q0 51 35.5 87t89.5 36q53 0 88.5 -35.5t35.5 -87.5q0 -53 -35.5 -89.5t-88.5 -36.5t-89 36.5t-36 89.5z" />
<glyph unicode="&#xf0;" d="M82 522q0 131 40 234.5t105.5 175.5t152.5 108.5t183 36.5q94 0 167 -44t126 -109q-35 88 -93 176t-136 168l-21 20l-289 -110l-30 79l248 95q-39 33 -82 61q-94 68 -205 111l39 65q199 -61 348 -162l35 -24l227 88l31 -80l-180 -70q78 -66 137 -139 q102 -127 153.5 -275.5t51.5 -310.5q0 -166 -41 -285.5t-110 -197.5t-162 -115.5t-197 -37.5q-115 0 -206 39.5t-156.5 112.5t-100.5 172t-35 218zM279 559q0 -96 21.5 -182t63.5 -150.5t102 -102.5t138 -38q72 0 126 32t90 89t54.5 139t18.5 180q0 96 -21.5 181.5 t-63.5 148t-102.5 99t-138.5 36.5q-145 0 -216.5 -116.5t-71.5 -315.5z" />
<glyph unicode="&#xf1;" horiz-adv-x="1318" d="M82 0v72q33 4 62.5 10t50 17.5t33 33t12.5 55.5v701l-148 72v43l285 102h51v-201q37 37 80 73t91 64.5t103.5 46t118.5 17.5q135 0 211 -78t76 -258v-582q0 -35 12.5 -56t34 -32.5t50 -17.5t63.5 -10v-72h-506v72q33 4 62.5 10t50 17.5t33 33t12.5 55.5v568 q0 111 -46.5 154.5t-144.5 43.5q-80 0 -161 -30.5t-140 -77.5v-658q0 -35 11.5 -56t33 -32.5t50 -17.5t63.5 -10v-72h-504zM299 1292q35 76 63.5 124t56.5 75t56.5 37t65.5 10q45 0 86 -23.5t78 -51t70.5 -50t66.5 -22.5q47 0 72.5 31.5t60.5 95.5l76 -21 q-35 -76 -63.5 -124t-56.5 -74.5t-56.5 -37t-65.5 -10.5q-47 0 -87 22.5t-77 50.5t-70.5 51.5t-66.5 23.5q-47 0 -72.5 -32t-60.5 -95z" />
<glyph unicode="&#xf2;" d="M82 522q0 131 41 239.5t109.5 184.5t161.5 118t198 42q113 0 205 -41t157.5 -112.5t100.5 -171t35 -218.5q0 -133 -41 -240.5t-110 -183.5t-162 -117.5t-197 -41.5q-115 0 -206 39.5t-156.5 112.5t-100.5 172t-35 218zM247 1559h238l152 -347h-80zM279 559 q0 -96 21.5 -182t63.5 -150.5t102 -102.5t138 -38q72 0 126 32t90 89t54.5 139t18.5 180q0 96 -21.5 182.5t-63.5 151t-102.5 102t-138.5 37.5q-72 0 -126 -31.5t-90 -89t-54 -139.5t-18 -180z" />
<glyph unicode="&#xf3;" d="M82 522q0 131 41 239.5t109.5 184.5t161.5 118t198 42q113 0 205 -41t157.5 -112.5t100.5 -171t35 -218.5q0 -133 -41 -240.5t-110 -183.5t-162 -117.5t-197 -41.5q-115 0 -206 39.5t-156.5 112.5t-100.5 172t-35 218zM279 559q0 -96 21.5 -182t63.5 -150.5t102 -102.5 t138 -38q72 0 126 32t90 89t54.5 139t18.5 180q0 96 -21.5 182.5t-63.5 151t-102.5 102t-138.5 37.5q-72 0 -126 -31.5t-90 -89t-54 -139.5t-18 -180zM522 1212l152 347h238l-310 -347h-80z" />
<glyph unicode="&#xf4;" d="M82 522q0 131 41 239.5t109.5 184.5t161.5 118t198 42q113 0 205 -41t157.5 -112.5t100.5 -171t35 -218.5q0 -133 -41 -240.5t-110 -183.5t-162 -117.5t-197 -41.5q-115 0 -206 39.5t-156.5 112.5t-100.5 172t-35 218zM230 1212l286 355h140l286 -355h-94l-262 211 l-262 -211h-94zM279 559q0 -96 21.5 -182t63.5 -150.5t102 -102.5t138 -38q72 0 126 32t90 89t54.5 139t18.5 180q0 96 -21.5 182.5t-63.5 151t-102.5 102t-138.5 37.5q-72 0 -126 -31.5t-90 -89t-54 -139.5t-18 -180z" />
<glyph unicode="&#xf5;" d="M82 522q0 131 41 239.5t109.5 184.5t161.5 118t198 42q113 0 205 -41t157.5 -112.5t100.5 -171t35 -218.5q0 -133 -41 -240.5t-110 -183.5t-162 -117.5t-197 -41.5q-115 0 -206 39.5t-156.5 112.5t-100.5 172t-35 218zM211 1292q35 76 63.5 124t56.5 75t56.5 37t65.5 10 q45 0 86 -23.5t78 -51t70.5 -50t66.5 -22.5q47 0 72.5 31.5t60.5 95.5l76 -21q-35 -76 -63.5 -124t-56.5 -74.5t-56.5 -37t-65.5 -10.5q-47 0 -87 22.5t-77 50.5t-70.5 51.5t-66.5 23.5q-47 0 -72.5 -32t-60.5 -95zM279 559q0 -96 21.5 -182t63.5 -150.5t102 -102.5t138 -38 q72 0 126 32t90 89t54.5 139t18.5 180q0 96 -21.5 182.5t-63.5 151t-102.5 102t-138.5 37.5q-72 0 -126 -31.5t-90 -89t-54 -139.5t-18 -180z" />
<glyph unicode="&#xf6;" d="M82 522q0 131 41 239.5t109.5 184.5t161.5 118t198 42q113 0 205 -41t157.5 -112.5t100.5 -171t35 -218.5q0 -133 -41 -240.5t-110 -183.5t-162 -117.5t-197 -41.5q-115 0 -206 39.5t-156.5 112.5t-100.5 172t-35 218zM267 1386q0 51 35.5 87t88.5 36t89 -35.5t36 -87.5 q0 -53 -35.5 -89.5t-89.5 -36.5q-53 0 -88.5 36.5t-35.5 89.5zM279 559q0 -96 21.5 -182t63.5 -150.5t102 -102.5t138 -38q72 0 126 32t90 89t54.5 139t18.5 180q0 96 -21.5 182.5t-63.5 151t-102.5 102t-138.5 37.5q-72 0 -126 -31.5t-90 -89t-54 -139.5t-18 -180z M656 1386q0 51 35.5 87t89.5 36q53 0 88.5 -35.5t35.5 -87.5q0 -53 -35.5 -89.5t-88.5 -36.5t-89 36.5t-36 89.5z" />
<glyph unicode="&#xf7;" horiz-adv-x="1155" d="M129 696v127h897v-127h-897zM461 414q0 49 33.5 83.5t80.5 34.5t83 -34.5t36 -83.5q0 -47 -35.5 -82t-83.5 -35q-47 0 -80.5 35t-33.5 82zM461 1106q0 47 33.5 81t80.5 34t83 -34t36 -81t-35.5 -83t-83.5 -36q-47 0 -80.5 36t-33.5 83z" />
<glyph unicode="&#xf8;" d="M82 522q0 131 41 239.5t109.5 184.5t161.5 118t198 42q113 0 205 -41l32 -16l91 151l84 -51l-93 -156q23 -18 43 -41q66 -72 101 -171t35 -218q0 -133 -41 -240.5t-110 -183.5t-162 -117.5t-197 -41.5q-115 0 -207 38q-14 6 -29 15l-92 -158l-84 51l94 160q-25 20 -45 45 q-66 74 -100.5 173t-34.5 218zM279 559q0 -100 18 -186q16 -80 51 -142l412 699q-22 19 -45 33q-61 37 -148 36q-72 0 -126 -31.5t-90 -89t-54 -139.5t-18 -180zM416 152q18 -16 41 -29q61 -37 147 -37q72 0 126 32t90 89t54.5 139t18.5 180q0 100 -19 187q-16 76 -49 133z " />
<glyph unicode="&#xf9;" horiz-adv-x="1288" d="M45 989v70l313 47h31v-762q0 -113 46 -163t145 -50q82 0 156.5 31t133.5 78v639q0 55 -24.5 75.5t-97.5 30.5l-33 4v70l311 47h33v-885q0 -53 22.5 -69.5t92.5 -24.5l53 -6v-70l-328 -71h-29v200q-39 -37 -79.5 -72.5t-87 -64.5t-98.5 -46t-116 -17q-135 0 -211.5 77.5 t-76.5 257.5v564q0 55 -24.5 75.5t-98.5 30.5zM297 1559h238l152 -347h-80z" />
<glyph unicode="&#xfa;" horiz-adv-x="1288" d="M45 989v70l313 47h31v-762q0 -113 46 -163t145 -50q82 0 156.5 31t133.5 78v639q0 55 -24.5 75.5t-97.5 30.5l-33 4v70l311 47h33v-885q0 -53 22.5 -69.5t92.5 -24.5l53 -6v-70l-328 -71h-29v200q-39 -37 -79.5 -72.5t-87 -64.5t-98.5 -46t-116 -17q-135 0 -211.5 77.5 t-76.5 257.5v564q0 55 -24.5 75.5t-98.5 30.5zM571 1212l152 347h238l-310 -347h-80z" />
<glyph unicode="&#xfb;" horiz-adv-x="1288" d="M45 989v70l313 47h31v-762q0 -113 46 -163t145 -50q82 0 156.5 31t133.5 78v639q0 55 -24.5 75.5t-97.5 30.5l-33 4v70l311 47h33v-885q0 -53 22.5 -69.5t92.5 -24.5l53 -6v-70l-328 -71h-29v200q-39 -37 -79.5 -72.5t-87 -64.5t-98.5 -46t-116 -17q-135 0 -211.5 77.5 t-76.5 257.5v564q0 55 -24.5 75.5t-98.5 30.5zM279 1212l286 355h140l286 -355h-94l-262 211l-262 -211h-94z" />
<glyph unicode="&#xfc;" horiz-adv-x="1288" d="M45 989v70l313 47h31v-762q0 -113 46 -163t145 -50q82 0 156.5 31t133.5 78v639q0 55 -24.5 75.5t-97.5 30.5l-33 4v70l311 47h33v-885q0 -53 22.5 -69.5t92.5 -24.5l53 -6v-70l-328 -71h-29v200q-39 -37 -79.5 -72.5t-87 -64.5t-98.5 -46t-116 -17q-135 0 -211.5 77.5 t-76.5 257.5v564q0 55 -24.5 75.5t-98.5 30.5zM316 1386q0 51 35.5 87t88.5 36t89 -35.5t36 -87.5q0 -53 -35.5 -89.5t-89.5 -36.5q-53 0 -88.5 36.5t-35.5 89.5zM705 1386q0 51 35.5 87t89.5 36q53 0 88.5 -35.5t35.5 -87.5q0 -53 -35.5 -89.5t-88.5 -36.5t-89 36.5 t-36 89.5z" />
<glyph unicode="&#xfd;" horiz-adv-x="1148" d="M10 1014v71h479v-71q-80 -10 -113.5 -23.5t-33.5 -50.5q0 -12 2 -23.5t12 -31.5l271 -668l252 668q8 20 11 31.5t3 23.5q0 37 -35 50.5t-113 23.5v71h394v-71q-35 -12 -55.5 -20.5t-33 -16.5t-19.5 -18.5t-13 -26.5l-453 -1141q-39 -98 -92 -156.5t-147 -58.5 q-51 0 -92 20.5t-66 53.5v94h106q96 0 143.5 28.5t78.5 112.5l41 109l-406 938q-8 16 -14 26.5t-18.5 17.5t-33 16t-55.5 22zM563 1212l152 347h238l-310 -347h-80z" />
<glyph unicode="&#xfe;" horiz-adv-x="1214" d="M10 -332q35 4 63.5 10.5t50 17.5t34 32.5t12.5 56.5v1556l-150 72v43l287 103h51v-631q63 82 149.5 130t199.5 48q104 0 184 -40t134 -109.5t81 -163t27 -199.5q0 -141 -39 -255t-107.5 -193.5t-161 -122.5t-198.5 -43q-96 0 -165 31.5t-104 80.5v-307q0 -35 12.5 -56.5 t34 -32.5t50 -17.5t63.5 -10.5v-71h-508v71zM358 358q0 -141 72 -212.5t193 -71.5q72 0 131 30.5t101 87t65.5 137.5t23.5 179q0 86 -17.5 169t-56.5 147.5t-99 104.5t-146 40q-78 0 -148.5 -25.5t-118.5 -75.5v-510z" />
<glyph unicode="&#xff;" horiz-adv-x="1148" d="M10 1014v71h479v-71q-80 -10 -113.5 -23.5t-33.5 -50.5q0 -12 2 -23.5t12 -31.5l271 -668l252 668q8 20 11 31.5t3 23.5q0 37 -35 50.5t-113 23.5v71h394v-71q-35 -12 -55.5 -20.5t-33 -16.5t-19.5 -18.5t-13 -26.5l-453 -1141q-39 -98 -92 -156.5t-147 -58.5 q-51 0 -92 20.5t-66 53.5v94h106q96 0 143.5 28.5t78.5 112.5l41 109l-406 938q-8 16 -14 26.5t-18.5 17.5t-33 16t-55.5 22zM308 1386q0 51 35.5 87t88.5 36t89 -35.5t36 -87.5q0 -53 -35.5 -89.5t-89.5 -36.5q-53 0 -88.5 36.5t-35.5 89.5zM697 1386q0 51 35.5 87t89.5 36 q53 0 88.5 -35.5t35.5 -87.5q0 -53 -35.5 -89.5t-88.5 -36.5t-89 36.5t-36 89.5z" />
<glyph unicode="&#x152;" horiz-adv-x="2068" d="M88 678q0 184 57.5 326.5t156.5 238.5t231.5 145.5t283.5 49.5h1098v-342h-55q-29 68 -54.5 114.5t-59.5 76.5t-78 43t-105 13h-392v-561h349q68 0 99.5 46t47.5 139h70v-463h-70q-16 92 -48 138t-99 46h-349v-455q0 -84 48.5 -111.5t158.5 -27.5h205q68 0 112 12.5 t79.5 44t70.5 85t84 133.5h58l-62 -369h-1077q-201 0 -344.5 55.5t-235.5 149.5t-136 217t-44 256zM307 723q0 -121 31 -233.5t100.5 -200.5t180 -141.5t268.5 -53.5h88v1249h-158q-238 0 -374 -157.5t-136 -462.5z" />
<glyph unicode="&#x153;" horiz-adv-x="1882" d="M82 522q0 131 41 239.5t109.5 184.5t161.5 118t198 42q156 0 268 -84q84 -61 137 -148q53 84 125 144q109 88 264 88q100 0 178 -34t129.5 -94t78 -144t26.5 -185v-63h-733q0 -100 25.5 -183.5t74.5 -142.5t119 -92t156 -33q117 0 192.5 50.5t132.5 125.5l35 -18 q-37 -137 -146.5 -225t-283.5 -88q-82 0 -152.5 24.5t-127 69.5t-97.5 104q-8 12 -16 25q-9 -13 -19 -23q-47 -61 -106 -106t-129 -69.5t-143 -24.5q-115 0 -206 39.5t-156.5 112.5t-100.5 172t-35 218zM279 559q0 -96 21.5 -182t63.5 -150.5t102 -102.5t138 -38 q72 0 126 32t90 89t54.5 139t18.5 180q0 96 -21.5 182.5t-63.5 151t-102.5 102t-138.5 37.5q-72 0 -126 -31.5t-90 -89t-54 -139.5t-18 -180zM1073 684h537q0 147 -63.5 234.5t-190.5 87.5q-61 0 -110.5 -27t-85.5 -71t-58.5 -102t-28.5 -122z" />
<glyph unicode="&#x178;" horiz-adv-x="1357" d="M10 1358v80h543v-80q-106 -4 -146 -19.5t-40 -56.5q0 -25 10 -46.5t26 -47.5l314 -504l321 504q16 27 25.5 48t9.5 46q0 41 -40 56.5t-146 19.5v80h461v-80q-45 -6 -73 -20.5t-52 -55.5l-453 -702v-351q0 -47 13.5 -75.5t40 -44t65.5 -21.5t88 -8v-80h-610v80q51 2 90 8 t65.5 21.5t39.5 44t13 75.5v349l-440 704q-25 41 -53.5 55.5t-71.5 20.5zM381 1704q0 51 36 87t89 36t89 -36t36 -87q0 -53 -36 -90t-89 -37t-89 37t-36 90zM791 1704q0 51 36 87t89 36t89 -36t36 -87q0 -53 -36 -90t-89 -37t-89 37t-36 90z" />
<glyph unicode="&#x2c6;" horiz-adv-x="1024" d="M156 1212l286 355h140l286 -355h-94l-262 211l-262 -211h-94z" />
<glyph unicode="&#x2dc;" horiz-adv-x="1024" d="M135 1292q35 76 63.5 124t56.5 75t56.5 37t65.5 10q45 0 86 -23.5t78 -51t70.5 -50t66.5 -22.5q47 0 72.5 31.5t60.5 95.5l76 -21q-35 -76 -63.5 -124t-56.5 -74.5t-56.5 -37t-65.5 -10.5q-47 0 -87 22.5t-77 50.5t-70.5 51.5t-66.5 23.5q-47 0 -72.5 -32t-60.5 -95z" />
<glyph unicode="&#x2000;" horiz-adv-x="958" />
<glyph unicode="&#x2001;" horiz-adv-x="1916" />
<glyph unicode="&#x2002;" horiz-adv-x="958" />
<glyph unicode="&#x2003;" horiz-adv-x="1916" />
<glyph unicode="&#x2004;" horiz-adv-x="638" />
<glyph unicode="&#x2005;" horiz-adv-x="479" />
<glyph unicode="&#x2006;" horiz-adv-x="319" />
<glyph unicode="&#x2007;" horiz-adv-x="319" />
<glyph unicode="&#x2008;" horiz-adv-x="239" />
<glyph unicode="&#x2009;" horiz-adv-x="383" />
<glyph unicode="&#x200a;" horiz-adv-x="106" />
<glyph unicode="&#x2010;" horiz-adv-x="737" d="M102 547v155h533v-155h-533z" />
<glyph unicode="&#x2011;" horiz-adv-x="737" d="M102 547v155h533v-155h-533z" />
<glyph unicode="&#x2012;" horiz-adv-x="737" d="M102 547v155h533v-155h-533z" />
<glyph unicode="&#x2013;" horiz-adv-x="1187" d="M102 557v135h983v-135h-983z" />
<glyph unicode="&#x2014;" horiz-adv-x="2048" d="M102 557v135h1844v-135h-1844z" />
<glyph unicode="&#x2018;" horiz-adv-x="548" d="M121 1235q0 63 18.5 119.5t58.5 99.5t102 70.5t153 34.5v-82q-113 -16 -163 -62.5t-50 -120.5h77q43 -10 68 -38.5t25 -79.5q0 -59 -39 -94t-97 -35q-78 0 -115.5 54t-37.5 134z" />
<glyph unicode="&#x2019;" horiz-adv-x="548" d="M102 1047v81q113 16 163 62.5t50 120.5h-77q-43 10 -68 38.5t-25 80.5q0 59 39 94t97 35q78 0 115.5 -54.5t37.5 -134.5q0 -63 -18.5 -119.5t-58.5 -99.5t-103.5 -70.5t-151.5 -33.5z" />
<glyph unicode="&#x201a;" horiz-adv-x="548" d="M102 -150q113 16 163 62.5t50 120.5h-77q-43 10 -68 38.5t-25 80.5q0 59 39 94t97 35q78 0 115.5 -54.5t37.5 -134.5q0 -63 -18.5 -119.5t-58.5 -99.5t-103.5 -70.5t-151.5 -33.5v81z" />
<glyph unicode="&#x201c;" horiz-adv-x="952" d="M121 1235q0 63 18.5 119.5t58.5 99.5t102 70.5t153 34.5v-82q-113 -16 -163 -62.5t-50 -120.5h77q43 -10 68 -38.5t25 -79.5q0 -59 -39 -94t-97 -35q-78 0 -115.5 54t-37.5 134zM524 1235q0 63 18.5 119.5t58.5 99.5t102.5 70.5t152.5 34.5v-82q-113 -16 -163 -62.5 t-50 -120.5h78q43 -10 67.5 -38.5t24.5 -79.5q0 -59 -39 -94t-96 -35q-78 0 -116 54t-38 134z" />
<glyph unicode="&#x201d;" horiz-adv-x="952" d="M102 1047v81q113 16 163 62.5t50 120.5h-77q-43 10 -68 38.5t-25 80.5q0 59 39 94t97 35q78 0 115.5 -54.5t37.5 -134.5q0 -63 -18.5 -119.5t-58.5 -99.5t-103.5 -70.5t-151.5 -33.5zM506 1047v81q113 16 163 62.5t50 120.5h-78q-43 10 -67.5 38.5t-24.5 80.5q0 59 39 94 t96 35q78 0 116 -54.5t38 -134.5q0 -63 -18.5 -119.5t-58.5 -99.5t-103.5 -70.5t-151.5 -33.5z" />
<glyph unicode="&#x201e;" horiz-adv-x="952" d="M102 -150q113 16 163 62.5t50 120.5h-77q-43 10 -68 38.5t-25 80.5q0 59 39 94t97 35q78 0 115.5 -54.5t37.5 -134.5q0 -63 -18.5 -119.5t-58.5 -99.5t-103.5 -70.5t-151.5 -33.5v81zM506 -150q113 16 163 62.5t50 120.5h-78q-43 10 -67.5 38.5t-24.5 80.5q0 59 39 94 t96 35q78 0 116 -54.5t38 -134.5q0 -63 -18.5 -119.5t-58.5 -99.5t-103.5 -70.5t-151.5 -33.5v81z" />
<glyph unicode="&#x2022;" horiz-adv-x="724" d="M113 614q0 51 19.5 97.5t53 80t79.5 53t97 19.5t97.5 -19.5t80 -53t53 -79.5t19.5 -98q0 -51 -19.5 -97t-53 -80t-79.5 -53t-98 -19q-51 0 -97 19t-79.5 53t-53 80t-19.5 97z" />
<glyph unicode="&#x2026;" horiz-adv-x="1744" d="M141 129q0 63 43 106.5t107 43.5q63 0 106 -43t43 -107q0 -63 -43 -106t-106 -43t-106.5 43t-43.5 106zM723 129q0 63 43 106.5t106 43.5t106.5 -43t43.5 -107q0 -63 -43 -106t-107 -43q-63 0 -106 43t-43 106zM1305 129q0 63 43 106.5t106 43.5t106.5 -43t43.5 -107 q0 -63 -43 -106t-107 -43q-63 0 -106 43t-43 106z" />
<glyph unicode="&#x202f;" horiz-adv-x="383" />
<glyph unicode="&#x2039;" horiz-adv-x="610" d="M92 551v20l330 390h96l-235 -400l235 -399h-96z" />
<glyph unicode="&#x203a;" horiz-adv-x="610" d="M92 162l236 399l-236 400h96l330 -390v-20l-330 -389h-96z" />
<glyph unicode="&#x205f;" horiz-adv-x="479" />
<glyph unicode="&#x20ac;" horiz-adv-x="1390" d="M47 555v88h176v55q0 45 2 88h-178v88h189q10 74 30 140q45 141 125 239.5t190.5 151.5t241.5 53q139 0 240.5 -32.5t175.5 -90.5v-315h-76q-39 170 -126 249t-222 79q-96 0 -166.5 -49.5t-117 -132.5t-70.5 -193q-10 -47 -17 -99h553l-28 -88h-531v-43q0 -51 2 -100h492 l-29 -88h-454l10 -61q23 -119 69.5 -209t124.5 -143.5t191 -53.5q80 0 138 22.5t102 66.5t76 110.5t59 152.5h79l-36 -350q-92 -49 -195.5 -79.5t-228.5 -30.5q-154 0 -268.5 53t-191.5 149.5t-116 227.5q-20 70 -31 145h-184z" />
<glyph unicode="&#x2122;" horiz-adv-x="1787" d="M92 1237l14 201h607l16 -201h-49q-18 39 -31.5 64.5t-29 41t-36 22.5t-53.5 7h-53v-498q0 -37 26.5 -47t76.5 -14v-55h-338v55q47 4 74.5 14.5t27.5 46.5v498h-53q-33 0 -53.5 -7t-36 -22.5t-27.5 -41t-31 -64.5h-51zM754 758v55q74 2 80 49l59 461q-2 29 -18.5 42 t-63.5 17v56h207q6 -37 14 -58l166 -436l170 436q8 20 14 58h195v-56q-45 -4 -61.5 -17t-18.5 -42l59 -461q4 -29 22.5 -37t59.5 -12v-55h-301v55q53 4 73 13.5t20 37.5q0 8 -2.5 27.5t-6.5 38.5l-41 313l-182 -485h-59l-185 485l-41 -311q-4 -20 -5 -41t-1 -27 q0 -29 19.5 -38t72.5 -13v-55h-245z" />
<glyph unicode="&#x25fc;" horiz-adv-x="1085" d="M0 0v1085h1085v-1085h-1085z" />
</font>
</defs>
</svg>
